<?xml version="1.0" standalone="no"?>
<!DOCTYPE svg PUBLIC "-//W3C//DTD SVG 1.1//EN" "http://www.w3.org/Graphics/SVG/1.1/DTD/svg11.dtd" >
<svg xmlns="http://www.w3.org/2000/svg" xmlns:xlink="http://www.w3.org/1999/xlink" version="1.1">
<metadata>
Created by FontForge 20170731 at Wed May 11 17:20:06 2016
 By Aleksey,,,
Copyright 2008 The Bungee Project Authors (david@djr.com)
</metadata>
<defs>
<font id="BungeeInline-Regular" horiz-adv-x="1000" >
  <font-face 
    font-family="Bungee Inline"
    font-weight="400"
    font-stretch="normal"
    units-per-em="1000"
    panose-1="0 0 0 0 0 0 0 0 0 0"
    ascent="860"
    descent="-140"
    x-height="720"
    cap-height="720"
    bbox="-604.118 -914.118 1942.12 1634.12"
    underline-thickness="0"
    underline-position="0"
    unicode-range="U+0020-FF3E"
  />
<missing-glyph 
d="M900 -4q0 -19 -8.5 -27.5t-27.5 -8.5h-728q-19 0 -27.5 8.5t-8.5 27.5v728q0 19 8.5 27.5t27.5 8.5h728q19 0 27.5 -8.5t8.5 -27.5v-728zM120 -20h760v760h-760v-760zM870 -10h-740v740h740v-740zM850 10v700h-700v-700h700z" />
    <glyph glyph-name="I_I.salt_v" unicode="&#xe201;&#xe201;" 
d="M427 684v-648q0 -19 -8.5 -27.5t-27.5 -8.5h-155q-19 0 -27.5 8.5t-8.5 27.5v648q0 19 8.5 27.5t27.5 8.5h155q19 0 27.5 -8.5t8.5 -27.5zM573 36v648q0 19 8.5 27.5t27.5 8.5h155q19 0 27.5 -8.5t8.5 -27.5v-648q0 -19 -8.5 -27.5t-27.5 -8.5h-155q-19 0 -27.5 8.5
t-8.5 27.5zM309 630v-540h10v540h-10zM681 630v-540h10v540h-10z" />
    <glyph glyph-name=".notdef" 
d="M900 -4q0 -19 -8.5 -27.5t-27.5 -8.5h-728q-19 0 -27.5 8.5t-8.5 27.5v728q0 19 8.5 27.5t27.5 8.5h728q19 0 27.5 -8.5t8.5 -27.5v-728zM120 -20h760v760h-760v-760zM870 -10h-740v740h740v-740zM850 10v700h-700v-700h700z" />
    <glyph glyph-name=".null" horiz-adv-x="0" 
 />
    <glyph glyph-name="nonmarkingreturn" horiz-adv-x="333" 
 />
    <glyph glyph-name="space" unicode=" " horiz-adv-x="225" 
 />
    <glyph glyph-name="exclam" unicode="!" horiz-adv-x="424" 
d="M290 262h-155q-19 0 -27.5 8.5t-9.5 27.5l-15 386q-1 19 7 27.5t27 8.5h191q19 0 27 -8.5t7 -27.5l-14 -386q-1 -19 -10 -27.5t-28 -8.5zM208 630v-278h10v278h-10zM305 0h-184q-19 0 -27.5 8.5t-8.5 27.5v131q0 19 8.5 27.5t27.5 8.5h184q19 0 27.5 -8.5t8.5 -27.5v-131
q0 -19 -8.5 -27.5t-27.5 -8.5zM218 80v43h-10v-43h10z" />
    <glyph glyph-name="quotedbl" unicode="&#x22;" horiz-adv-x="646" 
d="M241 345h-144q-26 0 -33.5 7.5t-8.5 33.5l-8 293q-1 26 6.5 33.5t33.5 7.5h165q25 0 32.5 -7.5t6.5 -33.5l-8 -293q-1 -26 -8.5 -33.5t-33.5 -7.5zM551 345h-144q-26 0 -33.5 7.5t-8.5 33.5l-8 293q-1 26 6.5 33.5t33.5 7.5h165q25 0 32.5 -7.5t6.5 -33.5l-8 -293
q-1 -26 -8.5 -33.5t-33.5 -7.5zM474 630v-195h10v195h-10zM164 630v-195h10v195h-10z" />
    <glyph glyph-name="numbersign" unicode="#" horiz-adv-x="750" 
d="M534 495l-38 -265h-279l38 265h279zM425 314l14 97h-113l-14 -97h113zM187 90h10l19 130h279l-19 -130h10l19 130h84v10h-83l38 265h81v10h-80l18 125h-10l-18 -125h-279l18 125h-10l-18 -125h-85v-10h84l-38 -265h-82v-10h81zM272 36q-2 -19 -9.5 -27.5t-26.5 -8.5h-105
q-19 0 -28.5 8.5t-7.5 27.5l14 99h-38q-19 0 -27.5 8.5t-8.5 27.5v107q0 19 8.5 27.5t27.5 8.5h64l14 97h-42q-19 0 -27.5 8.5t-8.5 27.5v107q0 19 8.5 27.5t27.5 8.5h68l13 94q2 19 9.5 27.5t26.5 8.5h105q19 0 28.5 -8.5t7.5 -27.5l-13 -94h113l13 94q2 19 9.5 27.5
t26.5 8.5h105q19 0 28.5 -8.5t7.5 -27.5l-13 -94h37q19 0 27.5 -8.5t8.5 -27.5v-107q0 -19 -8.5 -27.5t-27.5 -8.5h-63l-14 -97h41q19 0 27.5 -8.5t8.5 -27.5v-107q0 -19 -8.5 -27.5t-27.5 -8.5h-67l-14 -99q-2 -19 -9.5 -27.5t-26.5 -8.5h-105q-19 0 -28.5 8.5t-7.5 27.5
l14 99h-113z" />
    <glyph glyph-name="dollar" unicode="$" horiz-adv-x="650" 
d="M405 -90h-145q-19 0 -27.5 8.5t-8.5 27.5v54h-137q-19 0 -27.5 8.5t-8.5 27.5v117q0 19 8.5 27.5t27.5 8.5h269q13 0 19.5 8.5t6.5 20.5q0 17 -6.5 25t-19.5 9l-150 21q-70 10 -112.5 46t-42.5 120v105q0 78 46 122.5t127 51.5v56q0 19 8.5 27.5t27.5 8.5h145
q19 0 27.5 -8.5t8.5 -27.5v-54h97q19 0 27.5 -8.5t8.5 -27.5v-119q0 -19 -8.5 -27.5t-27.5 -8.5h-233q-13 0 -20 -8.5t-7 -21.5t7 -22t20 -10l149 -20q70 -10 113 -46t43 -120v-105q0 -76 -45 -121t-124 -53v-56q0 -19 -8.5 -27.5t-27.5 -8.5zM328 0h10v90h52q51 0 81 28.5
t30 72.5v58q0 52 -19.5 72t-49.5 26l-211 43q-23 4 -37 18t-14 49v82q0 35 25 58t67 23h222v10h-146v90h-10v-90h-66q-46 0 -74 -25.5t-28 -65.5v-82q0 -41 16.5 -56.5t42.5 -20.5l211 -43q28 -6 44.5 -23.5t16.5 -64.5v-58q0 -40 -27.5 -65.5t-73.5 -25.5h-249v-10h187v-90
z" />
    <glyph glyph-name="percent" unicode="%" horiz-adv-x="1031" 
d="M398 416q0 -26 -7.5 -48.5t-27.5 -38t-54.5 -24t-87.5 -8.5q-107 0 -143 33t-36 86v190q0 53 36 86t143 33q53 0 87.5 -8.5t54.5 -24t27.5 -38t7.5 -48.5v-190zM352 36l160 648q4 18 13 27t28 9h105q19 0 27 -9t4 -27l-160 -648q-4 -18 -13 -27t-28 -9h-105q-19 0 -27 9
t-4 27zM331 583q0 43 -25.5 61.5t-84.5 18.5q-58 0 -84.5 -18.5t-26.5 -61.5v-146q0 -43 26.5 -61t84.5 -18q59 0 84.5 18t25.5 61v146zM221 368q-51 0 -76 15t-25 54v146q0 39 25 54.5t76 15.5t75.5 -15.5t24.5 -54.5v-146q0 -39 -24.5 -54t-75.5 -15zM459 90l133 540h-10
l-133 -540h10zM187 447q0 -7 6 -12.5t28 -5.5q21 0 27 5.5t6 12.5v128q0 6 -6 11.5t-27 5.5q-22 0 -28 -5.5t-6 -11.5v-128zM996 113q0 -26 -7.5 -48.5t-27.5 -38t-54.5 -24t-87.5 -8.5q-107 0 -143 33t-36 86v190q0 53 36 86t143 33q53 0 87.5 -8.5t54.5 -24t27.5 -38
t7.5 -48.5v-190zM931 280q0 43 -25.5 61.5t-84.5 18.5q-58 0 -84.5 -18.5t-26.5 -61.5v-146q0 -43 26.5 -61t84.5 -18q59 0 84.5 18t25.5 61v146zM821 65q-51 0 -76 15t-25 54v146q0 39 25 54.5t76 15.5t75.5 -15.5t24.5 -54.5v-146q0 -39 -24.5 -54t-75.5 -15zM785 144
q0 -7 6 -12.5t28 -5.5q21 0 27 5.5t6 12.5v128q0 6 -6 11.5t-27 5.5q-22 0 -28 -5.5t-6 -11.5v-128z" />
    <glyph glyph-name="ampersand" unicode="&#x26;" horiz-adv-x="766" 
d="M296 187h142q22 0 30 10t8 30v138q0 19 8.5 27.5t27.5 8.5h194q19 0 27.5 -8.5t8.5 -27.5v-108q0 -19 -8.5 -27.5t-27.5 -8.5h-23v-45q0 -80 -46 -128t-133 -48h-278q-92 0 -140.5 48t-48.5 128v80q0 70 36 110t90 45q-33 14 -46 42t-13 66v48q0 66 45.5 109.5
t146.5 43.5h211q19 0 27.5 -8.5t8.5 -27.5v-115q0 -19 -8.5 -27.5t-27.5 -8.5h-146q-24 0 -31 -9t-7 -21v-21q0 -12 7 -21t31 -9h15q19 0 27.5 -8.5t8.5 -27.5v-103q0 -19 -8.5 -27.5t-27.5 -8.5h-80q-24 0 -31 -8.5t-7 -20.5v-31q0 -12 7 -21t31 -9zM250 90h241
q44 0 68.5 22.5t24.5 68.5v125h65v10h-75v-135q0 -40 -21.5 -60.5t-61.5 -20.5h-235q-59 0 -86 23.5t-27 74.5v61q0 45 27.5 74.5t84.5 29.5h67v10h-10q-47 0 -69.5 23.5t-22.5 72.5v54q0 51 26 74t82 23h125v10h-125q-60 0 -89 -25t-29 -80v-56q0 -39 13 -63t39 -34h-7
q-62 0 -92 -32t-30 -81v-61q0 -55 29 -81.5t88 -26.5z" />
    <glyph glyph-name="quotesingle" unicode="'" horiz-adv-x="356" 
d="M251 345h-144q-26 0 -33.5 7.5t-8.5 33.5l-8 293q-1 26 6.5 33.5t33.5 7.5h165q25 0 32.5 -7.5t6.5 -33.5l-8 -293q-1 -26 -8.5 -33.5t-33.5 -7.5zM174 630v-195h10v195h-10z" />
    <glyph glyph-name="parenleft" unicode="(" horiz-adv-x="429" 
d="M348 -80h-54q-141 0 -193.5 57t-52.5 147v471q0 91 52.5 148t193.5 57h54q19 0 27.5 -8.5t8.5 -27.5v-121q0 -19 -8.5 -27.5t-27.5 -8.5h-31q-24 0 -32.5 -12t-8.5 -38v-396q0 -26 8.5 -38t32.5 -12h31q19 0 27.5 -8.5t8.5 -27.5v-119q0 -19 -8.5 -27.5t-27.5 -8.5z
M294 21q-59 0 -93 21t-34 82v471q0 61 33.5 82t93.5 21v10q-66 0 -101.5 -23.5t-35.5 -89.5v-471q0 -66 36 -89.5t101 -23.5v10z" />
    <glyph glyph-name="parenright" unicode=")" horiz-adv-x="429" 
d="M135 -80h-54q-19 0 -27.5 8.5t-8.5 27.5v119q0 19 8.5 27.5t27.5 8.5h31q24 0 32.5 12t8.5 38v396q0 26 -8.5 38t-32.5 12h-31q-19 0 -27.5 8.5t-8.5 27.5v121q0 19 8.5 27.5t27.5 8.5h54q141 0 193.5 -57t52.5 -148v-471q0 -90 -52.5 -147t-193.5 -57zM272 124v471
q0 66 -35.5 89.5t-101.5 23.5v-10q60 0 93.5 -21t33.5 -82v-471q0 -61 -34 -82t-93 -21v-10q65 0 101 23.5t36 89.5z" />
    <glyph glyph-name="asterisk" unicode="*" horiz-adv-x="718" 
d="M289 165q-12 -21 -21.5 -23.5t-31.5 11.5l-94 68q-21 15 -22 25t16 29l109 115l-152 25q-25 4 -30.5 12.5t2.5 33.5l36 111q7 25 17 29t32 -7l142 -64l-23 149q-4 25 3.5 33t32.5 8h117q25 0 31.5 -8t2.5 -33l-20 -149l137 64q22 11 31.5 7t17.5 -29l37 -111
q8 -25 2.5 -33.5t-30.5 -12.5l-153 -25l110 -115q17 -19 16 -29t-22 -25l-94 -68q-22 -14 -31 -11.5t-21 23.5l-74 141zM473 268l8 6l-106 152l172 56l-4 10l-174 -57v195h-10v-195l-174 57l-4 -10l172 -56l-106 -152l8 -6l109 155z" />
    <glyph glyph-name="plus" unicode="+" horiz-adv-x="734" 
d="M465 99q0 -19 -8.5 -27.5t-27.5 -8.5h-124q-19 0 -27.5 8.5t-8.5 27.5v168h-163q-19 0 -27.5 8.5t-8.5 27.5v114q0 19 8.5 27.5t27.5 8.5h163v168q0 19 8.5 27.5t27.5 8.5h124q19 0 27.5 -8.5t8.5 -27.5v-168h163q19 0 27.5 -8.5t8.5 -27.5v-114q0 -19 -8.5 -27.5
t-27.5 -8.5h-163v-168zM362 153h10v202h202v10h-202v202h-10v-202h-202v-10h202v-202z" />
    <glyph glyph-name="comma" unicode="," horiz-adv-x="384" 
d="M181 -100h-77q-19 0 -27.5 8.5t-8.5 27.5v40q0 19 8.5 27.5t27.5 8.5h69q13 0 20 7.5t7 20.5v15h-109q-19 0 -27.5 8.5t-8.5 27.5v148q0 19 8.5 27.5t27.5 8.5h202q19 0 27.5 -8.5t8.5 -27.5v-188q0 -76 -40.5 -113.5t-107.5 -37.5zM259 170h-134v-10h124v-109
q0 -40 -21 -60.5t-57 -20.5h-46v-10h46q40 0 64 22.5t24 68.5v119z" />
    <glyph glyph-name="hyphen" unicode="-" horiz-adv-x="420" 
d="M76 257q-19 0 -27.5 8.5t-8.5 27.5v134q0 19 8.5 27.5t27.5 8.5h268q19 0 27.5 -8.5t8.5 -27.5v-134q0 -19 -8.5 -27.5t-27.5 -8.5h-268zM290 365h-160v-10h160v10z" />
    <glyph glyph-name="period" unicode="." horiz-adv-x="384" 
d="M293 0h-202q-19 0 -27.5 8.5t-8.5 27.5v203q0 19 8.5 27.5t27.5 8.5h202q19 0 27.5 -8.5t8.5 -27.5v-203q0 -19 -8.5 -27.5t-27.5 -8.5zM187 90h10v95h-10v-95z" />
    <glyph glyph-name="slash" unicode="/" horiz-adv-x="347" 
d="M7 -54l120 828q2 19 9.5 27.5t26.5 8.5h145q19 0 28.5 -8.5t7.5 -27.5l-120 -828q-2 -19 -9.5 -27.5t-26.5 -8.5h-145q-19 0 -28.5 8.5t-7.5 27.5zM223 720l-104 -720h10l104 720h-10z" />
    <glyph glyph-name="zero" unicode="0" horiz-adv-x="727" 
d="M669 189q0 -46 -13 -83.5t-47 -64t-93.5 -41.5t-151.5 -15t-151.5 15t-93.5 41.5t-47.5 64t-13.5 83.5v341q0 46 13.5 83.5t47.5 64.5t93.5 42t151.5 15t151.5 -15t93.5 -42t47 -64.5t13 -83.5v-341zM166 212q0 -30 9 -55t31 -42.5t60.5 -27.5t96.5 -10q116 0 157.5 37.5
t41.5 97.5v295q0 59 -41.5 97t-157.5 38q-58 0 -96.5 -10t-60.5 -27.5t-31 -42.5t-9 -55v-295zM363 632q107 0 148 -34.5t41 -90.5v-295q0 -57 -41 -91t-148 -34t-147 34t-40 91v295q0 57 40 91t147 34zM284 225q0 -20 14.5 -33.5t65.5 -13.5t65.5 13.5t14.5 33.5v269
q0 19 -14.5 32.5t-65.5 13.5t-65.5 -13.5t-14.5 -32.5v-269z" />
    <glyph glyph-name="one" unicode="1" horiz-adv-x="601" 
d="M526 0h-442q-19 0 -27.5 8.5t-8.5 27.5v121q0 19 8.5 27.5t27.5 8.5h112v334h-92q-19 0 -27.5 8.5t-8.5 27.5v121q0 19 8.5 27.5t27.5 8.5h290q19 0 27.5 -8.5t8.5 -27.5v-491h96q19 0 27.5 -8.5t8.5 -27.5v-121q0 -19 -8.5 -27.5t-27.5 -8.5zM138 85h334v10h-154v535
h-160v-10h150v-525h-170v-10z" />
    <glyph glyph-name="two" unicode="2" horiz-adv-x="639" 
d="M552 0h-476q-19 0 -27.5 8.5t-8.5 27.5v172q0 58 11.5 95.5t32.5 61.5t50 38t63 24l134 42q16 4 21.5 12t5.5 24q0 15 -6 20.5t-21 5.5h-217q-19 0 -27.5 8.5t-8.5 27.5v117q0 19 8.5 27.5t27.5 8.5h295q85 0 130.5 -42.5t45.5 -123.5v-94q0 -75 -42 -115t-114 -62
l-136 -43q-15 -4 -20.5 -9t-5.5 -21v-21h285q19 0 27.5 -8.5t8.5 -27.5v-117q0 -19 -8.5 -27.5t-27.5 -8.5zM204 328q-31 -10 -43 -27.5t-12 -54.5v-156h349v10h-340v146q0 34 11 48.5t39 24.5l233 77q16 7 25.5 20t9.5 36v91q0 50 -28 68.5t-79 18.5h-201v-10h201
q45 0 71 -15.5t26 -61.5v-91q0 -19 -8 -30.5t-21 -16.5z" />
    <glyph glyph-name="three" unicode="3" horiz-adv-x="637" 
d="M85 189h251q24 0 31 9t7 21v27q0 12 -7 20.5t-31 8.5h-170q-19 0 -27.5 8.5t-8.5 27.5v107q0 19 8.5 27.5t27.5 8.5h105q24 0 31 9t7 21v15q0 12 -7 21t-31 9h-186q-19 0 -27.5 8.5t-8.5 27.5v119q0 19 8.5 27.5t27.5 8.5h279q83 0 123.5 -38.5t40.5 -104.5v-58
q0 -38 -13 -66t-46 -42q71 -8 98.5 -43.5t27.5 -101.5v-100q0 -77 -49 -121.5t-145 -44.5h-316q-19 0 -27.5 8.5t-8.5 27.5v117q0 19 8.5 27.5t27.5 8.5zM220 359h152q57 0 82.5 -25t25.5 -75v-69q0 -41 -23 -65.5t-98 -24.5h-220v-10h220q42 0 68 7.5t39.5 20.5t18.5 31.5
t5 40.5v69q0 52 -27 80t-89 28h-16q45 10 55.5 37.5t10.5 55.5v64q0 22 -5 41t-19 33.5t-40 23t-67 8.5h-154v-10h154q73 0 97 -26.5t24 -65.5v-68q0 -18 -3 -34.5t-14.5 -29t-33.5 -20t-60 -7.5h-83v-10z" />
    <glyph glyph-name="four" unicode="4" horiz-adv-x="709" 
d="M414 167h-169q-97 0 -139.5 40.5t-42.5 125.5v351q0 19 8.5 27.5t27.5 8.5h155q19 0 27.5 -8.5t8.5 -27.5v-274q0 -16 8.5 -25t22.5 -9h93v308q0 19 8.5 27.5t27.5 8.5h154q19 0 27.5 -8.5t8.5 -27.5v-648q0 -19 -8.5 -27.5t-27.5 -8.5h-154q-19 0 -27.5 8.5t-8.5 27.5
v131zM522 90h10v540h-10v-353h-239q-51 0 -76 23.5t-25 71.5v258h-10v-258q0 -52 27 -78.5t84 -26.5h239v-177z" />
    <glyph glyph-name="five" unicode="5" horiz-adv-x="647" 
d="M409 0h-318q-19 0 -27.5 8.5t-8.5 27.5v117q0 19 8.5 27.5t27.5 8.5h258q12 0 19.5 5.5t7.5 17.5v39q0 12 -7.5 17.5t-19.5 5.5h-248q-19 0 -27.5 8.5t-8.5 27.5v374q0 19 8.5 27.5t27.5 8.5h431q19 0 27.5 -8.5t8.5 -27.5v-119q0 -19 -8.5 -27.5t-27.5 -8.5h-240v-65
h137q81 0 128 -40t47 -119v-139q0 -76 -52.5 -121t-142.5 -45zM145 90h236q62 0 88 23.5t26 74.5v88q0 51 -26.5 74.5t-78.5 23.5h-206v246h294v10h-304v-266h216q46 0 70.5 -20.5t24.5 -67.5v-88q0 -46 -24 -67t-80 -21h-236v-10z" />
    <glyph glyph-name="six" unicode="6" horiz-adv-x="693" 
d="M358 -15q-92 0 -150.5 14.5t-91.5 41t-45.5 63.5t-12.5 83v328q0 91 52.5 148t193.5 57h230q19 0 27.5 -8.5t8.5 -27.5v-118q0 -19 -8.5 -27.5t-27.5 -8.5h-187q-37 0 -50 -11.5t-13 -48.5v-22q24 7 55.5 11t71.5 4q135 0 185 -45.5t50 -134.5v-96q0 -46 -12.5 -83
t-45 -63.5t-88.5 -41t-142 -14.5zM361 71q37 0 69.5 4t56.5 16t37.5 35t13.5 61v88q0 38 -13.5 60t-37 32.5t-55 13t-68.5 2.5q-66 0 -116 -8t-68 -48v188q0 62 33.5 83.5t90.5 21.5h176v10h-176q-63 0 -98.5 -24.5t-35.5 -90.5v-328q0 -38 14.5 -61.5t40.5 -35.5t61 -15.5
t75 -3.5zM361 81q-37 0 -70 3t-57.5 13.5t-39 32t-14.5 57.5v91q0 36 16.5 55.5t42.5 28.5t59 10t66 1t63 -1.5t52 -11t35.5 -29.5t13.5 -56v-88q0 -35 -13 -56.5t-36 -32.5t-53.5 -14t-64.5 -3zM284 262v-59q0 -16 12 -26.5t55 -10.5q45 0 57 10.5t12 26.5v59
q0 15 -12 25.5t-57 10.5q-43 0 -55 -10.5t-12 -25.5z" />
    <glyph glyph-name="seven" unicode="7" horiz-adv-x="627" 
d="M539 720q19 0 27.5 -8.5t8.5 -27.5v-253q0 -47 -9.5 -80t-28.5 -55t-48.5 -36.5t-69.5 -26.5l-74 -22v-175q0 -19 -8.5 -27.5t-27.5 -8.5h-162q-19 0 -27.5 8.5t-8.5 27.5v181q0 47 9.5 80t28.5 55t48.5 36.5t69.5 26.5l81 22v90h-274q-19 0 -27.5 8.5t-8.5 27.5v121
q0 19 8.5 27.5t27.5 8.5h465zM223 90h10v150q0 19 8 30t21 16l170 68q18 7 26.5 20t8.5 36v220h-339v-10h329v-210q0 -19 -7 -29.5t-22 -16.5l-170 -68q-16 -7 -25.5 -20t-9.5 -36v-150z" />
    <glyph glyph-name="eight" unicode="8" horiz-adv-x="711" 
d="M664 256v-97q0 -39 -14.5 -71t-49.5 -55t-94.5 -35.5t-149.5 -12.5t-150 12.5t-95 35.5t-49.5 55t-14.5 71v97q0 70 30.5 108t75.5 47q-33 14 -46 42t-13 66v58q0 37 13 66t43 49.5t81 31.5t126 11t125.5 -11t80 -31.5t42 -49.5t12.5 -66v-58q0 -38 -13 -66t-46 -42
q45 -9 75.5 -47t30.5 -108zM356 67q60 0 99.5 8t62 22t31.5 33.5t9 42.5v93q0 38 -27 65.5t-99 37.5q48 8 69 29.5t21 56.5v95q0 52 -39.5 77t-126.5 25t-127 -24t-40 -70v-103q0 -35 21.5 -56.5t69.5 -29.5q-72 -10 -99.5 -38t-27.5 -66v-92q0 -23 9 -42.5t32 -33.5
t62.5 -22t99.5 -8zM199 558q0 43 39.5 63.5t117.5 20.5t117 -21.5t39 -70.5v-95q0 -43 -38.5 -62t-117.5 -19t-118 19t-39 62v103zM293 480q0 -16 10.5 -26.5t52.5 -10.5q43 0 52.5 10.5t9.5 26.5v44q0 15 -9.5 25.5t-52.5 10.5q-42 0 -52.5 -10.5t-10.5 -25.5v-44zM163 265
q0 43 43 71t150 28t149.5 -27.5t42.5 -70.5v-93q0 -43 -42 -69.5t-150 -26.5t-150.5 26.5t-42.5 69.5v92zM268 197q0 -16 17 -26.5t71 -10.5t70.5 10.5t16.5 26.5v53q0 15 -16.5 25.5t-70.5 10.5t-71 -10.5t-17 -25.5v-53z" />
    <glyph glyph-name="nine" unicode="9" horiz-adv-x="693" 
d="M389 0h-230q-19 0 -27.5 8.5t-8.5 27.5v118q0 19 8.5 27.5t27.5 8.5h187q37 0 50 11.5t13 48.5v22q-24 -7 -55.5 -11t-71.5 -4q-135 0 -185 45.5t-50 134.5v96q0 46 12.5 83t45 63.5t88.5 41t142 14.5q92 0 150.5 -14.5t91.5 -41t45.5 -63.5t12.5 -83v-328
q0 -91 -52.5 -148t-193.5 -57zM213 90h176q63 0 98.5 24.5t35.5 90.5v328q0 38 -14.5 61.5t-40.5 35.5t-61 15.5t-75 3.5q-37 0 -69.5 -4t-56.5 -16t-37.5 -35t-13.5 -61v-88q0 -38 13.5 -60t37 -32.5t55 -13t68.5 -2.5q66 0 116 8t68 48v-188q0 -62 -33.5 -83.5
t-90.5 -21.5h-176v-10zM329 347q-33 0 -63 1.5t-52 11t-35.5 29.5t-13.5 56v88q0 35 13 56.5t36 32.5t53.5 14t64.5 3q37 0 70 -3t57.5 -13.5t39 -32t14.5 -57.5v-91q0 -36 -16.5 -55.5t-42.5 -28.5t-59 -10t-66 -1zM409 458v59q0 16 -12 26.5t-55 10.5q-45 0 -57 -10.5
t-12 -26.5v-59q0 -15 12 -25.5t57 -10.5q43 0 55 10.5t12 25.5z" />
    <glyph glyph-name="colon" unicode=":" horiz-adv-x="384" 
d="M293 0h-202q-19 0 -27.5 8.5t-8.5 27.5v203q0 19 8.5 27.5t27.5 8.5h202q19 0 27.5 -8.5t8.5 -27.5v-203q0 -19 -8.5 -27.5t-27.5 -8.5zM187 90h10v95h-10v-95zM293 355h-202q-19 0 -27.5 8.5t-8.5 27.5v203q0 19 8.5 27.5t27.5 8.5h202q19 0 27.5 -8.5t8.5 -27.5v-203
q0 -19 -8.5 -27.5t-27.5 -8.5zM187 445h10v95h-10v-95z" />
    <glyph glyph-name="semicolon" unicode=";" horiz-adv-x="384" 
d="M181 -100h-77q-19 0 -27.5 8.5t-8.5 27.5v40q0 19 8.5 27.5t27.5 8.5h69q13 0 20 7.5t7 20.5v15h-109q-19 0 -27.5 8.5t-8.5 27.5v148q0 19 8.5 27.5t27.5 8.5h202q19 0 27.5 -8.5t8.5 -27.5v-188q0 -76 -40.5 -113.5t-107.5 -37.5zM259 170h-134v-10h124v-109
q0 -40 -21 -60.5t-57 -20.5h-46v-10h46q40 0 64 22.5t24 68.5v119zM293 355h-202q-19 0 -27.5 8.5t-8.5 27.5v203q0 19 8.5 27.5t27.5 8.5h202q19 0 27.5 -8.5t8.5 -27.5v-203q0 -19 -8.5 -27.5t-27.5 -8.5zM187 445h10v95h-10v-95z" />
    <glyph glyph-name="less" unicode="&#x3c;" horiz-adv-x="714" 
d="M588 59l-381 109q-62 18 -94.5 49.5t-32.5 105.5v72q0 74 32.5 105.5t94.5 49.5l381 109q19 4 27.5 -4t8.5 -27v-132q0 -19 -8.5 -28.5t-27.5 -12.5l-287 -77q-10 -2 -13.5 -6t-3.5 -13t3.5 -13t13.5 -6l287 -77q19 -3 27.5 -12.5t8.5 -28.5v-132q0 -19 -8.5 -27
t-27.5 -4zM534 176l-298 86q-21 6 -35.5 19.5t-14.5 41.5v72q0 28 14.5 40t35.5 18l298 86v10l-300 -86q-25 -7 -41.5 -21t-16.5 -47v-72q0 -33 16.5 -48.5t41.5 -22.5l300 -86v10z" />
    <glyph glyph-name="equal" unicode="=" horiz-adv-x="734" 
d="M106 417q-19 0 -27.5 8.5t-8.5 27.5v114q0 19 8.5 27.5t27.5 8.5h522q19 0 27.5 -8.5t8.5 -27.5v-114q0 -19 -8.5 -27.5t-27.5 -8.5h-522zM160 505h414v10h-414v-10zM106 117q-19 0 -27.5 8.5t-8.5 27.5v114q0 19 8.5 27.5t27.5 8.5h522q19 0 27.5 -8.5t8.5 -27.5v-114
q0 -19 -8.5 -27.5t-27.5 -8.5h-522zM160 205h414v10h-414v-10z" />
    <glyph glyph-name="greater" unicode="&#x3e;" horiz-adv-x="714" 
d="M507 168l-381 -109q-19 -4 -27.5 4t-8.5 27v132q0 19 8.5 28.5t27.5 12.5l287 77q10 2 13.5 6t3.5 13t-3.5 13t-13.5 6l-287 77q-19 3 -27.5 12.5t-8.5 28.5v132q0 19 8.5 27t27.5 4l381 -109q62 -18 94.5 -49.5t32.5 -105.5v-72q0 -74 -32.5 -105.5t-94.5 -49.5z
M480 252q25 7 41.5 22.5t16.5 48.5v72q0 33 -16.5 47t-41.5 21l-300 86v-10l298 -86q21 -6 35.5 -18t14.5 -40v-72q0 -28 -14.5 -41.5t-35.5 -19.5l-298 -86v-10z" />
    <glyph glyph-name="question" unicode="?" horiz-adv-x="656" 
d="M456 273l-271 -37q-19 -2 -27.5 5t-11.5 26l-21 132q-3 19 5.5 29t27.5 12l199 28q15 2 21 9t6 22q0 14 -7 21t-20 7h-276q-19 0 -27.5 8.5t-8.5 27.5v121q0 19 8.5 27.5t27.5 8.5h323q97 0 152 -45.5t55 -130.5v-105q0 -84 -42 -120t-113 -46zM225 340l216 30
q23 3 40 13t17 41v113q0 54 -30 72.5t-64 18.5h-269v-10h269q31 0 57.5 -16t26.5 -65v-113q0 -26 -15 -33.5t-34 -10.5l-216 -29zM344 0h-183q-19 0 -27.5 8.5t-8.5 27.5v131q0 19 8.5 27.5t27.5 8.5h183q19 0 27.5 -8.5t8.5 -27.5v-131q0 -19 -8.5 -27.5t-27.5 -8.5z
M248 80h10v43h-10v-43z" />
    <glyph glyph-name="at" unicode="@" horiz-adv-x="867" 
d="M624 -91h-190q-112 0 -185 18t-114.5 50t-58 77.5t-16.5 99.5v410q0 55 16.5 100.5t58 78t114.5 50.5t185 18t185 -18t114.5 -50.5t57.5 -78t16 -100.5v-260q0 -46 -8.5 -83.5t-33 -64t-68.5 -41.5t-114 -15h-189q-101 0 -138.5 40.5t-37.5 105.5v193q0 66 37.5 106.5
t138.5 40.5h225q13 0 19.5 -6.5t6.5 -19.5v-349q39 0 50.5 25.5t11.5 65.5v266q0 32 -12 59.5t-42 46.5t-83.5 30t-135.5 11t-135.5 -11t-84 -30t-42.5 -46.5t-12 -59.5v-418q0 -32 12 -59t42.5 -46t84 -29.5t135.5 -10.5h190q19 0 26.5 -7.5t7.5 -26.5v-28
q0 -19 -7.5 -26.5t-26.5 -7.5zM434 -50h174v10h-174q-104 0 -167.5 15.5t-97 42t-44 61t-10.5 71.5v418q0 38 11 72.5t44.5 60.5t96.5 41.5t167 15.5t167 -15.5t96.5 -41.5t44 -60.5t10.5 -72.5v-266q0 -69 -24.5 -100.5t-82.5 -31.5h-76v357h-144q-49 0 -75.5 -9t-39 -23.5
t-14.5 -33.5t-2 -39v-161q0 -54 20 -77.5t69 -23.5h262q63 0 90 33.5t27 108.5v266q0 39 -10.5 75.5t-44 64t-99 44t-174.5 16.5t-174.5 -16.5t-99.5 -44t-44.5 -64t-10.5 -75.5v-418q0 -39 10.5 -75t44.5 -64t99.5 -44.5t174.5 -16.5zM383 170q-44 0 -61.5 21.5t-17.5 69.5
v161q0 18 2.5 35.5t14 30.5t36 21t68.5 8h134v-347h-176zM415 237h67v221h-57q-28 0 -36 -11.5t-8 -24.5v-151q0 -15 7 -24.5t27 -9.5z" />
    <glyph glyph-name="A" unicode="A" horiz-adv-x="730" 
d="M170 303q0 27 4.5 50t11.5 43l64 164q10 25 22 42.5t42 17.5h98q28 0 40 -17.5t23 -43.5l69 -163q7 -20 11.5 -43t4.5 -50v-31h-390v31zM330 510l-47 -152h157l-47 152q-4 9 -8.5 13t-10.5 4h-25q-6 0 -10.5 -4t-8.5 -13zM560 90h10v213q0 28 -4.5 51.5t-12.5 45.5
l-69 163q-12 29 -25.5 48t-46.5 19h-98q-34 0 -48 -19t-25 -47l-64 -164q-8 -22 -12.5 -45.5t-4.5 -51.5v-213h10v172h390v-172zM273 36q0 -19 -8.5 -27.5t-27.5 -8.5h-147q-19 0 -27.5 8.5t-8.5 27.5v264q0 30 9.5 69t29.5 91l87 227q6 17 18.5 25t32.5 8h269q19 0 31.5 -8
t18.5 -25l87 -227q20 -52 29.5 -91t9.5 -69v-264q0 -19 -8.5 -27.5t-27.5 -8.5h-151q-20 0 -29.5 8.5t-9.5 27.5v140h-177v-140z" />
    <glyph glyph-name="B" unicode="B" horiz-adv-x="725" 
d="M489 0h-384q-19 0 -27.5 8.5t-8.5 27.5v648q0 19 8.5 27.5t27.5 8.5h319q98 0 145 -37.5t47 -115.5v-48q0 -42 -14.5 -68.5t-44.5 -39.5q64 -6 95 -44t31 -111v-92q0 -84 -47.5 -124t-146.5 -40zM180 90h269q42 0 68 7.5t39.5 20.5t18.5 31.5t5 40.5v64q0 25 -4.5 46
t-18.5 36.5t-40 24t-67 8.5q43 11 53.5 36t10.5 55v64q0 22 -5 41t-19 33.5t-40 23t-67 8.5h-203v-540zM383 620q75 0 98 -28t23 -68v-64q0 -18 -3.5 -34.5t-16 -29t-36.5 -20t-65 -7.5h-193v251h193zM294 550v-108h85q19 0 28.5 10t9.5 30v28q0 20 -9.5 30t-28.5 10h-85z
M450 359q75 0 97.5 -30t22.5 -75v-64q0 -41 -23 -65.5t-98 -24.5h-259v259h260zM294 288v-118h130q19 0 28.5 10t9.5 30v39q0 20 -9.5 29.5t-28.5 9.5h-130z" />
    <glyph glyph-name="C" unicode="C" horiz-adv-x="628" 
d="M548 0h-244q-125 0 -185.5 50t-60.5 154v311q0 104 60.5 154.5t185.5 50.5h244q19 0 27.5 -8.5t8.5 -27.5v-121q0 -19 -8.5 -27.5t-27.5 -8.5h-201q-31 0 -46 -12.5t-15 -37.5v-238q0 -25 15 -36.5t46 -11.5h201q19 0 27.5 -8.5t8.5 -27.5v-119q0 -19 -8.5 -27.5
t-27.5 -8.5zM493 100h-167q-90 0 -120 27t-30 92v280q0 66 31 93.5t119 27.5h167v10h-167q-96 0 -128 -30t-32 -101v-280q0 -69 31.5 -99t128.5 -30h167v10z" />
    <glyph glyph-name="D" unicode="D" horiz-adv-x="746" 
d="M442 0h-337q-19 0 -27.5 8.5t-8.5 27.5v648q0 19 8.5 27.5t27.5 8.5h337q125 0 185.5 -50t60.5 -154v-312q0 -104 -60.5 -154t-185.5 -50zM178 90h242q51 0 83 10.5t49 28.5t22.5 43t5.5 54v265q0 29 -6 54.5t-23 44t-48.5 29.5t-82.5 11h-242v-540zM420 620
q47 0 76.5 -10t45.5 -27t22 -41t6 -51v-265q0 -27 -5.5 -50.5t-21.5 -40t-45.5 -26t-77.5 -9.5h-232v520h232zM296 529v-340h119q24 0 35.5 12t11.5 37v243q0 25 -11.5 36.5t-35.5 11.5h-119z" />
    <glyph glyph-name="E" unicode="E" horiz-adv-x="654" 
d="M569 0h-464q-19 0 -27.5 8.5t-8.5 27.5v648q0 19 8.5 27.5t27.5 8.5h464q19 0 27.5 -8.5t8.5 -27.5v-117q0 -19 -8.5 -27.5t-27.5 -8.5h-276v-77h195q19 0 27.5 -8.5t8.5 -27.5v-107q0 -19 -8.5 -27.5t-27.5 -8.5h-195v-86h276q19 0 27.5 -8.5t8.5 -27.5v-117
q0 -19 -8.5 -27.5t-27.5 -8.5zM515 100h-327v259h246v10h-246v251h327v10h-337v-540h337v10z" />
    <glyph glyph-name="F" unicode="F" horiz-adv-x="618" 
d="M260 0h-155q-19 0 -27.5 8.5t-8.5 27.5v648q0 19 8.5 27.5t27.5 8.5h446q19 0 27.5 -8.5t8.5 -27.5v-119q0 -19 -8.5 -27.5t-27.5 -8.5h-255v-104h174q19 0 27.5 -8.5t8.5 -27.5v-120q0 -19 -8.5 -27.5t-27.5 -8.5h-174v-197q0 -19 -8.5 -27.5t-27.5 -8.5zM178 90h10v234
h228v10h-228v286h309v10h-319v-540z" />
    <glyph glyph-name="G" unicode="G" horiz-adv-x="708" 
d="M619 0h-315q-125 0 -185.5 50t-60.5 154v312q0 104 60.5 154t185.5 50h250q19 0 27.5 -8.5t8.5 -27.5v-121q0 -19 -8.5 -27.5t-27.5 -8.5h-208q-31 0 -46 -12.5t-15 -37.5v-239q0 -25 11.5 -37t34.5 -12h97v156q0 19 8.5 27.5t27.5 8.5h155q19 0 27.5 -8.5t8.5 -27.5
v-309q0 -19 -8.5 -27.5t-27.5 -8.5zM347 90h199v201h-10v-191h-189q-101 0 -135.5 27t-34.5 92v280q0 66 31 93.5t119 27.5h173v10h-173q-96 0 -128 -30t-32 -101v-280q0 -35 7.5 -59.5t27.5 -40t55 -22.5t90 -7z" />
    <glyph glyph-name="H" unicode="H" horiz-adv-x="759" 
d="M177 90h10v265h384v-265h10v540h-10v-265h-384v265h-10v-540zM260 0h-155q-19 0 -27.5 8.5t-8.5 27.5v648q0 19 8.5 27.5t27.5 8.5h155q19 0 27.5 -8.5t8.5 -27.5v-217h167v217q0 19 8.5 27.5t27.5 8.5h155q19 0 27.5 -8.5t8.5 -27.5v-648q0 -19 -8.5 -27.5t-27.5 -8.5
h-155q-19 0 -27.5 8.5t-8.5 27.5v222h-167v-222q0 -19 -8.5 -27.5t-27.5 -8.5z" />
    <glyph glyph-name="I" unicode="I" horiz-adv-x="605" 
d="M89 0q-19 0 -27.5 8.5t-8.5 27.5v119q0 19 8.5 27.5t27.5 8.5h99v336h-99q-19 0 -27.5 8.5t-8.5 27.5v121q0 19 8.5 27.5t27.5 8.5h426q19 0 27.5 -8.5t8.5 -27.5v-121q0 -19 -8.5 -27.5t-27.5 -8.5h-97v-336h97q19 0 27.5 -8.5t8.5 -27.5v-119q0 -19 -8.5 -27.5
t-27.5 -8.5h-426zM461 90v10h-153v520h153v10h-318v-10h155v-520h-155v-10h318z" />
    <glyph glyph-name="J" unicode="J" horiz-adv-x="688" 
d="M624 189q0 -46 -13 -83.5t-45.5 -64t-89.5 -41.5t-145 -15q-87 0 -143.5 15t-89 41.5t-45 64t-12.5 83.5v162q0 19 8.5 27.5t27.5 8.5h145q19 0 27.5 -8.5t8.5 -27.5v-122q0 -20 12.5 -33.5t58.5 -13.5q43 0 54.5 13.5t11.5 33.5v455q0 19 8.5 27.5t27.5 8.5h157
q19 0 27.5 -8.5t8.5 -27.5v-495zM504 630v-417q0 -56 -36 -90.5t-135 -34.5q-103 0 -140.5 34t-37.5 91v79h-10v-79q0 -30 8.5 -55t29.5 -42.5t57.5 -27.5t92.5 -10q106 0 143.5 38t37.5 97v417h-10z" />
    <glyph glyph-name="K" unicode="K" horiz-adv-x="746" 
d="M188 90v264h269q55 0 83 -20t28 -68v-176h10v176q0 52 -30 75t-91 23h-41l115 266h-11l-115 -266h-217v266h-10v-540h10zM260 0h-155q-19 0 -27.5 8.5t-8.5 27.5v648q0 19 8.5 27.5t27.5 8.5h155q19 0 27.5 -8.5t8.5 -27.5v-230h40l103 233q7 18 19 25.5t31 7.5h154
q17 0 23 -8.5t-1 -24.5l-102 -233q56 -3 89.5 -39.5t33.5 -96.5v-282q0 -19 -8.5 -27.5t-27.5 -8.5h-154q-19 0 -27.5 8.5t-8.5 27.5v195q0 16 -8 25t-24 9h-132v-229q0 -19 -8.5 -27.5t-27.5 -8.5z" />
    <glyph glyph-name="L" unicode="L" horiz-adv-x="695" 
d="M614 0h-509q-19 0 -27.5 8.5t-8.5 27.5v648q0 19 8.5 27.5t27.5 8.5h155q19 0 27.5 -8.5t8.5 -27.5v-495h137v162q0 19 8.5 27.5t27.5 8.5h145q19 0 27.5 -8.5t8.5 -27.5v-315q0 -19 -8.5 -27.5t-27.5 -8.5zM178 90h368v207h-10v-197h-348v530h-10v-540z" />
    <glyph glyph-name="M" unicode="M" horiz-adv-x="849" 
d="M421 385q-18 0 -26 8t-25 34l-122 186q-6 10 -14 13.5t-16 3.5h-17q-13 0 -19.5 -7.5t-6.5 -23.5v-509h10v509q0 8 3 14.5t13 6.5h15q7 0 12.5 -2t11.5 -12l122 -184q18 -27 27.5 -37t31.5 -10t31.5 10t27.5 37l122 184q6 10 11 12t12 2h15q10 0 13.5 -6.5t3.5 -14.5
v-509h10v509q0 16 -6.5 23.5t-20.5 7.5h-17q-8 0 -15.5 -3.5t-13.5 -13.5l-122 -186q-17 -26 -25 -34t-26 -8zM254 0h-149q-19 0 -27.5 8.5t-8.5 27.5v648q0 19 8.5 27.5t27.5 8.5h161q16 0 26.5 -7t19.5 -23l90 -163q5 -9 8.5 -13t9.5 -4h9q6 0 9.5 4t8.5 13l89 163
q9 16 19.5 23t26.5 7h162q19 0 27.5 -8.5t8.5 -27.5v-648q0 -19 -8.5 -27.5t-27.5 -8.5h-154q-19 0 -27.5 8.5t-8.5 27.5v352l-59 -109q-9 -17 -21.5 -24.5t-31.5 -7.5h-40q-19 0 -31.5 7.5t-21.5 24.5l-59 109v-352q0 -19 -8.5 -27.5t-27.5 -8.5z" />
    <glyph glyph-name="N" unicode="N" horiz-adv-x="753" 
d="M201 622q-5 5 -8 7t-7 2t-8 -3t-4 -9v-529h10v527q0 1 0.5 2t1.5 1t2.5 -1t2.5 -2l378 -424v-103h10v540h-10v-422zM255 0h-150q-19 0 -27.5 8.5t-8.5 27.5v648q0 19 8.5 27.5t27.5 8.5h104q19 0 32.5 -6t26.5 -21l194 -222v213q0 19 8.5 27.5t27.5 8.5h150
q19 0 27.5 -8.5t8.5 -27.5v-648q0 -19 -8.5 -27.5t-27.5 -8.5h-150q-19 0 -27.5 8.5t-8.5 27.5v123l-171 207v-330q0 -19 -8.5 -27.5t-27.5 -8.5z" />
    <glyph glyph-name="O" unicode="O" horiz-adv-x="737" 
d="M679 189q0 -46 -13.5 -83.5t-48 -64t-95 -41.5t-153.5 -15t-154 15t-95.5 41.5t-48 64t-13.5 83.5v341q0 46 13.5 83.5t48 64.5t95.5 42t154 15t153.5 -15t95 -42t48 -64.5t13.5 -83.5v-341zM570 212v295q0 60 -43 97.5t-160 37.5t-159 -37.5t-42 -97.5v-295
q0 -60 42 -97.5t159 -37.5t160 37.5t43 97.5zM176 212v295q0 56 40 90.5t151 34.5t152 -34.5t41 -90.5v-295q0 -56 -41 -90.5t-152 -34.5t-151 34.5t-40 90.5zM285 225q0 -20 15 -33.5t69 -13.5t69 13.5t15 33.5v269q0 19 -15 32.5t-69 13.5t-69 -13.5t-15 -32.5v-269z" />
    <glyph glyph-name="P" unicode="P" horiz-adv-x="682" 
d="M260 0h-155q-19 0 -27.5 8.5t-8.5 27.5v648q0 19 8.5 27.5t27.5 8.5h306q136 0 186 -54t50 -141v-128q0 -87 -50 -141t-186 -54h-115v-166q0 -19 -8.5 -27.5t-27.5 -8.5zM397 287q47 0 76.5 10t45.5 27.5t22 42t6 53.5v74q0 29 -6 54t-22 43t-45.5 28.5t-76.5 10.5h-216
v-540h10v197h206zM191 297v323h206q44 0 71.5 -9.5t42.5 -26.5t20.5 -40t5.5 -50v-74q0 -27 -5.5 -49.5t-20.5 -39t-42.5 -25.5t-71.5 -9h-206zM294 533v-151h90q29 0 38 15t9 34v53q0 19 -9 34t-38 15h-90z" />
    <glyph glyph-name="Q" unicode="Q" horiz-adv-x="737" 
d="M445 -90h-154q-19 0 -27.5 8.5t-8.5 27.5v55q-116 17 -156.5 69.5t-40.5 127.5v332q0 46 13.5 83.5t48 64.5t95.5 42t154 15t153.5 -15t95 -42t48 -64.5t13.5 -83.5v-332q0 -38 -9 -70.5t-31 -57.5t-60.5 -43t-97.5 -26v-55q0 -19 -8.5 -27.5t-27.5 -8.5zM362 0h10v77
q114 1 156 38t42 97v295q0 60 -43 97.5t-160 37.5t-159 -37.5t-42 -97.5v-295q0 -60 41 -97t155 -38v-77zM176 212v295q0 56 40 90.5t151 34.5t152 -34.5t41 -90.5v-295q0 -56 -41 -90.5t-152 -34.5t-151 34.5t-40 90.5zM285 220q0 -20 15 -33.5t69 -13.5t69 13.5t15 33.5
v273q0 19 -15 32.5t-69 13.5t-69 -13.5t-15 -32.5v-273z" />
    <glyph glyph-name="R" unicode="R" horiz-adv-x="743" 
d="M405 620q53 0 78.5 -29t25.5 -75v-70q0 -55 -21 -85t-83 -30h-218v289h218zM295 540v-128h75q26 0 35 13.5t9 33.5v34q0 20 -9 33.5t-35 13.5h-75zM187 90v232h283q57 0 84 -24.5t27 -73.5v-134h10v134q0 52 -30 79.5t-91 27.5h-11q36 11 48 40.5t12 75.5v69
q0 49 -28 81.5t-86 32.5h-228v-540h10zM259 0h-154q-19 0 -27.5 8.5t-8.5 27.5v648q0 19 8.5 27.5t27.5 8.5h333q112 0 154.5 -46.5t42.5 -120.5v-46q0 -42 -12.5 -71.5t-43.5 -42.5q54 -6 87.5 -44t33.5 -101v-212q0 -19 -8.5 -27.5t-27.5 -8.5h-155q-19 0 -27.5 8.5
t-8.5 27.5v153q0 22 -8.5 32.5t-29.5 10.5h-140v-196q0 -19 -8.5 -27.5t-27.5 -8.5z" />
    <glyph glyph-name="S" unicode="S" horiz-adv-x="650" 
d="M403 0h-316q-19 0 -27.5 8.5t-8.5 27.5v117q0 19 8.5 27.5t27.5 8.5h269q13 0 19.5 8.5t6.5 20.5q0 17 -6.5 25t-19.5 9l-150 21q-70 10 -112.5 46t-42.5 120v105q0 85 55 130.5t152 45.5h280q19 0 27.5 -8.5t8.5 -27.5v-119q0 -19 -8.5 -27.5t-27.5 -8.5h-233
q-13 0 -20 -8.5t-7 -21.5t7 -22t20 -10l149 -20q70 -10 113 -46t43 -120v-105q0 -85 -55.5 -130.5t-151.5 -45.5zM484 630h-222q-46 0 -74 -25.5t-28 -65.5v-82q0 -41 16.5 -56.5t42.5 -20.5l211 -43q28 -6 44.5 -23.5t16.5 -64.5v-58q0 -40 -27.5 -65.5t-73.5 -25.5h-249
v-10h249q51 0 81 28.5t30 72.5v58q0 52 -19.5 72t-49.5 26l-211 43q-23 4 -37 18t-14 49v82q0 35 25 58t67 23h222v10z" />
    <glyph glyph-name="T" unicode="T" horiz-adv-x="656" 
d="M409 0h-162q-19 0 -27.5 8.5t-8.5 27.5v491h-147q-19 0 -27.5 8.5t-8.5 27.5v121q0 19 8.5 27.5t27.5 8.5h528q19 0 27.5 -8.5t8.5 -27.5v-121q0 -19 -8.5 -27.5t-27.5 -8.5h-147v-491q0 -19 -8.5 -27.5t-27.5 -8.5zM323 90h10v530h205v10h-420v-10h205v-530z" />
    <glyph glyph-name="U" unicode="U" horiz-adv-x="746" 
d="M682 189q0 -46 -13.5 -83.5t-48 -64t-94.5 -41.5t-153 -15t-153 15t-94.5 41.5t-48 64t-13.5 83.5v495q0 19 8.5 27.5t27.5 8.5h157q19 0 27.5 -8.5t8.5 -27.5v-456q0 -20 15 -33.5t67 -13.5q53 0 68 13.5t15 33.5v456q0 19 8.5 27.5t27.5 8.5h152q19 0 27.5 -8.5
t8.5 -27.5v-495zM174 630v-417q0 -60 41.5 -97.5t158.5 -37.5t159 37.5t42 97.5v417h-10v-417q0 -56 -40 -90.5t-151 -34.5t-150.5 34.5t-39.5 90.5v417h-10z" />
    <glyph glyph-name="V" unicode="V" horiz-adv-x="730" 
d="M495 0h-260q-19 0 -31.5 7t-19.5 26l-98 245q-9 22 -15 38.5t-10 31.5t-5.5 31.5t-1.5 40.5v264q0 19 8.5 27.5t27.5 8.5h159q19 0 29 -8.5t10 -27.5v-276q0 -10 2 -20t6 -21l47 -140q3 -10 7 -13.5t12 -3.5h11q8 0 12 3.5t7 13.5l47 141q4 11 6 21t2 20v275
q0 19 8.5 27.5t27.5 8.5h157q19 0 27.5 -8.5t8.5 -27.5v-264q0 -24 -1.5 -40.5t-5.5 -31.5t-10 -31.5t-15 -38.5l-98 -245q-7 -19 -19.5 -26t-31.5 -7zM167 630v-216q0 -28 3.5 -51.5t12.5 -45.5l66 -160q12 -29 27 -48t46 -19h88q31 0 46 19t27 48l66 160q9 22 12.5 45.5
t3.5 51.5v216h-10v-216q0 -26 -4 -49.5t-12 -43.5l-66 -160q-10 -26 -22.5 -43.5t-40.5 -17.5h-88q-28 0 -40.5 17.5t-22.5 43.5l-66 160q-8 20 -12 43.5t-4 49.5v216h-10z" />
    <glyph glyph-name="W" unicode="W" horiz-adv-x="831" 
d="M439 345h-45q-16 0 -26 -9.5t-23 -37.5l-82 -184q-4 -10 -12 -12t-15 -2h-5q-8 0 -15 6.5t-8 14.5l-25 114q-4 19 -4.5 49t-0.5 52v294h-10v-295q0 -22 0.5 -52t4.5 -49l25 -113q4 -16 12.5 -23.5t20.5 -7.5h7q9 0 19 3.5t14 13.5l82 186q12 27 20.5 34.5t20.5 7.5h45
q12 0 20.5 -7.5t20.5 -34.5l82 -186q4 -10 14 -13.5t19 -3.5h7q12 0 20.5 7.5t12.5 23.5l25 113q4 19 4.5 49t0.5 52v295h-10v-294q0 -22 -0.5 -52t-4.5 -49l-25 -114q-1 -8 -8 -14.5t-15 -6.5h-5q-7 0 -15 2t-12 12l-82 184q-13 28 -23 37.5t-26 9.5zM586 720h149
q19 0 27.5 -8.5t8.5 -27.5v-388q0 -32 -2.5 -59.5t-15.5 -64.5l-50 -136q-5 -15 -14.5 -25.5t-25.5 -10.5h-133q-16 0 -29 7t-17 23l-46 163q-3 10 -7.5 13.5t-10.5 3.5h-9q-6 0 -10.5 -3.5t-7.5 -13.5l-47 -163q-4 -15 -15 -22.5t-27 -7.5h-132q-16 0 -27.5 10t-16.5 26
l-50 138q-13 37 -15.5 64.5t-2.5 59.5v386q0 19 8.5 27.5t27.5 8.5h154q19 0 27.5 -8.5t8.5 -27.5v-368l58 126q8 17 21 24t32 7h42q19 0 32 -7t21 -24l58 -126v368q0 19 8.5 27.5t27.5 8.5z" />
    <glyph glyph-name="X" unicode="X" horiz-adv-x="737" 
d="M177 135q0 21 2 40.5t12 32.5l118 162h120l117 -162q10 -14 12 -33t2 -40v-45h10v45q0 22 -2 41.5t-13 35.5l-118 162l118 164q11 16 13 35.5t2 41.5v15h-10v-15q0 -21 -2 -40t-12 -33l-116 -162h-119l-120 162q-10 14 -12 33t-2 40v15h-10v-15q0 -22 2 -41.5t13 -35.5
l120 -162l-120 -164q-12 -16 -13.5 -35.5t-1.5 -41.5v-45h10v45zM284 36q0 -19 -8.5 -27.5t-27.5 -8.5h-152q-19 0 -27.5 8.5t-8.5 27.5v107q0 46 8 69t30 54l81 109l-81 109q-23 31 -30.5 54t-7.5 69v77q0 19 8.5 27.5t27.5 8.5h154q19 0 27.5 -8.5t8.5 -27.5v-69
q0 -10 1 -21t8 -21l44 -63q5 -8 10.5 -12.5t13.5 -4.5h12q8 0 13 4.5t11 12.5l45 63q7 10 8 21t1 21v69q0 19 8.5 27.5t27.5 8.5h152q19 0 27.5 -8.5t8.5 -27.5v-77q0 -46 -8 -69t-30 -54l-81 -110l81 -108q23 -31 30.5 -54t7.5 -69v-107q0 -19 -8.5 -27.5t-27.5 -8.5h-152
q-19 0 -27.5 8.5t-8.5 27.5v99q0 10 -1 21t-8 21l-44 63q-6 9 -11 13t-13 4h-14q-8 0 -13 -4t-11 -13l-45 -63q-7 -10 -8 -21t-1 -21v-99z" />
    <glyph glyph-name="Y" unicode="Y" horiz-adv-x="705" 
d="M434 0h-162q-19 0 -27.5 8.5t-8.5 27.5v128l-153 205q-23 31 -30.5 54t-7.5 69v192q0 19 8.5 27.5t27.5 8.5h154q19 0 27.5 -8.5t8.5 -27.5v-164q0 -10 1 -21t8 -21l46 -72q5 -9 10.5 -13t13.5 -4h10q8 0 13.5 4t10.5 13l46 72q7 10 8 21t1 21v164q0 19 8.5 27.5
t27.5 8.5h149q19 0 27.5 -8.5t8.5 -27.5v-192q0 -46 -8 -69t-30 -54l-152 -206v-127q0 -19 -8.5 -27.5t-27.5 -8.5zM365 261q23 0 40.5 10t33.5 32l100 135q12 16 13.5 35.5t1.5 41.5v115h-10v-115q0 -21 -2 -40.5t-12 -32.5l-100 -135q-15 -19 -30.5 -27.5t-34.5 -8.5h-27
q-17 0 -34 8t-30 28l-97 135q-10 15 -12 33.5t-2 39.5v115h-10v-115q0 -22 2 -42t13 -35l97 -135q16 -22 33.5 -32t39.5 -10h10v-171h10v171h7z" />
    <glyph glyph-name="Z" unicode="Z" horiz-adv-x="660" 
d="M578 0h-496q-19 0 -27.5 8.5t-8.5 27.5v134q0 19 6 33.5t19 28.5l243 295h-214q-19 0 -27.5 8.5t-8.5 27.5v121q0 19 8.5 27.5t27.5 8.5h460q19 0 27.5 -8.5t8.5 -27.5v-149q0 -20 -6 -34.5t-19 -28.5l-232 -281h239q19 0 27.5 -8.5t8.5 -27.5v-119q0 -19 -8.5 -27.5
t-27.5 -8.5zM473 544q7 9 12 17.5t5 19.5v16q0 17 -7.5 25t-23.5 8h-305v-10h305q8 0 14.5 -4.5t6.5 -18.5v-14q0 -10 -3.5 -16t-10.5 -15l-293 -376q-7 -9 -12 -17.5t-5 -19.5v-16q0 -17 7.5 -25t23.5 -8h337v10h-337q-8 0 -14.5 4.5t-6.5 18.5v14q0 10 3.5 16t10.5 15z
" />
    <glyph glyph-name="bracketleft" unicode="[" horiz-adv-x="429" 
d="M276 607v-496h72q19 0 27.5 -8.5t8.5 -27.5v-119q0 -19 -8.5 -27.5t-27.5 -8.5h-264q-19 0 -27.5 8.5t-8.5 27.5v808q0 19 8.5 27.5t27.5 8.5h264q19 0 27.5 -8.5t8.5 -27.5v-121q0 -19 -8.5 -27.5t-27.5 -8.5h-72zM157 708v-697h137v10h-127v677h127v10h-137z" />
    <glyph glyph-name="backslash" unicode="\" horiz-adv-x="347" 
d="M224 774l120 -828q2 -19 -7.5 -27.5t-28.5 -8.5h-145q-19 0 -26.5 8.5t-9.5 27.5l-120 828q-2 19 7.5 27.5t28.5 8.5h145q19 0 26.5 -8.5t9.5 -27.5zM129 720h-10l104 -720h10z" />
    <glyph glyph-name="bracketright" unicode="]" horiz-adv-x="429" 
d="M153 111v496h-72q-19 0 -27.5 8.5t-8.5 27.5v121q0 19 8.5 27.5t27.5 8.5h264q19 0 27.5 -8.5t8.5 -27.5v-808q0 -19 -8.5 -27.5t-27.5 -8.5h-264q-19 0 -27.5 8.5t-8.5 27.5v119q0 19 8.5 27.5t27.5 8.5h72zM272 708h-137v-10h127v-677h-127v-10h137v697z" />
    <glyph glyph-name="asciicircum" unicode="^" horiz-adv-x="714" 
d="M43 208l108 381q18 62 49.5 95t105.5 33h73q74 0 105 -33t50 -95l108 -381q4 -19 -3.5 -27.5t-26.5 -8.5l-132 -1q-19 -1 -29 7.5t-12 27.5l-78 289q-2 10 -5.5 14t-12.5 3q-10 1 -13.5 -3t-5.5 -14l-78 -289q-2 -19 -12 -27.5t-29 -7.5l-132 1q-19 0 -26.5 8.5
t-3.5 27.5zM533 261l-87 303q-7 26 -19.5 44t-47.5 18h-73q-35 0 -47.5 -17.5t-19.5 -45.5l-86 -302h11l85 300q7 23 16.5 39t40.5 16h73q31 0 41 -16t16 -38l86 -301h11z" />
    <glyph glyph-name="underscore" unicode="_" horiz-adv-x="734" 
d="M106 -103q-19 0 -27.5 8.5t-8.5 27.5v134q0 19 8.5 27.5t27.5 8.5h522q19 0 27.5 -8.5t8.5 -27.5v-134q0 -19 -8.5 -27.5t-27.5 -8.5h-522zM574 5h-414v-10h414v10z" />
    <glyph glyph-name="grave" unicode="`" horiz-adv-x="500" 
d="M425 753l-349 43q-19 2 -27.5 9.5t-8.5 26.5v96q0 17 8.5 26t25.5 7l349 -43q19 -2 27.5 -9.5t8.5 -26.5v-96q0 -17 -8.5 -26t-25.5 -7zM130 867l239 -30v10l-239 30v-10z" />
    <glyph glyph-name="a" unicode="a" horiz-adv-x="730" 
d="M170 303q0 27 4.5 50t11.5 43l64 164q10 25 22 42.5t42 17.5h98q28 0 40 -17.5t23 -43.5l69 -163q7 -20 11.5 -43t4.5 -50v-31h-390v31zM330 510l-47 -152h157l-47 152q-4 9 -8.5 13t-10.5 4h-25q-6 0 -10.5 -4t-8.5 -13zM560 90h10v213q0 28 -4.5 51.5t-12.5 45.5
l-69 163q-12 29 -25.5 48t-46.5 19h-98q-34 0 -48 -19t-25 -47l-64 -164q-8 -22 -12.5 -45.5t-4.5 -51.5v-213h10v172h390v-172zM273 36q0 -19 -8.5 -27.5t-27.5 -8.5h-147q-19 0 -27.5 8.5t-8.5 27.5v264q0 30 9.5 69t29.5 91l87 227q6 17 18.5 25t32.5 8h269q19 0 31.5 -8
t18.5 -25l87 -227q20 -52 29.5 -91t9.5 -69v-264q0 -19 -8.5 -27.5t-27.5 -8.5h-151q-20 0 -29.5 8.5t-9.5 27.5v140h-177v-140z" />
    <glyph glyph-name="b" unicode="b" horiz-adv-x="725" 
d="M489 0h-384q-19 0 -27.5 8.5t-8.5 27.5v648q0 19 8.5 27.5t27.5 8.5h319q98 0 145 -37.5t47 -115.5v-48q0 -42 -14.5 -68.5t-44.5 -39.5q64 -6 95 -44t31 -111v-92q0 -84 -47.5 -124t-146.5 -40zM180 90h269q42 0 68 7.5t39.5 20.5t18.5 31.5t5 40.5v64q0 25 -4.5 46
t-18.5 36.5t-40 24t-67 8.5q43 11 53.5 36t10.5 55v64q0 22 -5 41t-19 33.5t-40 23t-67 8.5h-203v-540zM383 620q75 0 98 -28t23 -68v-64q0 -18 -3.5 -34.5t-16 -29t-36.5 -20t-65 -7.5h-193v251h193zM294 550v-108h85q19 0 28.5 10t9.5 30v28q0 20 -9.5 30t-28.5 10h-85z
M450 359q75 0 97.5 -30t22.5 -75v-64q0 -41 -23 -65.5t-98 -24.5h-259v259h260zM294 288v-118h130q19 0 28.5 10t9.5 30v39q0 20 -9.5 29.5t-28.5 9.5h-130z" />
    <glyph glyph-name="c" unicode="c" horiz-adv-x="628" 
d="M548 0h-244q-125 0 -185.5 50t-60.5 154v311q0 104 60.5 154.5t185.5 50.5h244q19 0 27.5 -8.5t8.5 -27.5v-121q0 -19 -8.5 -27.5t-27.5 -8.5h-201q-31 0 -46 -12.5t-15 -37.5v-238q0 -25 15 -36.5t46 -11.5h201q19 0 27.5 -8.5t8.5 -27.5v-119q0 -19 -8.5 -27.5
t-27.5 -8.5zM493 100h-167q-90 0 -120 27t-30 92v280q0 66 31 93.5t119 27.5h167v10h-167q-96 0 -128 -30t-32 -101v-280q0 -69 31.5 -99t128.5 -30h167v10z" />
    <glyph glyph-name="d" unicode="d" horiz-adv-x="746" 
d="M442 0h-337q-19 0 -27.5 8.5t-8.5 27.5v648q0 19 8.5 27.5t27.5 8.5h337q125 0 185.5 -50t60.5 -154v-312q0 -104 -60.5 -154t-185.5 -50zM178 90h242q51 0 83 10.5t49 28.5t22.5 43t5.5 54v265q0 29 -6 54.5t-23 44t-48.5 29.5t-82.5 11h-242v-540zM420 620
q47 0 76.5 -10t45.5 -27t22 -41t6 -51v-265q0 -27 -5.5 -50.5t-21.5 -40t-45.5 -26t-77.5 -9.5h-232v520h232zM296 529v-340h119q24 0 35.5 12t11.5 37v243q0 25 -11.5 36.5t-35.5 11.5h-119z" />
    <glyph glyph-name="e" unicode="e" horiz-adv-x="654" 
d="M569 0h-464q-19 0 -27.5 8.5t-8.5 27.5v648q0 19 8.5 27.5t27.5 8.5h464q19 0 27.5 -8.5t8.5 -27.5v-117q0 -19 -8.5 -27.5t-27.5 -8.5h-276v-77h195q19 0 27.5 -8.5t8.5 -27.5v-107q0 -19 -8.5 -27.5t-27.5 -8.5h-195v-86h276q19 0 27.5 -8.5t8.5 -27.5v-117
q0 -19 -8.5 -27.5t-27.5 -8.5zM515 100h-327v259h246v10h-246v251h327v10h-337v-540h337v10z" />
    <glyph glyph-name="f" unicode="f" horiz-adv-x="618" 
d="M260 0h-155q-19 0 -27.5 8.5t-8.5 27.5v648q0 19 8.5 27.5t27.5 8.5h446q19 0 27.5 -8.5t8.5 -27.5v-119q0 -19 -8.5 -27.5t-27.5 -8.5h-255v-104h174q19 0 27.5 -8.5t8.5 -27.5v-120q0 -19 -8.5 -27.5t-27.5 -8.5h-174v-197q0 -19 -8.5 -27.5t-27.5 -8.5zM178 90h10v234
h228v10h-228v286h309v10h-319v-540z" />
    <glyph glyph-name="g" unicode="g" horiz-adv-x="708" 
d="M619 0h-315q-125 0 -185.5 50t-60.5 154v312q0 104 60.5 154t185.5 50h250q19 0 27.5 -8.5t8.5 -27.5v-121q0 -19 -8.5 -27.5t-27.5 -8.5h-208q-31 0 -46 -12.5t-15 -37.5v-239q0 -25 11.5 -37t34.5 -12h97v156q0 19 8.5 27.5t27.5 8.5h155q19 0 27.5 -8.5t8.5 -27.5
v-309q0 -19 -8.5 -27.5t-27.5 -8.5zM347 90h199v201h-10v-191h-189q-101 0 -135.5 27t-34.5 92v280q0 66 31 93.5t119 27.5h173v10h-173q-96 0 -128 -30t-32 -101v-280q0 -35 7.5 -59.5t27.5 -40t55 -22.5t90 -7z" />
    <glyph glyph-name="h" unicode="h" horiz-adv-x="759" 
d="M177 90h10v265h384v-265h10v540h-10v-265h-384v265h-10v-540zM260 0h-155q-19 0 -27.5 8.5t-8.5 27.5v648q0 19 8.5 27.5t27.5 8.5h155q19 0 27.5 -8.5t8.5 -27.5v-217h167v217q0 19 8.5 27.5t27.5 8.5h155q19 0 27.5 -8.5t8.5 -27.5v-648q0 -19 -8.5 -27.5t-27.5 -8.5
h-155q-19 0 -27.5 8.5t-8.5 27.5v222h-167v-222q0 -19 -8.5 -27.5t-27.5 -8.5z" />
    <glyph glyph-name="i" unicode="i" horiz-adv-x="605" 
d="M89 0q-19 0 -27.5 8.5t-8.5 27.5v119q0 19 8.5 27.5t27.5 8.5h99v336h-99q-19 0 -27.5 8.5t-8.5 27.5v121q0 19 8.5 27.5t27.5 8.5h426q19 0 27.5 -8.5t8.5 -27.5v-121q0 -19 -8.5 -27.5t-27.5 -8.5h-97v-336h97q19 0 27.5 -8.5t8.5 -27.5v-119q0 -19 -8.5 -27.5
t-27.5 -8.5h-426zM461 90v10h-153v520h153v10h-318v-10h155v-520h-155v-10h318z" />
    <glyph glyph-name="j" unicode="j" horiz-adv-x="688" 
d="M624 189q0 -46 -13 -83.5t-45.5 -64t-89.5 -41.5t-145 -15q-87 0 -143.5 15t-89 41.5t-45 64t-12.5 83.5v162q0 19 8.5 27.5t27.5 8.5h145q19 0 27.5 -8.5t8.5 -27.5v-122q0 -20 12.5 -33.5t58.5 -13.5q43 0 54.5 13.5t11.5 33.5v455q0 19 8.5 27.5t27.5 8.5h157
q19 0 27.5 -8.5t8.5 -27.5v-495zM504 630v-417q0 -56 -36 -90.5t-135 -34.5q-103 0 -140.5 34t-37.5 91v79h-10v-79q0 -30 8.5 -55t29.5 -42.5t57.5 -27.5t92.5 -10q106 0 143.5 38t37.5 97v417h-10z" />
    <glyph glyph-name="k" unicode="k" horiz-adv-x="746" 
d="M188 90v264h269q55 0 83 -20t28 -68v-176h10v176q0 52 -30 75t-91 23h-41l115 266h-11l-115 -266h-217v266h-10v-540h10zM260 0h-155q-19 0 -27.5 8.5t-8.5 27.5v648q0 19 8.5 27.5t27.5 8.5h155q19 0 27.5 -8.5t8.5 -27.5v-230h40l103 233q7 18 19 25.5t31 7.5h154
q17 0 23 -8.5t-1 -24.5l-102 -233q56 -3 89.5 -39.5t33.5 -96.5v-282q0 -19 -8.5 -27.5t-27.5 -8.5h-154q-19 0 -27.5 8.5t-8.5 27.5v195q0 16 -8 25t-24 9h-132v-229q0 -19 -8.5 -27.5t-27.5 -8.5z" />
    <glyph glyph-name="l" unicode="l" horiz-adv-x="695" 
d="M614 0h-509q-19 0 -27.5 8.5t-8.5 27.5v648q0 19 8.5 27.5t27.5 8.5h155q19 0 27.5 -8.5t8.5 -27.5v-495h137v162q0 19 8.5 27.5t27.5 8.5h145q19 0 27.5 -8.5t8.5 -27.5v-315q0 -19 -8.5 -27.5t-27.5 -8.5zM178 90h368v207h-10v-197h-348v530h-10v-540z" />
    <glyph glyph-name="m" unicode="m" horiz-adv-x="849" 
d="M421 385q-18 0 -26 8t-25 34l-122 186q-6 10 -14 13.5t-16 3.5h-17q-13 0 -19.5 -7.5t-6.5 -23.5v-509h10v509q0 8 3 14.5t13 6.5h15q7 0 12.5 -2t11.5 -12l122 -184q18 -27 27.5 -37t31.5 -10t31.5 10t27.5 37l122 184q6 10 11 12t12 2h15q10 0 13.5 -6.5t3.5 -14.5
v-509h10v509q0 16 -6.5 23.5t-20.5 7.5h-17q-8 0 -15.5 -3.5t-13.5 -13.5l-122 -186q-17 -26 -25 -34t-26 -8zM254 0h-149q-19 0 -27.5 8.5t-8.5 27.5v648q0 19 8.5 27.5t27.5 8.5h161q16 0 26.5 -7t19.5 -23l90 -163q5 -9 8.5 -13t9.5 -4h9q6 0 9.5 4t8.5 13l89 163
q9 16 19.5 23t26.5 7h162q19 0 27.5 -8.5t8.5 -27.5v-648q0 -19 -8.5 -27.5t-27.5 -8.5h-154q-19 0 -27.5 8.5t-8.5 27.5v352l-59 -109q-9 -17 -21.5 -24.5t-31.5 -7.5h-40q-19 0 -31.5 7.5t-21.5 24.5l-59 109v-352q0 -19 -8.5 -27.5t-27.5 -8.5z" />
    <glyph glyph-name="n" unicode="n" horiz-adv-x="753" 
d="M201 622q-5 5 -8 7t-7 2t-8 -3t-4 -9v-529h10v527q0 1 0.5 2t1.5 1t2.5 -1t2.5 -2l378 -424v-103h10v540h-10v-422zM255 0h-150q-19 0 -27.5 8.5t-8.5 27.5v648q0 19 8.5 27.5t27.5 8.5h104q19 0 32.5 -6t26.5 -21l194 -222v213q0 19 8.5 27.5t27.5 8.5h150
q19 0 27.5 -8.5t8.5 -27.5v-648q0 -19 -8.5 -27.5t-27.5 -8.5h-150q-19 0 -27.5 8.5t-8.5 27.5v123l-171 207v-330q0 -19 -8.5 -27.5t-27.5 -8.5z" />
    <glyph glyph-name="o" unicode="o" horiz-adv-x="737" 
d="M679 189q0 -46 -13.5 -83.5t-48 -64t-95 -41.5t-153.5 -15t-154 15t-95.5 41.5t-48 64t-13.5 83.5v341q0 46 13.5 83.5t48 64.5t95.5 42t154 15t153.5 -15t95 -42t48 -64.5t13.5 -83.5v-341zM570 212v295q0 60 -43 97.5t-160 37.5t-159 -37.5t-42 -97.5v-295
q0 -60 42 -97.5t159 -37.5t160 37.5t43 97.5zM176 212v295q0 56 40 90.5t151 34.5t152 -34.5t41 -90.5v-295q0 -56 -41 -90.5t-152 -34.5t-151 34.5t-40 90.5zM285 225q0 -20 15 -33.5t69 -13.5t69 13.5t15 33.5v269q0 19 -15 32.5t-69 13.5t-69 -13.5t-15 -32.5v-269z" />
    <glyph glyph-name="p" unicode="p" horiz-adv-x="682" 
d="M260 0h-155q-19 0 -27.5 8.5t-8.5 27.5v648q0 19 8.5 27.5t27.5 8.5h306q136 0 186 -54t50 -141v-128q0 -87 -50 -141t-186 -54h-115v-166q0 -19 -8.5 -27.5t-27.5 -8.5zM397 287q47 0 76.5 10t45.5 27.5t22 42t6 53.5v74q0 29 -6 54t-22 43t-45.5 28.5t-76.5 10.5h-216
v-540h10v197h206zM191 297v323h206q44 0 71.5 -9.5t42.5 -26.5t20.5 -40t5.5 -50v-74q0 -27 -5.5 -49.5t-20.5 -39t-42.5 -25.5t-71.5 -9h-206zM294 533v-151h90q29 0 38 15t9 34v53q0 19 -9 34t-38 15h-90z" />
    <glyph glyph-name="q" unicode="q" horiz-adv-x="737" 
d="M445 -90h-154q-19 0 -27.5 8.5t-8.5 27.5v55q-116 17 -156.5 69.5t-40.5 127.5v332q0 46 13.5 83.5t48 64.5t95.5 42t154 15t153.5 -15t95 -42t48 -64.5t13.5 -83.5v-332q0 -38 -9 -70.5t-31 -57.5t-60.5 -43t-97.5 -26v-55q0 -19 -8.5 -27.5t-27.5 -8.5zM362 0h10v77
q114 1 156 38t42 97v295q0 60 -43 97.5t-160 37.5t-159 -37.5t-42 -97.5v-295q0 -60 41 -97t155 -38v-77zM176 212v295q0 56 40 90.5t151 34.5t152 -34.5t41 -90.5v-295q0 -56 -41 -90.5t-152 -34.5t-151 34.5t-40 90.5zM285 220q0 -20 15 -33.5t69 -13.5t69 13.5t15 33.5
v273q0 19 -15 32.5t-69 13.5t-69 -13.5t-15 -32.5v-273z" />
    <glyph glyph-name="r" unicode="r" horiz-adv-x="743" 
d="M405 620q53 0 78.5 -29t25.5 -75v-70q0 -55 -21 -85t-83 -30h-218v289h218zM295 540v-128h75q26 0 35 13.5t9 33.5v34q0 20 -9 33.5t-35 13.5h-75zM187 90v232h283q57 0 84 -24.5t27 -73.5v-134h10v134q0 52 -30 79.5t-91 27.5h-11q36 11 48 40.5t12 75.5v69
q0 49 -28 81.5t-86 32.5h-228v-540h10zM259 0h-154q-19 0 -27.5 8.5t-8.5 27.5v648q0 19 8.5 27.5t27.5 8.5h333q112 0 154.5 -46.5t42.5 -120.5v-46q0 -42 -12.5 -71.5t-43.5 -42.5q54 -6 87.5 -44t33.5 -101v-212q0 -19 -8.5 -27.5t-27.5 -8.5h-155q-19 0 -27.5 8.5
t-8.5 27.5v153q0 22 -8.5 32.5t-29.5 10.5h-140v-196q0 -19 -8.5 -27.5t-27.5 -8.5z" />
    <glyph glyph-name="s" unicode="s" horiz-adv-x="650" 
d="M403 0h-316q-19 0 -27.5 8.5t-8.5 27.5v117q0 19 8.5 27.5t27.5 8.5h269q13 0 19.5 8.5t6.5 20.5q0 17 -6.5 25t-19.5 9l-150 21q-70 10 -112.5 46t-42.5 120v105q0 85 55 130.5t152 45.5h280q19 0 27.5 -8.5t8.5 -27.5v-119q0 -19 -8.5 -27.5t-27.5 -8.5h-233
q-13 0 -20 -8.5t-7 -21.5t7 -22t20 -10l149 -20q70 -10 113 -46t43 -120v-105q0 -85 -55.5 -130.5t-151.5 -45.5zM484 630h-222q-46 0 -74 -25.5t-28 -65.5v-82q0 -41 16.5 -56.5t42.5 -20.5l211 -43q28 -6 44.5 -23.5t16.5 -64.5v-58q0 -40 -27.5 -65.5t-73.5 -25.5h-249
v-10h249q51 0 81 28.5t30 72.5v58q0 52 -19.5 72t-49.5 26l-211 43q-23 4 -37 18t-14 49v82q0 35 25 58t67 23h222v10z" />
    <glyph glyph-name="t" unicode="t" horiz-adv-x="656" 
d="M409 0h-162q-19 0 -27.5 8.5t-8.5 27.5v491h-147q-19 0 -27.5 8.5t-8.5 27.5v121q0 19 8.5 27.5t27.5 8.5h528q19 0 27.5 -8.5t8.5 -27.5v-121q0 -19 -8.5 -27.5t-27.5 -8.5h-147v-491q0 -19 -8.5 -27.5t-27.5 -8.5zM323 90h10v530h205v10h-420v-10h205v-530z" />
    <glyph glyph-name="u" unicode="u" horiz-adv-x="746" 
d="M682 189q0 -46 -13.5 -83.5t-48 -64t-94.5 -41.5t-153 -15t-153 15t-94.5 41.5t-48 64t-13.5 83.5v495q0 19 8.5 27.5t27.5 8.5h157q19 0 27.5 -8.5t8.5 -27.5v-456q0 -20 15 -33.5t67 -13.5q53 0 68 13.5t15 33.5v456q0 19 8.5 27.5t27.5 8.5h152q19 0 27.5 -8.5
t8.5 -27.5v-495zM174 630v-417q0 -60 41.5 -97.5t158.5 -37.5t159 37.5t42 97.5v417h-10v-417q0 -56 -40 -90.5t-151 -34.5t-150.5 34.5t-39.5 90.5v417h-10z" />
    <glyph glyph-name="v" unicode="v" horiz-adv-x="730" 
d="M495 0h-260q-19 0 -31.5 7t-19.5 26l-98 245q-9 22 -15 38.5t-10 31.5t-5.5 31.5t-1.5 40.5v264q0 19 8.5 27.5t27.5 8.5h159q19 0 29 -8.5t10 -27.5v-276q0 -10 2 -20t6 -21l47 -140q3 -10 7 -13.5t12 -3.5h11q8 0 12 3.5t7 13.5l47 141q4 11 6 21t2 20v275
q0 19 8.5 27.5t27.5 8.5h157q19 0 27.5 -8.5t8.5 -27.5v-264q0 -24 -1.5 -40.5t-5.5 -31.5t-10 -31.5t-15 -38.5l-98 -245q-7 -19 -19.5 -26t-31.5 -7zM167 630v-216q0 -28 3.5 -51.5t12.5 -45.5l66 -160q12 -29 27 -48t46 -19h88q31 0 46 19t27 48l66 160q9 22 12.5 45.5
t3.5 51.5v216h-10v-216q0 -26 -4 -49.5t-12 -43.5l-66 -160q-10 -26 -22.5 -43.5t-40.5 -17.5h-88q-28 0 -40.5 17.5t-22.5 43.5l-66 160q-8 20 -12 43.5t-4 49.5v216h-10z" />
    <glyph glyph-name="w" unicode="w" horiz-adv-x="831" 
d="M439 345h-45q-16 0 -26 -9.5t-23 -37.5l-82 -184q-4 -10 -12 -12t-15 -2h-5q-8 0 -15 6.5t-8 14.5l-25 114q-4 19 -4.5 49t-0.5 52v294h-10v-295q0 -22 0.5 -52t4.5 -49l25 -113q4 -16 12.5 -23.5t20.5 -7.5h7q9 0 19 3.5t14 13.5l82 186q12 27 20.5 34.5t20.5 7.5h45
q12 0 20.5 -7.5t20.5 -34.5l82 -186q4 -10 14 -13.5t19 -3.5h7q12 0 20.5 7.5t12.5 23.5l25 113q4 19 4.5 49t0.5 52v295h-10v-294q0 -22 -0.5 -52t-4.5 -49l-25 -114q-1 -8 -8 -14.5t-15 -6.5h-5q-7 0 -15 2t-12 12l-82 184q-13 28 -23 37.5t-26 9.5zM586 720h149
q19 0 27.5 -8.5t8.5 -27.5v-388q0 -32 -2.5 -59.5t-15.5 -64.5l-50 -136q-5 -15 -14.5 -25.5t-25.5 -10.5h-133q-16 0 -29 7t-17 23l-46 163q-3 10 -7.5 13.5t-10.5 3.5h-9q-6 0 -10.5 -3.5t-7.5 -13.5l-47 -163q-4 -15 -15 -22.5t-27 -7.5h-132q-16 0 -27.5 10t-16.5 26
l-50 138q-13 37 -15.5 64.5t-2.5 59.5v386q0 19 8.5 27.5t27.5 8.5h154q19 0 27.5 -8.5t8.5 -27.5v-368l58 126q8 17 21 24t32 7h42q19 0 32 -7t21 -24l58 -126v368q0 19 8.5 27.5t27.5 8.5z" />
    <glyph glyph-name="x" unicode="x" horiz-adv-x="737" 
d="M177 135q0 21 2 40.5t12 32.5l118 162h120l117 -162q10 -14 12 -33t2 -40v-45h10v45q0 22 -2 41.5t-13 35.5l-118 162l118 164q11 16 13 35.5t2 41.5v15h-10v-15q0 -21 -2 -40t-12 -33l-116 -162h-119l-120 162q-10 14 -12 33t-2 40v15h-10v-15q0 -22 2 -41.5t13 -35.5
l120 -162l-120 -164q-12 -16 -13.5 -35.5t-1.5 -41.5v-45h10v45zM284 36q0 -19 -8.5 -27.5t-27.5 -8.5h-152q-19 0 -27.5 8.5t-8.5 27.5v107q0 46 8 69t30 54l81 109l-81 109q-23 31 -30.5 54t-7.5 69v77q0 19 8.5 27.5t27.5 8.5h154q19 0 27.5 -8.5t8.5 -27.5v-69
q0 -10 1 -21t8 -21l44 -63q5 -8 10.5 -12.5t13.5 -4.5h12q8 0 13 4.5t11 12.5l45 63q7 10 8 21t1 21v69q0 19 8.5 27.5t27.5 8.5h152q19 0 27.5 -8.5t8.5 -27.5v-77q0 -46 -8 -69t-30 -54l-81 -110l81 -108q23 -31 30.5 -54t7.5 -69v-107q0 -19 -8.5 -27.5t-27.5 -8.5h-152
q-19 0 -27.5 8.5t-8.5 27.5v99q0 10 -1 21t-8 21l-44 63q-6 9 -11 13t-13 4h-14q-8 0 -13 -4t-11 -13l-45 -63q-7 -10 -8 -21t-1 -21v-99z" />
    <glyph glyph-name="y" unicode="y" horiz-adv-x="705" 
d="M434 0h-162q-19 0 -27.5 8.5t-8.5 27.5v128l-153 205q-23 31 -30.5 54t-7.5 69v192q0 19 8.5 27.5t27.5 8.5h154q19 0 27.5 -8.5t8.5 -27.5v-164q0 -10 1 -21t8 -21l46 -72q5 -9 10.5 -13t13.5 -4h10q8 0 13.5 4t10.5 13l46 72q7 10 8 21t1 21v164q0 19 8.5 27.5
t27.5 8.5h149q19 0 27.5 -8.5t8.5 -27.5v-192q0 -46 -8 -69t-30 -54l-152 -206v-127q0 -19 -8.5 -27.5t-27.5 -8.5zM365 261q23 0 40.5 10t33.5 32l100 135q12 16 13.5 35.5t1.5 41.5v115h-10v-115q0 -21 -2 -40.5t-12 -32.5l-100 -135q-15 -19 -30.5 -27.5t-34.5 -8.5h-27
q-17 0 -34 8t-30 28l-97 135q-10 15 -12 33.5t-2 39.5v115h-10v-115q0 -22 2 -42t13 -35l97 -135q16 -22 33.5 -32t39.5 -10h10v-171h10v171h7z" />
    <glyph glyph-name="z" unicode="z" horiz-adv-x="660" 
d="M578 0h-496q-19 0 -27.5 8.5t-8.5 27.5v134q0 19 6 33.5t19 28.5l243 295h-214q-19 0 -27.5 8.5t-8.5 27.5v121q0 19 8.5 27.5t27.5 8.5h460q19 0 27.5 -8.5t8.5 -27.5v-149q0 -20 -6 -34.5t-19 -28.5l-232 -281h239q19 0 27.5 -8.5t8.5 -27.5v-119q0 -19 -8.5 -27.5
t-27.5 -8.5zM473 544q7 9 12 17.5t5 19.5v16q0 17 -7.5 25t-23.5 8h-305v-10h305q8 0 14.5 -4.5t6.5 -18.5v-14q0 -10 -3.5 -16t-10.5 -15l-293 -376q-7 -9 -12 -17.5t-5 -19.5v-16q0 -17 7.5 -25t23.5 -8h337v10h-337q-8 0 -14.5 4.5t-6.5 18.5v14q0 10 3.5 16t10.5 15z
" />
    <glyph glyph-name="braceleft" unicode="{" horiz-adv-x="455" 
d="M312 161q0 -26 8.5 -38t32.5 -12h21q19 0 27.5 -8.5t8.5 -27.5v-119q0 -19 -8.5 -27.5t-27.5 -8.5h-44q-141 0 -193.5 57t-52.5 147v130q-32 10 -48 30.5t-16 56.5v35q0 36 16 56t48 30v133q0 91 52.5 148t193.5 57h44q19 0 27.5 -8.5t8.5 -27.5v-121q0 -19 -8.5 -27.5
t-27.5 -8.5h-21q-24 0 -32.5 -12t-8.5 -38v-117q0 -30 -9.5 -44t-35.5 -18l-33 -6q-7 -1 -10 -4t-3 -10t3 -10t10 -4l33 -6q26 -4 35.5 -18t9.5 -44v-115zM320 11v10q-59 0 -88 25.5t-29 77.5v159q-34 4 -49 18.5t-15 42.5v28q0 28 14.5 42.5t49.5 18.5v162q0 59 28.5 81
t88.5 22v10q-66 0 -96.5 -25t-30.5 -88v-154q-30 -4 -47 -20.5t-17 -48.5v-28q0 -31 17 -48t47 -21v-151q0 -57 31 -85t96 -28z" />
    <glyph glyph-name="bar" unicode="|" horiz-adv-x="347" 
d="M282 774v-828q0 -19 -8.5 -27.5t-27.5 -8.5h-145q-19 0 -27.5 8.5t-8.5 27.5v828q0 19 8.5 27.5t27.5 8.5h145q19 0 27.5 -8.5t8.5 -27.5zM169 720v-720h10v720h-10z" />
    <glyph glyph-name="braceright" unicode="}" horiz-adv-x="455" 
d="M143 161v115q0 30 9.5 44t35.5 18l33 6q7 1 10 4t3 10t-3 10t-10 4l-33 6q-26 4 -35.5 18t-9.5 44v117q0 26 -8.5 38t-32.5 12h-21q-19 0 -27.5 8.5t-8.5 27.5v121q0 19 8.5 27.5t27.5 8.5h44q141 0 193.5 -57t52.5 -148v-133q32 -10 48 -30t16 -56v-35q0 -36 -16 -56.5
t-48 -30.5v-130q0 -90 -52.5 -147t-193.5 -57h-44q-19 0 -27.5 8.5t-8.5 27.5v119q0 19 8.5 27.5t27.5 8.5h21q24 0 32.5 12t8.5 38zM262 124v151q30 4 47 21t17 48v28q0 32 -17 48.5t-47 20.5v154q0 63 -30.5 88t-96.5 25v-10q60 0 88.5 -22t28.5 -81v-162
q35 -4 49.5 -18.5t14.5 -42.5v-28q0 -28 -15 -42.5t-49 -18.5v-159q0 -52 -29 -77.5t-88 -25.5v-10q65 0 96 28t31 85z" />
    <glyph glyph-name="asciitilde" unicode="~" horiz-adv-x="734" 
d="M367 277l-40 5q-40 6 -67 8t-48.5 0t-42 -7t-48.5 -14q-25 -7 -38 0.5t-13 24.5v106q0 26 11 37t26 16q38 13 64 19t50 6.5t51.5 -3.5t70.5 -10l24 -3l31 -4q47 -7 74.5 -9.5t48 -1t40.5 7t51 14.5q26 7 39 -1t13 -30v-99q0 -26 -12 -37t-25 -16q-38 -13 -64.5 -19
t-50.5 -6.5t-52 3.5l-70 10zM160 368q18 5 34.5 7.5t35 3t41.5 -1.5t55 -7l40 -5l23 -3q34 -5 58.5 -8.5t45 -5t39.5 0.5t42 8v11q-23 -6 -42 -8.5t-39 -1.5t-44 5t-58 9l-23 3l-40 5q-65 10 -98.5 9.5t-69.5 -10.5v-11z" />
    <glyph glyph-name="uni00A0" unicode="&#xa0;" horiz-adv-x="225" 
 />
    <glyph glyph-name="exclamdown" unicode="&#xa1;" horiz-adv-x="423" 
d="M121 720h184q19 0 27.5 -8.5t8.5 -27.5v-131q0 -19 -8.5 -27.5t-27.5 -8.5h-184q-19 0 -27.5 8.5t-8.5 27.5v131q0 19 8.5 27.5t27.5 8.5zM208 640v-43h10v43h-10zM135 458h155q19 0 28 -8.5t10 -27.5l14 -386q1 -19 -7 -27.5t-27 -8.5h-191q-19 0 -27 8.5t-7 27.5
l15 386q1 19 9.5 27.5t27.5 8.5zM218 90v278h-10v-278h10z" />
    <glyph glyph-name="cent" unicode="&#xa2;" horiz-adv-x="628" 
d="M471 -14q0 -19 -8.5 -27.5t-27.5 -8.5h-145q-19 0 -27.5 8.5t-8.5 27.5v56q-111 10 -153.5 65t-42.5 137v231q0 82 42.5 137.5t153.5 65.5v56q0 19 8.5 27.5t27.5 8.5h145q19 0 27.5 -8.5t8.5 -27.5v-54h77q19 0 27.5 -8.5t8.5 -27.5v-121q0 -19 -8.5 -27.5t-27.5 -8.5
h-201q-39 0 -50 -15.5t-11 -34.5v-158q0 -21 11 -34.5t50 -13.5h201q19 0 27.5 -8.5t8.5 -27.5v-119q0 -19 -8.5 -27.5t-27.5 -8.5h-77v-54zM358 131v-91h10v91h125v10h-167q-90 0 -120 27t-30 92v197q0 66 31 93.5t119 27.5h167v10h-125v92h-10v-92h-32q-96 0 -128 -30
t-32 -101v-197q0 -69 31.5 -99t128.5 -30h32z" />
    <glyph glyph-name="sterling" unicode="&#xa3;" horiz-adv-x="695" 
d="M650 36q0 -19 -8.5 -27.5t-27.5 -8.5h-509q-19 0 -27.5 8.5t-8.5 27.5v229h-13q-19 0 -27.5 8.5t-8.5 27.5v107q0 19 8.5 27.5t27.5 8.5h13v72q0 90 52.5 147t193.5 57h190q19 0 27.5 -8.5t8.5 -27.5v-121q0 -19 -8.5 -27.5t-27.5 -8.5h-148q-39 0 -50 -15.5t-11 -34.5
v-33h48q19 0 27.5 -8.5t8.5 -27.5v-107q0 -19 -8.5 -27.5t-27.5 -8.5h-48v-76h137v102q0 19 8.5 27.5t27.5 8.5h145q19 0 27.5 -8.5t8.5 -27.5v-255zM546 237h-10v-137h-348v249h102v10h-102v157q0 60 34.5 82t92.5 22h136v10h-136q-64 0 -100.5 -24.5t-36.5 -89.5v-157h-68
v-10h68v-259h368v147z" />
    <glyph glyph-name="currency" unicode="&#xa4;" horiz-adv-x="821" 
d="M658 110l8 6l-95 97q10 16 13.5 35.5t3.5 41.5v142q0 23 -4 43.5t-14 36.5l94 96l-8 6l-92 -94q-17 23 -53.5 36t-97.5 13t-97.5 -13t-54.5 -35l-91 93l-8 -6l93 -95q-10 -16 -14 -37t-4 -44v-142q0 -22 3.5 -42t13.5 -36l-94 -96l8 -6l92 94q17 -23 53.5 -36.5
t99.5 -13.5t99 13.5t54 36.5zM413 164q-51 0 -83.5 9t-50.5 25.5t-25 40t-7 51.5v142q0 29 7 52.5t25 40t50.5 25.5t83.5 9q50 0 82.5 -9t50.5 -25.5t25 -40t7 -52.5v-142q0 -28 -7 -51.5t-25 -40t-50.5 -25.5t-82.5 -9zM333 289q0 -19 14.5 -32t65.5 -13t65.5 13t14.5 32
v141q0 19 -14.5 31.5t-65.5 12.5t-65.5 -12.5t-14.5 -31.5v-141zM184 8q-12 -13 -23.5 -13t-25.5 13l-76 76q-13 13 -13 25t13 24l94 94q-1 7 -1.5 16t-0.5 17v199q0 9 0.5 17.5t1.5 16.5l-94 94q-13 12 -13 23.5t13 24.5l76 76q13 13 25 13t24 -13l85 -85q27 9 63 13.5
t81 4.5q44 0 79 -4.5t62 -12.5l84 84q12 13 23.5 13.5t24.5 -13.5l76 -76q14 -13 13.5 -24.5t-13.5 -23.5l-90 -90q1 -9 1.5 -18.5t0.5 -19.5v-199q0 -10 -0.5 -19t-1.5 -18l90 -90q13 -12 13.5 -23.5t-13.5 -25.5l-76 -76q-13 -13 -24.5 -13t-23.5 13l-84 84
q-27 -7 -62.5 -11.5t-78.5 -4.5q-45 0 -80.5 4.5t-63.5 12.5z" />
    <glyph glyph-name="yen" unicode="&#xa5;" horiz-adv-x="703" 
d="M464 36q0 -19 -8.5 -27.5t-27.5 -8.5h-152q-19 0 -27.5 8.5t-8.5 27.5v94h-109q-19 0 -27.5 8.5t-8.5 27.5v97q0 19 8.5 27.5t27.5 8.5h53l-111 143q-22 28 -25.5 60t-3.5 70v112q0 19 8.5 27.5t27.5 8.5h155q19 0 27.5 -8.5t8.5 -27.5v-144q0 -10 1.5 -20t6.5 -21
l46 -65q6 -8 12 -12.5t14 -4.5h12q8 0 14 4t12 13l43 64q7 10 7.5 20.5t0.5 20.5v145q0 19 8.5 27.5t27.5 8.5h147q19 0 27.5 -8.5t8.5 -27.5v-113q0 -38 -4 -70t-25 -60l-110 -142h53q19 0 27.5 -8.5t8.5 -27.5v-97q0 -19 -8.5 -27.5t-27.5 -8.5h-109v-94zM519 209v10h-161
v90h19q22 0 37.5 8.5t31.5 30.5l86 115q13 22 17.5 42.5t4.5 54.5v70h-10v-70q0 -32 -4 -51t-16 -40l-86 -115q-15 -19 -28.5 -27t-32.5 -8h-47q-19 0 -32.5 8t-28.5 27l-86 115q-12 21 -16 40t-4 51v70h-10v-70q0 -34 4.5 -54.5t17.5 -42.5l86 -115q16 -22 31.5 -30.5
t37.5 -8.5h18v-90h-163v-10h163v-119h10v119h161z" />
    <glyph glyph-name="brokenbar" unicode="&#xa6;" horiz-adv-x="347" 
d="M282 774v-338q0 -19 -8.5 -27.5t-27.5 -8.5h-145q-19 0 -27.5 8.5t-8.5 27.5v338q0 19 8.5 27.5t27.5 8.5h145q19 0 27.5 -8.5t8.5 -27.5zM169 720v-230h10v230h-10zM282 284v-338q0 -19 -8.5 -27.5t-27.5 -8.5h-145q-19 0 -27.5 8.5t-8.5 27.5v338q0 19 8.5 27.5
t27.5 8.5h145q19 0 27.5 -8.5t8.5 -27.5zM169 230v-230h10v230h-10z" />
    <glyph glyph-name="section" unicode="&#xa7;" horiz-adv-x="650" 
d="M364 0h-266q-19 0 -27.5 8.5t-8.5 27.5v81q0 19 8.5 27.5t27.5 8.5h233q39 0 50 15.5t11 34.5v2h-94q-141 0 -193.5 57t-52.5 147v106q0 91 52.5 148t193.5 57h240q19 0 27.5 -8.5t8.5 -27.5v-81q0 -19 -8.5 -27.5t-27.5 -8.5h-207q-39 0 -50 -15.5t-11 -34.5v-2h94
q141 0 193.5 -57t52.5 -147v-106q0 -91 -52.5 -148t-193.5 -57zM151 72h211q85 0 121.5 28.5t36.5 100.5v126q0 57 -35.5 95t-115.5 38h-203v59q0 68 34.5 93.5t113.5 25.5h171v10h-171q-85 0 -121.5 -28.5t-36.5 -100.5v-126q0 -56 35.5 -94.5t115.5 -38.5h203v-59
q0 -68 -34.5 -93.5t-113.5 -25.5h-211v-10zM307 270q-74 0 -107.5 35.5t-33.5 87.5v57h203q74 0 107.5 -35t33.5 -88v-57h-203zM331 326h61v20q0 21 -11 34.5t-50 13.5h-61v-20q0 -21 11 -34.5t50 -13.5z" />
    <glyph glyph-name="dieresis" unicode="&#xa8;" horiz-adv-x="500" 
d="M188 760h-138q-17 0 -25.5 8t-8.5 25v121q0 17 8.5 25t25.5 8h138q17 0 25 -8t8 -25v-121q0 -17 -8 -25t-25 -8zM446 760h-138q-17 0 -25 8t-8 25v121q0 17 8 25t25 8h138q17 0 25 -8t8 -25v-121q0 -17 -8 -25t-25 -8zM124 830v47h-10v-47h10zM382 830v47h-10v-47h10z
" />
    <glyph glyph-name="copyright" unicode="&#xa9;" horiz-adv-x="867" 
d="M807 154q0 -54 -16 -99.5t-57.5 -77.5t-114.5 -50t-185 -18t-185 18t-114.5 50t-58 77.5t-16.5 99.5v410q0 55 16.5 100.5t58 78t114.5 50.5t185 18t185 -18t114.5 -50.5t57.5 -78t16 -100.5v-410zM762 568q0 39 -9.5 75t-42.5 64t-98.5 44.5t-177.5 16.5t-177.5 -16.5
t-99 -44.5t-43 -64t-9.5 -75v-418q0 -42 12 -78.5t47 -63t100 -41.5t170 -15t169.5 16.5t99.5 44t47 63.5t12 74v418zM434 -38q-99 0 -161.5 14t-97.5 39t-47.5 59.5t-12.5 75.5v418q0 37 10 71.5t43 61t96.5 42t169.5 15.5t169.5 -15.5t96.5 -42t42.5 -61t9.5 -71.5v-418
q0 -37 -12.5 -71t-47 -60t-97 -41.5t-161.5 -15.5zM707 150v418q0 32 -12 59.5t-42 46.5t-83.5 30t-135.5 11t-135.5 -11t-84 -30t-42.5 -46.5t-12 -59.5v-418q0 -32 12 -59t42.5 -46t84 -29.5t135.5 -10.5t135.5 10.5t83.5 29.5t42 46t12 59zM589 110h-175
q-101 0 -138.5 40.5t-37.5 105.5v223q0 66 37.5 106.5t138.5 40.5h175q13 0 19.5 -6.5t6.5 -19.5v-87q0 -13 -6.5 -19t-19.5 -6h-144q-28 0 -36 -11.5t-8 -24.5v-171q0 -15 8 -24.5t36 -9.5h144q13 0 19.5 -6.5t6.5 -19.5v-85q0 -13 -6.5 -19.5t-19.5 -6.5zM551 173v10h-121
q-63 0 -85 19t-22 65v201q0 46 22.5 65.5t84.5 19.5h121v9h-121q-67 0 -92 -21.5t-25 -72.5v-201q0 -51 24 -72.5t93 -21.5h121z" />
    <glyph glyph-name="ordfeminine" unicode="&#xaa;" horiz-adv-x="520" 
d="M122 420q0 19 3 35t8 30l45 116q7 18 15.5 29.5t29.5 11.5h67q20 0 28.5 -11.5t16.5 -30.5l48 -115q5 -14 8.5 -30t3.5 -35v-21h-273v21zM243 568l-35 -105h99l-34 105q-1 4 -4 7t-5 3h-13q-3 0 -5 -3t-3 -7zM395 270h9v150q0 19 -3 36t-9 32l-49 115q-8 20 -18.5 34
t-33.5 14h-70q-24 0 -34 -14t-17 -33l-45 -116q-6 -15 -9 -32t-3 -36v-150h9v120h273v-120zM199 232q0 -15 -7 -22.5t-23 -7.5h-103q-15 0 -22.5 7.5t-7.5 22.5v179q0 30 6 57.5t15 50.5q14 41 30.5 85t30.5 84q7 17 17.5 24.5t30.5 7.5h189q19 0 29.5 -7.5t17.5 -24.5
l62 -169q8 -23 14 -50.5t6 -57.5v-179q0 -15 -7 -22.5t-23 -7.5h-108q-15 0 -22.5 7.5t-7.5 22.5v95h-117v-95zM72 0q-19 0 -27.5 8.5t-8.5 27.5v67q0 19 8.5 27.5t27.5 8.5h376q19 0 27.5 -8.5t8.5 -27.5v-67q0 -19 -8.5 -27.5t-27.5 -8.5h-376zM414 73h-308v-8h308v8z" />
    <glyph glyph-name="guillemotleft" unicode="&#xab;" horiz-adv-x="812" 
d="M356 106l-179 51q-62 18 -94.5 49.5t-32.5 105.5v74q0 74 32.5 105t94.5 50l179 52q16 4 26 -4t10 -27v-117q0 -19 -9.5 -30.5t-26.5 -18.5l-95 -28q-10 -4 -13.5 -7t-3.5 -12t3.5 -12t13.5 -7l95 -27q18 -5 27 -17.5t9 -31.5v-117q0 -18 -9 -27t-27 -4zM716 109l-169 48
q-62 18 -94.5 49.5t-32.5 105.5v74q0 74 32 105.5t95 49.5l169 49q17 5 26.5 -4.5t9.5 -26.5v-114q0 -19 -9.5 -30.5t-26.5 -18.5l-95 -28q-10 -3 -13.5 -6.5t-3.5 -12.5t3.5 -12.5t13.5 -6.5l95 -27q18 -5 27 -17.5t9 -31.5v-114q0 -18 -9 -27t-27 -4zM573 457
q-28 -8 -45 -22t-17 -49v-74q0 -35 17 -49.5t44 -21.5l100 -29v10l-98 29q-22 6 -37.5 18t-15.5 43v74q0 31 15.5 42.5t38.5 18.5l97 30v10zM204 251q-22 7 -37.5 18.5t-15.5 42.5v74q0 31 15.5 42.5t38.5 18.5l97 30v10l-99 -30q-28 -8 -45 -22t-17 -49v-74q0 -35 17 -49.5
t44 -21.5l100 -29v10z" />
    <glyph glyph-name="logicalnot" unicode="&#xac;" horiz-adv-x="734" 
d="M628 63h-124q-19 0 -27.5 8.5t-8.5 27.5v208h-362q-19 0 -27.5 8.5t-8.5 27.5v114q0 19 8.5 27.5t27.5 8.5h522q19 0 27.5 -8.5t8.5 -27.5v-358q0 -19 -8.5 -27.5t-27.5 -8.5zM564 395v-242h10v252h-414v-10h404z" />
    <glyph glyph-name="uni00AD" unicode="&#xad;" horiz-adv-x="420" 
d="M76 257q-19 0 -27.5 8.5t-8.5 27.5v134q0 19 8.5 27.5t27.5 8.5h268q19 0 27.5 -8.5t8.5 -27.5v-134q0 -19 -8.5 -27.5t-27.5 -8.5h-268zM290 365h-160v-10h160v10z" />
    <glyph glyph-name="registered" unicode="&#xae;" horiz-adv-x="560" 
d="M504 345q0 -32 -9.5 -59.5t-34.5 -46.5t-68.5 -30t-111.5 -11q-67 0 -110.5 11t-68.5 30t-35 46.5t-10 59.5v246q0 33 10 60.5t35 47t68.5 30.5t110.5 11q68 0 111.5 -11t68.5 -30.5t34.5 -47t9.5 -60.5v-246zM479 588q0 30 -8 54t-30 40.5t-61 25t-100 8.5
q-60 0 -99 -8.5t-61 -25t-30.5 -40.5t-8.5 -54v-240q0 -29 8.5 -52.5t30.5 -40t61 -25t99 -8.5q61 0 100 8.5t61 25t30 40t8 52.5v240zM280 232q-112 0 -150.5 30t-38.5 86v240q0 57 38.5 87.5t150.5 30.5q56 0 93 -7.5t58 -22.5t29.5 -37t8.5 -51v-240q0 -28 -8.5 -49.5
t-29.5 -36.5t-58 -22.5t-93 -7.5zM444 343v251q0 39 -32.5 63.5t-131.5 24.5t-131.5 -24.5t-32.5 -63.5v-251q0 -39 32.5 -63t131.5 -24t131.5 24t32.5 63zM276 579q28 0 42.5 -12t14.5 -33v-29q0 -19 -12 -29.5t-45 -10.5h-69v114h69zM248 548v-53h31q11 0 14.5 5.5
t3.5 14.5v13q0 8 -3.5 14t-14.5 6h-31zM207 361v94h113q20 0 31 -9.5t11 -27.5v-57h10v57q0 22 -12 34t-36 13q11 6 15 16.5t4 23.5v29q0 24 -16.5 39.5t-50.5 15.5h-79v-228h10zM234 326h-63q-8 0 -11.5 4t-3.5 11v265q0 8 3.5 11.5t11.5 3.5h136q46 0 63.5 -18.5
t17.5 -49.5v-19q0 -17 -5.5 -29t-18.5 -17q22 -3 36 -19t14 -41v-87q0 -7 -3.5 -11t-10.5 -4h-64q-7 0 -11 4t-4 11v66q0 9 -3.5 13t-11.5 4h-58v-83q0 -7 -3.5 -11t-10.5 -4z" />
    <glyph glyph-name="macron" unicode="&#xaf;" horiz-adv-x="500" 
d="M423 760h-347q-19 0 -27.5 8.5t-8.5 27.5v93q0 19 8.5 27.5t27.5 8.5h347q19 0 27.5 -8.5t8.5 -27.5v-93q0 -19 -8.5 -27.5t-27.5 -8.5zM130 847v-10h239v10h-239z" />
    <glyph glyph-name="degree" unicode="&#xb0;" horiz-adv-x="483" 
d="M438 425q0 -26 -8.5 -47.5t-30.5 -36.5t-60 -23.5t-97 -8.5t-97.5 8.5t-60.5 23.5t-30.5 36.5t-8.5 47.5v184q0 26 8.5 47.5t30.5 36.5t60.5 23.5t97.5 8.5t97 -8.5t60 -23.5t30.5 -36.5t8.5 -47.5v-184zM370 581q0 43 -27 61.5t-101 18.5q-73 0 -100.5 -18.5
t-27.5 -61.5v-129q0 -43 27.5 -61t100.5 -18q74 0 101 18t27 61v129zM242 383q-66 0 -92 15t-26 54v129q0 39 26 54.5t92 15.5t92 -15.5t26 -54.5v-129q0 -39 -26 -54t-92 -15zM192 474q0 -12 9.5 -19.5t40.5 -7.5t40.5 7.5t9.5 19.5v85q0 11 -8.5 19.5t-41.5 8.5
q-31 0 -40.5 -8.5t-9.5 -19.5v-85z" />
    <glyph glyph-name="plusminus" unicode="&#xb1;" horiz-adv-x="734" 
d="M465 161q0 -19 -8.5 -27.5t-27.5 -8.5h-124q-19 0 -27.5 8.5t-8.5 27.5v168h-163q-19 0 -27.5 8.5t-8.5 27.5v114q0 19 8.5 27.5t27.5 8.5h163v168q0 19 8.5 27.5t27.5 8.5h124q19 0 27.5 -8.5t8.5 -27.5v-168h163q19 0 27.5 -8.5t8.5 -27.5v-114q0 -19 -8.5 -27.5
t-27.5 -8.5h-163v-168zM362 215h10v202h202v10h-202v202h-10v-202h-202v-10h202v-202zM106 1q-19 0 -27.5 8.5t-8.5 27.5v114q0 19 8.5 27.5t27.5 8.5h522q19 0 27.5 -8.5t8.5 -27.5v-114q0 -19 -8.5 -27.5t-27.5 -8.5h-522zM160 89h414v10h-414v-10z" />
    <glyph glyph-name="twosuperior" unicode="&#xb2;" horiz-adv-x="485" 
d="M408 202h-342q-13 0 -19.5 6.5t-6.5 19.5v124q0 41 8.5 68.5t23.5 44.5t35.5 27t45.5 17l96 30q11 4 15.5 9.5t4.5 16.5t-4.5 15t-15.5 4h-156q-13 0 -19.5 6.5t-6.5 19.5v84q0 13 6.5 19.5t19.5 6.5h212q61 0 94 -31t33 -88v-68q0 -54 -30 -82.5t-82 -44.5l-98 -31
q-11 -4 -15 -7t-4 -15v-15h205q13 0 19.5 -6.5t6.5 -19.5v-84q0 -13 -6.5 -19.5t-19.5 -6.5zM158 439q-23 -7 -32 -20t-9 -40v-113h252v9h-243v104q0 23 7.5 33.5t27.5 17.5l167 56q13 4 20 14t7 27v66q0 37 -20.5 50t-57.5 13h-145v-9h145q31 0 49.5 -11t18.5 -43v-66
q0 -13 -5.5 -21t-13.5 -12z" />
    <glyph glyph-name="threesuperior" unicode="&#xb3;" horiz-adv-x="484" 
d="M75 338h181q17 0 22 6.5t5 14.5v20q0 8 -5 14.5t-22 6.5h-122q-13 0 -19.5 6.5t-6.5 19.5v77q0 13 6.5 19.5t19.5 6.5h75q17 0 22.5 6.5t5.5 14.5v11q0 9 -5.5 15.5t-22.5 6.5h-134q-13 0 -19.5 6.5t-6.5 19.5v85q0 13 6.5 19.5t19.5 6.5h201q60 0 89 -27.5t29 -75.5v-42
q0 -27 -9 -47t-33 -30q51 -6 71 -31.5t20 -73.5v-72q0 -55 -35.5 -87t-104.5 -32h-228q-13 0 -19.5 6.5t-6.5 19.5v84q0 13 6.5 19.5t19.5 6.5zM173 459h109q40 0 58.5 -17.5t18.5 -53.5v-49q0 -29 -16.5 -46.5t-69.5 -17.5h-159v-9h159q60 0 77.5 20t17.5 53v49
q0 38 -19.5 58t-65.5 20h-11q33 7 40.5 27t7.5 40v46q0 32 -17.5 54.5t-77.5 22.5h-111v-9h111q52 0 69 -19t17 -46v-49q0 -25 -12.5 -45t-66.5 -20h-59v-9z" />
    <glyph glyph-name="acute" unicode="&#xb4;" horiz-adv-x="500" 
d="M423 796l-349 -43q-17 -2 -25.5 7t-8.5 26v96q0 19 8.5 26.5t27.5 9.5l349 43q17 2 25.5 -7t8.5 -26v-96q0 -19 -8.5 -26.5t-27.5 -9.5zM130 847v-10l239 30v10z" />
    <glyph glyph-name="mu" unicode="&#xb5;" horiz-adv-x="713" 
d="M180 0v159q13 -37 54.5 -59t124.5 -22q110 0 150.5 37.5t40.5 97.5v267h-10v-267q0 -56 -38.5 -90.5t-142.5 -34.5t-141.5 34.5t-37.5 90.5v267h-10v-480h10zM288 -54q0 -19 -8.5 -27.5t-27.5 -8.5h-155q-19 0 -27.5 8.5t-8.5 27.5v588q0 19 8.5 27.5t27.5 8.5h155
q19 0 27.5 -8.5t8.5 -27.5v-316q0 -20 13 -33.5t59 -13.5t59.5 13.5t13.5 33.5v316q0 19 8.5 27.5t27.5 8.5h152q19 0 27.5 -8.5t8.5 -27.5v-345q0 -46 -12 -83.5t-43.5 -64t-85.5 -41.5t-138 -15q-25 0 -48 2t-42 6v-47z" />
    <glyph glyph-name="paragraph" unicode="&#xb6;" horiz-adv-x="682" 
d="M133 425v69q0 27 5.5 50t20.5 40t42.5 26.5t71.5 9.5h242v-318h-242q-44 0 -71.5 9t-42.5 25.5t-20.5 39t-5.5 49.5zM277 292v-202h10v202h228v-202h10v540h-252q-47 0 -76.5 -10.5t-45.5 -28.5t-22 -43t-6 -54v-69q0 -29 6 -53.5t22 -42t45.5 -27.5t76.5 -10h4zM339 0
h-115q-19 0 -27.5 8.5t-8.5 27.5v173q-87 16 -120 66t-33 122v128q0 87 50 141t186 54h306q19 0 27.5 -8.5t8.5 -27.5v-648q0 -19 -8.5 -27.5t-27.5 -8.5h-115q-19 0 -27.5 8.5t-8.5 27.5v166h-51v-166q0 -19 -8.5 -27.5t-27.5 -8.5z" />
    <glyph glyph-name="periodcentered" unicode="&#xb7;" horiz-adv-x="364" 
d="M283 220h-202q-19 0 -27.5 8.5t-8.5 27.5v203q0 19 8.5 27.5t27.5 8.5h202q19 0 27.5 -8.5t8.5 -27.5v-203q0 -19 -8.5 -27.5t-27.5 -8.5zM177 310h10v95h-10v-95z" />
    <glyph glyph-name="cedilla" unicode="&#xb8;" horiz-adv-x="500" 
d="M267 -126h-126q-25 0 -31 11t1 29l85 230q6 16 16 21.5t28 -1.5l116 -43q16 -6 20.5 -16t-0.5 -24l-63 -177q-5 -16 -16 -23t-30 -7zM275 97l-48 -133h10l48 132z" />
    <glyph glyph-name="onesuperior" unicode="&#xb9;" horiz-adv-x="457" 
d="M392 202h-318q-13 0 -19.5 6.5t-6.5 19.5v87q0 13 6.5 19.5t19.5 6.5h81v240h-67q-13 0 -19.5 6.5t-6.5 19.5v87q0 13 6.5 19.5t19.5 6.5h209q13 0 19.5 -6.5t6.5 -19.5v-353h69q13 0 19.5 -6.5t6.5 -19.5v-87q0 -13 -6.5 -19.5t-19.5 -6.5zM353 262v9h-110v385h-116v-9
h107v-377h-121v-8h240z" />
    <glyph glyph-name="ordmasculine" unicode="&#xba;" horiz-adv-x="525" 
d="M486 340q0 -33 -9.5 -60.5t-34.5 -46.5t-68.5 -30t-110.5 -11t-110.5 11t-68.5 30t-35 46.5t-10 60.5v241q0 33 10 60.5t35 47t68.5 30.5t110.5 11t110.5 -11t68.5 -30.5t34.5 -47t9.5 -60.5v-241zM407 356v209q0 44 -30.5 70.5t-114.5 26.5t-113.5 -26.5t-29.5 -70.5
v-209q0 -43 29.5 -69.5t113.5 -26.5t114.5 26.5t30.5 69.5zM128 356v209q0 39 28 63.5t106 24.5t107 -24.5t29 -63.5v-209q0 -39 -29 -63t-107 -24t-106 24t-28 63zM208 365q0 -12 10 -20t45 -8q36 0 45.5 8t9.5 20v190q0 12 -9.5 20.5t-45.5 8.5q-35 0 -45 -8.5t-10 -20.5
v-190zM75 0q-19 0 -27.5 8.5t-8.5 27.5v67q0 19 8.5 27.5t27.5 8.5h375q19 0 27.5 -8.5t8.5 -27.5v-67q0 -19 -8.5 -27.5t-27.5 -8.5h-375zM414 73h-308v-8h308v8z" />
    <glyph glyph-name="guillemotright" unicode="&#xbb;" horiz-adv-x="812" 
d="M456 106q-18 -5 -27 3.5t-9 27.5v117q0 19 9 31.5t27 17.5l95 27q10 4 13.5 7t3.5 12t-3.5 12t-13.5 7l-95 28q-18 5 -27 17.5t-9 31.5v117q0 19 9 27.5t27 3.5l179 -52q62 -18 94.5 -49.5t32.5 -105.5v-74q0 -74 -32.5 -105.5t-94.5 -49.5zM265 157l-169 -48
q-18 -5 -27 3.5t-9 27.5v114q0 19 9 31.5t27 17.5l95 27q10 3 13.5 6.5t3.5 12.5t-3.5 12.5t-13.5 6.5l-95 28q-17 7 -26.5 18.5t-9.5 30.5v114q0 19 9 28t27 3l169 -49q63 -18 95 -49.5t32 -105.5v-74q0 -74 -32.5 -105.5t-94.5 -49.5zM510 212l100 29q27 7 44 21.5
t17 49.5v74q0 35 -17 49t-45 22l-99 30v-10l97 -30q23 -7 38.5 -18.5t15.5 -42.5v-74q0 -31 -15.5 -42.5t-37.5 -18.5l-98 -29v-10zM140 477l97 -30q23 -7 38.5 -18.5t15.5 -42.5v-74q0 -31 -15.5 -43t-37.5 -18l-98 -29v-10l100 29q27 7 44 21.5t17 49.5v74q0 35 -17 49
t-45 22l-99 30v-10z" />
    <glyph glyph-name="onequarter" unicode="&#xbc;" horiz-adv-x="1203" 
d="M392 202h-318q-13 0 -19.5 6.5t-6.5 19.5v87q0 13 6.5 19.5t19.5 6.5h81v240h-67q-13 0 -19.5 6.5t-6.5 19.5v87q0 13 6.5 19.5t19.5 6.5h209q13 0 19.5 -6.5t6.5 -19.5v-353h69q13 0 19.5 -6.5t6.5 -19.5v-87q0 -13 -6.5 -19.5t-19.5 -6.5zM353 262v9h-110v385h-116v-9
h107v-377h-121v-8h240zM991 120h-122q-70 0 -100.5 29t-30.5 90v253q0 13 6.5 19.5t19.5 6.5h112q13 0 19 -6.5t6 -19.5v-197q0 -11 6.5 -18t16.5 -7h67v222q0 13 6.5 19.5t19.5 6.5h111q13 0 19 -6.5t6 -19.5v-466q0 -13 -6 -19.5t-19 -6.5h-111q-13 0 -19.5 6.5t-6.5 19.5
v94zM1067 64h10v389h-10v-253h-171q-36 0 -53.5 16.5t-17.5 50.5v186h-10v-186q0 -38 19.5 -57t61.5 -19h171v-127zM428 36l120 648q4 19 10.5 27.5t25.5 8.5h115q19 0 29.5 -8.5t6.5 -27.5l-120 -648q-4 -19 -10.5 -27.5t-25.5 -8.5h-115q-19 0 -29.5 8.5t-6.5 27.5z
M537 90l100 540h-10l-100 -540h10z" />
    <glyph glyph-name="onehalf" unicode="&#xbd;" horiz-adv-x="1160" 
d="M392 202h-318q-13 0 -19.5 6.5t-6.5 19.5v87q0 13 6.5 19.5t19.5 6.5h81v240h-67q-13 0 -19.5 6.5t-6.5 19.5v87q0 13 6.5 19.5t19.5 6.5h209q13 0 19.5 -6.5t6.5 -19.5v-353h69q13 0 19.5 -6.5t6.5 -19.5v-87q0 -13 -6.5 -19.5t-19.5 -6.5zM353 262v9h-110v385h-116v-9
h107v-377h-121v-8h240zM1083 0h-342q-13 0 -19.5 6.5t-6.5 19.5v124q0 41 8.5 68.5t23.5 44.5t35.5 27t45.5 17l96 30q11 4 15.5 9.5t4.5 16.5t-4.5 15t-15.5 4h-156q-13 0 -19.5 6.5t-6.5 19.5v84q0 13 6.5 19.5t19.5 6.5h212q61 0 94 -31t33 -88v-68q0 -54 -30 -82.5
t-82 -44.5l-98 -31q-11 -4 -15 -7t-4 -15v-15h205q13 0 19.5 -6.5t6.5 -19.5v-84q0 -13 -6.5 -19.5t-19.5 -6.5zM833 237q-23 -7 -32 -20t-9 -40v-113h252v9h-243v104q0 23 7.5 33.5t27.5 17.5l167 56q13 4 20 14t7 27v66q0 37 -20.5 50t-57.5 13h-145v-9h145q31 0 49.5 -11
t18.5 -43v-66q0 -13 -5.5 -21t-13.5 -12zM428 36l120 648q4 19 10.5 27.5t25.5 8.5h115q19 0 29.5 -8.5t6.5 -27.5l-120 -648q-4 -19 -10.5 -27.5t-25.5 -8.5h-115q-19 0 -29.5 8.5t-6.5 27.5zM537 90l100 540h-10l-100 -540h10z" />
    <glyph glyph-name="threequarters" unicode="&#xbe;" horiz-adv-x="1213" 
d="M75 338h181q17 0 22 6.5t5 14.5v20q0 8 -5 14.5t-22 6.5h-122q-13 0 -19.5 6.5t-6.5 19.5v77q0 13 6.5 19.5t19.5 6.5h75q17 0 22.5 6.5t5.5 14.5v11q0 9 -5.5 15.5t-22.5 6.5h-134q-13 0 -19.5 6.5t-6.5 19.5v85q0 13 6.5 19.5t19.5 6.5h201q60 0 89 -27.5t29 -75.5v-42
q0 -27 -9 -47t-33 -30q51 -6 71 -31.5t20 -73.5v-72q0 -55 -35.5 -87t-104.5 -32h-228q-13 0 -19.5 6.5t-6.5 19.5v84q0 13 6.5 19.5t19.5 6.5zM173 459h109q40 0 58.5 -17.5t18.5 -53.5v-49q0 -29 -16.5 -46.5t-69.5 -17.5h-159v-9h159q60 0 77.5 20t17.5 53v49
q0 38 -19.5 58t-65.5 20h-11q33 7 40.5 27t7.5 40v46q0 32 -17.5 54.5t-77.5 22.5h-111v-9h111q52 0 69 -19t17 -46v-49q0 -25 -12.5 -45t-66.5 -20h-59v-9zM1001 120h-122q-70 0 -100.5 29t-30.5 90v253q0 13 6.5 19.5t19.5 6.5h112q13 0 19 -6.5t6 -19.5v-197
q0 -11 6.5 -18t16.5 -7h67v222q0 13 6.5 19.5t19.5 6.5h111q13 0 19 -6.5t6 -19.5v-466q0 -13 -6 -19.5t-19 -6.5h-111q-13 0 -19.5 6.5t-6.5 19.5v94zM1077 64h10v389h-10v-253h-171q-36 0 -53.5 16.5t-17.5 50.5v186h-10v-186q0 -38 19.5 -57t61.5 -19h171v-127zM438 36
l120 648q4 19 10.5 27.5t25.5 8.5h115q19 0 29.5 -8.5t6.5 -27.5l-120 -648q-4 -19 -10.5 -27.5t-25.5 -8.5h-115q-19 0 -29.5 8.5t-6.5 27.5zM547 90l100 540h-10l-100 -540h10z" />
    <glyph glyph-name="questiondown" unicode="&#xbf;" horiz-adv-x="656" 
d="M312 720h183q19 0 27.5 -8.5t8.5 -27.5v-131q0 -19 -8.5 -27.5t-27.5 -8.5h-183q-19 0 -27.5 8.5t-8.5 27.5v131q0 19 8.5 27.5t27.5 8.5zM410 640h-10v-43h10v43zM200 447l271 37q19 2 27.5 -5t11.5 -26l21 -132q3 -19 -5.5 -29t-27.5 -12l-199 -28q-15 -2 -21 -9
t-6 -22q0 -14 7 -21t20 -7h276q19 0 27.5 -8.5t8.5 -27.5v-121q0 -19 -8.5 -27.5t-27.5 -8.5h-323q-97 0 -152 45.5t-55 130.5v105q0 84 42 120t113 46zM433 381l-216 -30q-23 -3 -40 -13t-17 -41v-114q0 -54 30 -72.5t64 -18.5h269v10h-269q-31 0 -57.5 16t-26.5 65v114
q0 26 15 33.5t34 10.5l216 29z" />
    <glyph glyph-name="Agrave" unicode="&#xc0;" horiz-adv-x="730" 
d="M170 303q0 27 4.5 50t11.5 43l64 164q10 25 22 42.5t42 17.5h98q28 0 40 -17.5t23 -43.5l69 -163q7 -20 11.5 -43t4.5 -50v-31h-390v31zM330 510l-47 -152h157l-47 152q-4 9 -8.5 13t-10.5 4h-25q-6 0 -10.5 -4t-8.5 -13zM560 90h10v213q0 28 -4.5 51.5t-12.5 45.5
l-69 163q-12 29 -25.5 48t-46.5 19h-98q-34 0 -48 -19t-25 -47l-64 -164q-8 -22 -12.5 -45.5t-4.5 -51.5v-213h10v172h390v-172zM273 36q0 -19 -8.5 -27.5t-27.5 -8.5h-147q-19 0 -27.5 8.5t-8.5 27.5v264q0 30 9.5 69t29.5 91l87 227q6 17 18.5 25t32.5 8h269q19 0 31.5 -8
t18.5 -25l87 -227q20 -52 29.5 -91t9.5 -69v-264q0 -19 -8.5 -27.5t-27.5 -8.5h-151q-20 0 -29.5 8.5t-9.5 27.5v140h-177v-140zM540 753l-349 43q-19 2 -27.5 9.5t-8.5 26.5v96q0 17 8.5 26t25.5 7l349 -43q19 -2 27.5 -9.5t8.5 -26.5v-96q0 -17 -8.5 -26t-25.5 -7z
M245 867l239 -30v10l-239 30v-10z" />
    <glyph glyph-name="Aacute" unicode="&#xc1;" horiz-adv-x="730" 
d="M170 303q0 27 4.5 50t11.5 43l64 164q10 25 22 42.5t42 17.5h98q28 0 40 -17.5t23 -43.5l69 -163q7 -20 11.5 -43t4.5 -50v-31h-390v31zM330 510l-47 -152h157l-47 152q-4 9 -8.5 13t-10.5 4h-25q-6 0 -10.5 -4t-8.5 -13zM560 90h10v213q0 28 -4.5 51.5t-12.5 45.5
l-69 163q-12 29 -25.5 48t-46.5 19h-98q-34 0 -48 -19t-25 -47l-64 -164q-8 -22 -12.5 -45.5t-4.5 -51.5v-213h10v172h390v-172zM273 36q0 -19 -8.5 -27.5t-27.5 -8.5h-147q-19 0 -27.5 8.5t-8.5 27.5v264q0 30 9.5 69t29.5 91l87 227q6 17 18.5 25t32.5 8h269q19 0 31.5 -8
t18.5 -25l87 -227q20 -52 29.5 -91t9.5 -69v-264q0 -19 -8.5 -27.5t-27.5 -8.5h-151q-20 0 -29.5 8.5t-9.5 27.5v140h-177v-140zM538 796l-349 -43q-17 -2 -25.5 7t-8.5 26v96q0 19 8.5 26.5t27.5 9.5l349 43q17 2 25.5 -7t8.5 -26v-96q0 -19 -8.5 -26.5t-27.5 -9.5z
M245 847v-10l239 30v10z" />
    <glyph glyph-name="Acircumflex" unicode="&#xc2;" horiz-adv-x="730" 
d="M170 303q0 27 4.5 50t11.5 43l64 164q10 25 22 42.5t42 17.5h98q28 0 40 -17.5t23 -43.5l69 -163q7 -20 11.5 -43t4.5 -50v-31h-390v31zM330 510l-47 -152h157l-47 152q-4 9 -8.5 13t-10.5 4h-25q-6 0 -10.5 -4t-8.5 -13zM560 90h10v213q0 28 -4.5 51.5t-12.5 45.5
l-69 163q-12 29 -25.5 48t-46.5 19h-98q-34 0 -48 -19t-25 -47l-64 -164q-8 -22 -12.5 -45.5t-4.5 -51.5v-213h10v172h390v-172zM273 36q0 -19 -8.5 -27.5t-27.5 -8.5h-147q-19 0 -27.5 8.5t-8.5 27.5v264q0 30 9.5 69t29.5 91l87 227q6 17 18.5 25t32.5 8h269q19 0 31.5 -8
t18.5 -25l87 -227q20 -52 29.5 -91t9.5 -69v-264q0 -19 -8.5 -27.5t-27.5 -8.5h-151q-20 0 -29.5 8.5t-9.5 27.5v140h-177v-140zM333 797l-137 -40q-25 -8 -33 -2t-8 33v81q0 27 8.5 35t32.5 18l128 46q9 4 19.5 6t19.5 3q9 0 17 -1t15 -4l137 -50q25 -10 33.5 -18t8.5 -35
v-81q0 -27 -8 -33t-34 2l-137 40q-17 4 -31 4t-31 -4zM483 850v11l-83 27q-9 2 -17 4t-19 2t-19 -2t-17 -4l-83 -27v-11l87 28q7 2 14.5 4t17.5 2t17.5 -2t14.5 -4z" />
    <glyph glyph-name="Atilde" unicode="&#xc3;" horiz-adv-x="730" 
d="M170 303q0 27 4.5 50t11.5 43l64 164q10 25 22 42.5t42 17.5h98q28 0 40 -17.5t23 -43.5l69 -163q7 -20 11.5 -43t4.5 -50v-31h-390v31zM330 510l-47 -152h157l-47 152q-4 9 -8.5 13t-10.5 4h-25q-6 0 -10.5 -4t-8.5 -13zM560 90h10v213q0 28 -4.5 51.5t-12.5 45.5
l-69 163q-12 29 -25.5 48t-46.5 19h-98q-34 0 -48 -19t-25 -47l-64 -164q-8 -22 -12.5 -45.5t-4.5 -51.5v-213h10v172h390v-172zM273 36q0 -19 -8.5 -27.5t-27.5 -8.5h-147q-19 0 -27.5 8.5t-8.5 27.5v264q0 30 9.5 69t29.5 91l87 227q6 17 18.5 25t32.5 8h269q19 0 31.5 -8
t18.5 -25l87 -227q20 -52 29.5 -91t9.5 -69v-264q0 -19 -8.5 -27.5t-27.5 -8.5h-151q-20 0 -29.5 8.5t-9.5 27.5v140h-177v-140zM364 764l-28 4q-28 4 -47 5.5t-34 0t-29.5 -5t-34.5 -9.5q-18 -5 -27 1t-9 25v101q0 19 9.5 26.5t26.5 14.5q24 7 40 10.5t31.5 3.5t35 -2.5
t49.5 -6.5l17 -2l22 -3q33 -5 52.5 -7t34 -1t28.5 5t36 11q18 5 27 -1t9 -25v-101q0 -19 -9.5 -26.5t-26.5 -14.5q-24 -7 -40 -10.5t-32 -3.5t-35.5 2.5t-49.5 6.5zM483 841q-20 -2 -42 0t-60 8l-16 2l-28 4q-34 4 -54.5 5.5t-37.5 -0.5v-11q16 3 36.5 2t53.5 -6l28 -4
l16 -2q38 -6 61 -8t43 0v10z" />
    <glyph glyph-name="Adieresis" unicode="&#xc4;" horiz-adv-x="730" 
d="M170 303q0 27 4.5 50t11.5 43l64 164q10 25 22 42.5t42 17.5h98q28 0 40 -17.5t23 -43.5l69 -163q7 -20 11.5 -43t4.5 -50v-31h-390v31zM330 510l-47 -152h157l-47 152q-4 9 -8.5 13t-10.5 4h-25q-6 0 -10.5 -4t-8.5 -13zM560 90h10v213q0 28 -4.5 51.5t-12.5 45.5
l-69 163q-12 29 -25.5 48t-46.5 19h-98q-34 0 -48 -19t-25 -47l-64 -164q-8 -22 -12.5 -45.5t-4.5 -51.5v-213h10v172h390v-172zM273 36q0 -19 -8.5 -27.5t-27.5 -8.5h-147q-19 0 -27.5 8.5t-8.5 27.5v264q0 30 9.5 69t29.5 91l87 227q6 17 18.5 25t32.5 8h269q19 0 31.5 -8
t18.5 -25l87 -227q20 -52 29.5 -91t9.5 -69v-264q0 -19 -8.5 -27.5t-27.5 -8.5h-151q-20 0 -29.5 8.5t-9.5 27.5v140h-177v-140zM303 760h-138q-17 0 -25.5 8t-8.5 25v121q0 17 8.5 25t25.5 8h138q17 0 25 -8t8 -25v-121q0 -17 -8 -25t-25 -8zM561 760h-138q-17 0 -25 8
t-8 25v121q0 17 8 25t25 8h138q17 0 25 -8t8 -25v-121q0 -17 -8 -25t-25 -8zM239 830v47h-10v-47h10zM497 830v47h-10v-47h10z" />
    <glyph glyph-name="Aring" unicode="&#xc5;" horiz-adv-x="730" 
d="M225 760q0 -22 5.5 -40.5t20.5 -32t43 -20.5t72 -7q89 0 116 27.5t27 72.5v45q0 44 -27 72.5t-116 28.5q-44 0 -72 -7.5t-43 -20.5t-20.5 -32t-5.5 -41v-45zM366 896q80 0 106.5 -25t26.5 -66v-45q0 -42 -26.5 -66t-106.5 -24t-105.5 24t-25.5 66v45q0 42 25.5 66.5
t105.5 24.5zM425 764v35q0 19 -11 29.5t-48 10.5t-47 -10.5t-10 -29.5v-35q0 -22 10 -32.5t47 -10.5t48 10.5t11 32.5zM170 303q0 27 4.5 50t11.5 43l64 164q10 25 22 42.5t42 17.5h98q28 0 40 -17.5t23 -43.5l69 -163q7 -20 11.5 -43t4.5 -50v-31h-390v31zM330 510
l-47 -152h157l-47 152q-3 9 -8 13t-11 4h-25q-6 0 -11 -4t-8 -13zM560 90h10v213q0 28 -4.5 51.5t-12.5 45.5l-69 163q-12 29 -25.5 48t-46.5 19h-98q-34 0 -48 -19t-25 -47l-64 -164q-8 -22 -12.5 -45.5t-4.5 -51.5v-213h10v172h390v-172zM273 36q0 -19 -8.5 -27.5
t-27.5 -8.5h-147q-19 0 -27.5 8.5t-8.5 27.5v264q0 30 9.5 69t29.5 91l84 220q-16 18 -22.5 41t-6.5 50v58q0 32 9.5 58.5t34 45t66.5 29t107 10.5t107 -10.5t66.5 -29t34 -45t9.5 -58.5v-58q0 -27 -6.5 -50t-22.5 -41l84 -220q20 -52 29.5 -91t9.5 -69v-264
q0 -19 -8.5 -27.5t-27.5 -8.5h-151q-20 0 -29.5 8.5t-9.5 27.5v140h-177v-140z" />
    <glyph glyph-name="AE" unicode="&#xc6;" horiz-adv-x="1005" 
d="M168 291q0 28 2 48.5t9 39.5l74 203q7 22 16.5 30t24.5 8h255v-347h-381v18zM334 514l-52 -156h158v173h-87q-8 0 -11.5 -3.5t-7.5 -13.5zM158 90h10v173h381v-173h317v10h-307v260h226v10h-226v250h307v10h-572q-18 0 -29.5 -9t-21.5 -35l-74 -203q-7 -21 -9 -42t-2 -50
v-201zM272 36q0 -19 -8.5 -27.5t-27.5 -8.5h-146q-19 0 -27.5 8.5t-8.5 27.5v254q0 44 7.5 78.5t21.5 71.5l87 239q8 23 22.5 32t39.5 9h688q19 0 27.5 -8.5t8.5 -27.5v-117q0 -19 -8.5 -27.5t-27.5 -8.5h-253v-77h172q19 0 27.5 -8.5t8.5 -27.5v-107q0 -19 -8.5 -27.5
t-27.5 -8.5h-172v-86h253q19 0 27.5 -8.5t8.5 -27.5v-117q0 -19 -8.5 -27.5t-27.5 -8.5h-444q-19 0 -27.5 8.5t-8.5 27.5v140h-168v-140z" />
    <glyph glyph-name="Ccedilla" unicode="&#xc7;" horiz-adv-x="628" 
d="M435 -96q-5 -16 -16 -23t-30 -7h-126q-25 0 -31 11t1 29l32 87q-105 7 -156 57t-51 146v311q0 104 60.5 154.5t185.5 50.5h244q19 0 27.5 -8.5t8.5 -27.5v-121q0 -19 -8.5 -27.5t-27.5 -8.5h-201q-31 0 -46 -12.5t-15 -37.5v-238q0 -25 15 -36.5t46 -11.5h201
q19 0 27.5 -8.5t8.5 -27.5v-119q0 -19 -8.5 -27.5t-27.5 -8.5h-79zM349 -36h10l46 126h88v10h-167q-90 0 -120 27t-30 92v280q0 66 31 93.5t119 27.5h167v10h-167q-96 0 -128 -30t-32 -101v-280q0 -69 31.5 -99t128.5 -30h68z" />
    <glyph glyph-name="Egrave" unicode="&#xc8;" horiz-adv-x="654" 
d="M569 0h-464q-19 0 -27.5 8.5t-8.5 27.5v648q0 19 8.5 27.5t27.5 8.5h464q19 0 27.5 -8.5t8.5 -27.5v-117q0 -19 -8.5 -27.5t-27.5 -8.5h-276v-77h195q19 0 27.5 -8.5t8.5 -27.5v-107q0 -19 -8.5 -27.5t-27.5 -8.5h-195v-86h276q19 0 27.5 -8.5t8.5 -27.5v-117
q0 -19 -8.5 -27.5t-27.5 -8.5zM515 100h-327v259h246v10h-246v251h327v10h-337v-540h337v10zM502 753l-349 43q-19 2 -27.5 9.5t-8.5 26.5v96q0 17 8.5 26t25.5 7l349 -43q19 -2 27.5 -9.5t8.5 -26.5v-96q0 -17 -8.5 -26t-25.5 -7zM207 867l239 -30v10l-239 30v-10z" />
    <glyph glyph-name="Eacute" unicode="&#xc9;" horiz-adv-x="654" 
d="M569 0h-464q-19 0 -27.5 8.5t-8.5 27.5v648q0 19 8.5 27.5t27.5 8.5h464q19 0 27.5 -8.5t8.5 -27.5v-117q0 -19 -8.5 -27.5t-27.5 -8.5h-276v-77h195q19 0 27.5 -8.5t8.5 -27.5v-107q0 -19 -8.5 -27.5t-27.5 -8.5h-195v-86h276q19 0 27.5 -8.5t8.5 -27.5v-117
q0 -19 -8.5 -27.5t-27.5 -8.5zM515 100h-327v259h246v10h-246v251h327v10h-337v-540h337v10zM530 796l-349 -43q-17 -2 -25.5 7t-8.5 26v96q0 19 8.5 26.5t27.5 9.5l349 43q17 2 25.5 -7t8.5 -26v-96q0 -19 -8.5 -26.5t-27.5 -9.5zM237 847v-10l239 30v10z" />
    <glyph glyph-name="Ecircumflex" unicode="&#xca;" horiz-adv-x="654" 
d="M569 0h-464q-19 0 -27.5 8.5t-8.5 27.5v648q0 19 8.5 27.5t27.5 8.5h464q19 0 27.5 -8.5t8.5 -27.5v-117q0 -19 -8.5 -27.5t-27.5 -8.5h-276v-77h195q19 0 27.5 -8.5t8.5 -27.5v-107q0 -19 -8.5 -27.5t-27.5 -8.5h-195v-86h276q19 0 27.5 -8.5t8.5 -27.5v-117
q0 -19 -8.5 -27.5t-27.5 -8.5zM515 100h-327v259h246v10h-246v251h327v10h-337v-540h337v10zM305 797l-137 -40q-25 -8 -33 -2t-8 33v81q0 27 8.5 35t32.5 18l128 46q9 4 19.5 6t19.5 3q9 0 17 -1t15 -4l137 -50q25 -10 33.5 -18t8.5 -35v-81q0 -27 -8 -33t-34 2l-137 40
q-17 4 -31 4t-31 -4zM455 850v11l-83 27q-9 2 -17 4t-19 2t-19 -2t-17 -4l-83 -27v-11l87 28q7 2 14.5 4t17.5 2t17.5 -2t14.5 -4z" />
    <glyph glyph-name="Edieresis" unicode="&#xcb;" horiz-adv-x="654" 
d="M569 0h-464q-19 0 -27.5 8.5t-8.5 27.5v648q0 19 8.5 27.5t27.5 8.5h464q19 0 27.5 -8.5t8.5 -27.5v-117q0 -19 -8.5 -27.5t-27.5 -8.5h-276v-77h195q19 0 27.5 -8.5t8.5 -27.5v-107q0 -19 -8.5 -27.5t-27.5 -8.5h-195v-86h276q19 0 27.5 -8.5t8.5 -27.5v-117
q0 -19 -8.5 -27.5t-27.5 -8.5zM515 100h-327v259h246v10h-246v251h327v10h-337v-540h337v10zM285 760h-138q-17 0 -25.5 8t-8.5 25v121q0 17 8.5 25t25.5 8h138q17 0 25 -8t8 -25v-121q0 -17 -8 -25t-25 -8zM543 760h-138q-17 0 -25 8t-8 25v121q0 17 8 25t25 8h138
q17 0 25 -8t8 -25v-121q0 -17 -8 -25t-25 -8zM221 830v47h-10v-47h10zM479 830v47h-10v-47h10z" />
    <glyph glyph-name="Igrave" unicode="&#xcc;" horiz-adv-x="605" 
d="M89 0q-19 0 -27.5 8.5t-8.5 27.5v119q0 19 8.5 27.5t27.5 8.5h99v336h-99q-19 0 -27.5 8.5t-8.5 27.5v121q0 19 8.5 27.5t27.5 8.5h426q19 0 27.5 -8.5t8.5 -27.5v-121q0 -19 -8.5 -27.5t-27.5 -8.5h-97v-336h97q19 0 27.5 -8.5t8.5 -27.5v-119q0 -19 -8.5 -27.5
t-27.5 -8.5h-426zM461 90v10h-153v520h153v10h-318v-10h155v-520h-155v-10h318zM477 753l-349 43q-19 2 -27.5 9.5t-8.5 26.5v96q0 17 8.5 26t25.5 7l349 -43q19 -2 27.5 -9.5t8.5 -26.5v-96q0 -17 -8.5 -26t-25.5 -7zM182 867l239 -30v10l-239 30v-10z" />
    <glyph glyph-name="Iacute" unicode="&#xcd;" horiz-adv-x="605" 
d="M89 0q-19 0 -27.5 8.5t-8.5 27.5v119q0 19 8.5 27.5t27.5 8.5h99v336h-99q-19 0 -27.5 8.5t-8.5 27.5v121q0 19 8.5 27.5t27.5 8.5h426q19 0 27.5 -8.5t8.5 -27.5v-121q0 -19 -8.5 -27.5t-27.5 -8.5h-97v-336h97q19 0 27.5 -8.5t8.5 -27.5v-119q0 -19 -8.5 -27.5
t-27.5 -8.5h-426zM461 90v10h-153v520h153v10h-318v-10h155v-520h-155v-10h318zM475 796l-349 -43q-17 -2 -25.5 7t-8.5 26v96q0 19 8.5 26.5t27.5 9.5l349 43q17 2 25.5 -7t8.5 -26v-96q0 -19 -8.5 -26.5t-27.5 -9.5zM182 847v-10l239 30v10z" />
    <glyph glyph-name="Icircumflex" unicode="&#xce;" horiz-adv-x="605" 
d="M89 0q-19 0 -27.5 8.5t-8.5 27.5v119q0 19 8.5 27.5t27.5 8.5h99v336h-99q-19 0 -27.5 8.5t-8.5 27.5v121q0 19 8.5 27.5t27.5 8.5h426q19 0 27.5 -8.5t8.5 -27.5v-121q0 -19 -8.5 -27.5t-27.5 -8.5h-97v-336h97q19 0 27.5 -8.5t8.5 -27.5v-119q0 -19 -8.5 -27.5
t-27.5 -8.5h-426zM461 90v10h-153v520h153v10h-318v-10h155v-520h-155v-10h318zM270 797l-137 -40q-25 -8 -33 -2t-8 33v81q0 27 8.5 35t32.5 18l128 46q9 4 19.5 6t19.5 3q9 0 17 -1t15 -4l137 -50q25 -10 33.5 -18t8.5 -35v-81q0 -27 -8 -33t-34 2l-137 40q-17 4 -31 4
t-31 -4zM420 850v11l-83 27q-9 2 -17 4t-19 2t-19 -2t-17 -4l-83 -27v-11l87 28q7 2 14.5 4t17.5 2t17.5 -2t14.5 -4z" />
    <glyph glyph-name="Idieresis" unicode="&#xcf;" horiz-adv-x="605" 
d="M89 0q-19 0 -27.5 8.5t-8.5 27.5v119q0 19 8.5 27.5t27.5 8.5h99v336h-99q-19 0 -27.5 8.5t-8.5 27.5v121q0 19 8.5 27.5t27.5 8.5h426q19 0 27.5 -8.5t8.5 -27.5v-121q0 -19 -8.5 -27.5t-27.5 -8.5h-97v-336h97q19 0 27.5 -8.5t8.5 -27.5v-119q0 -19 -8.5 -27.5
t-27.5 -8.5h-426zM461 90v10h-153v520h153v10h-318v-10h155v-520h-155v-10h318zM240 760h-138q-17 0 -25.5 8t-8.5 25v121q0 17 8.5 25t25.5 8h138q17 0 25 -8t8 -25v-121q0 -17 -8 -25t-25 -8zM498 760h-138q-17 0 -25 8t-8 25v121q0 17 8 25t25 8h138q17 0 25 -8t8 -25
v-121q0 -17 -8 -25t-25 -8zM176 830v47h-10v-47h10zM434 830v47h-10v-47h10z" />
    <glyph glyph-name="Eth" unicode="&#xd0;" horiz-adv-x="756" 
d="M452 0h-337q-19 0 -27.5 8.5t-8.5 27.5v229h-23q-19 0 -27.5 8.5t-8.5 27.5v107q0 19 8.5 27.5t27.5 8.5h23v240q0 19 8.5 27.5t27.5 8.5h337q141 0 193.5 -57t52.5 -147v-312q0 -90 -52.5 -147t-193.5 -57zM186 90h244q51 0 83 10.5t49 28.5t22.5 43t5.5 54v265
q0 29 -6 54.5t-23 44t-48.5 29.5t-82.5 11h-244v-271h-76v-10h76v-259zM290 349v10h-94v261h234q47 0 76.5 -10t45.5 -27t22 -41t6 -51v-265q0 -27 -5.5 -50.5t-21.5 -40t-45.5 -26t-77.5 -9.5h-234v249h94zM303 189h122q30 0 38.5 14.5t8.5 34.5v243q0 19 -8.5 33.5
t-38.5 14.5h-122v-85h41q19 0 27.5 -8.5t8.5 -27.5v-107q0 -19 -8.5 -27.5t-27.5 -8.5h-41v-76z" />
    <glyph glyph-name="Ntilde" unicode="&#xd1;" horiz-adv-x="753" 
d="M201 622q-5 5 -8 7t-7 2t-8 -3t-4 -9v-529h10v527q0 1 0.5 2t1.5 1t2.5 -1t2.5 -2l378 -424v-103h10v540h-10v-422zM255 0h-150q-19 0 -27.5 8.5t-8.5 27.5v648q0 19 8.5 27.5t27.5 8.5h104q19 0 32.5 -6t26.5 -21l194 -222v213q0 19 8.5 27.5t27.5 8.5h150
q19 0 27.5 -8.5t8.5 -27.5v-648q0 -19 -8.5 -27.5t-27.5 -8.5h-150q-19 0 -27.5 8.5t-8.5 27.5v123l-171 207v-330q0 -19 -8.5 -27.5t-27.5 -8.5zM375 764l-28 4q-28 4 -47 5.5t-34 0t-29.5 -5t-34.5 -9.5q-18 -5 -27 1t-9 25v101q0 19 9.5 26.5t26.5 14.5q24 7 40 10.5
t31.5 3.5t35 -2.5t49.5 -6.5l17 -2l22 -3q33 -5 52.5 -7t34 -1t28.5 5t36 11q18 5 27 -1t9 -25v-101q0 -19 -9.5 -26.5t-26.5 -14.5q-24 -7 -40 -10.5t-32 -3.5t-35.5 2.5t-49.5 6.5zM494 841q-20 -2 -42 0t-60 8l-16 2l-28 4q-34 4 -54.5 5.5t-37.5 -0.5v-11q16 3 36.5 2
t53.5 -6l28 -4l16 -2q38 -6 61 -8t43 0v10z" />
    <glyph glyph-name="Ograve" unicode="&#xd2;" horiz-adv-x="737" 
d="M679 189q0 -46 -13.5 -83.5t-48 -64t-95 -41.5t-153.5 -15t-154 15t-95.5 41.5t-48 64t-13.5 83.5v341q0 46 13.5 83.5t48 64.5t95.5 42t154 15t153.5 -15t95 -42t48 -64.5t13.5 -83.5v-341zM570 212v295q0 60 -43 97.5t-160 37.5t-159 -37.5t-42 -97.5v-295
q0 -60 42 -97.5t159 -37.5t160 37.5t43 97.5zM176 212v295q0 56 40 90.5t151 34.5t152 -34.5t41 -90.5v-295q0 -56 -41 -90.5t-152 -34.5t-151 34.5t-40 90.5zM285 225q0 -20 15 -33.5t69 -13.5t69 13.5t15 33.5v269q0 19 -15 32.5t-69 13.5t-69 -13.5t-15 -32.5v-269z
M543 753l-349 43q-19 2 -27.5 9.5t-8.5 26.5v96q0 17 8.5 26t25.5 7l349 -43q19 -2 27.5 -9.5t8.5 -26.5v-96q0 -17 -8.5 -26t-25.5 -7zM248 867l239 -30v10l-239 30v-10z" />
    <glyph glyph-name="Oacute" unicode="&#xd3;" horiz-adv-x="737" 
d="M679 189q0 -46 -13.5 -83.5t-48 -64t-95 -41.5t-153.5 -15t-154 15t-95.5 41.5t-48 64t-13.5 83.5v341q0 46 13.5 83.5t48 64.5t95.5 42t154 15t153.5 -15t95 -42t48 -64.5t13.5 -83.5v-341zM570 212v295q0 60 -43 97.5t-160 37.5t-159 -37.5t-42 -97.5v-295
q0 -60 42 -97.5t159 -37.5t160 37.5t43 97.5zM176 212v295q0 56 40 90.5t151 34.5t152 -34.5t41 -90.5v-295q0 -56 -41 -90.5t-152 -34.5t-151 34.5t-40 90.5zM285 225q0 -20 15 -33.5t69 -13.5t69 13.5t15 33.5v269q0 19 -15 32.5t-69 13.5t-69 -13.5t-15 -32.5v-269z
M541 796l-349 -43q-17 -2 -25.5 7t-8.5 26v96q0 19 8.5 26.5t27.5 9.5l349 43q17 2 25.5 -7t8.5 -26v-96q0 -19 -8.5 -26.5t-27.5 -9.5zM248 847v-10l239 30v10z" />
    <glyph glyph-name="Ocircumflex" unicode="&#xd4;" horiz-adv-x="737" 
d="M679 189q0 -46 -13.5 -83.5t-48 -64t-95 -41.5t-153.5 -15t-154 15t-95.5 41.5t-48 64t-13.5 83.5v341q0 46 13.5 83.5t48 64.5t95.5 42t154 15t153.5 -15t95 -42t48 -64.5t13.5 -83.5v-341zM570 212v295q0 60 -43 97.5t-160 37.5t-159 -37.5t-42 -97.5v-295
q0 -60 42 -97.5t159 -37.5t160 37.5t43 97.5zM176 212v295q0 56 40 90.5t151 34.5t152 -34.5t41 -90.5v-295q0 -56 -41 -90.5t-152 -34.5t-151 34.5t-40 90.5zM285 225q0 -20 15 -33.5t69 -13.5t69 13.5t15 33.5v269q0 19 -15 32.5t-69 13.5t-69 -13.5t-15 -32.5v-269z
M336 797l-137 -40q-25 -8 -33 -2t-8 33v81q0 27 8.5 35t32.5 18l128 46q9 4 19.5 6t19.5 3q9 0 17 -1t15 -4l137 -50q25 -10 33.5 -18t8.5 -35v-81q0 -27 -8 -33t-34 2l-137 40q-17 4 -31 4t-31 -4zM486 850v11l-83 27q-9 2 -17 4t-19 2t-19 -2t-17 -4l-83 -27v-11l87 28
q7 2 14.5 4t17.5 2t17.5 -2t14.5 -4z" />
    <glyph glyph-name="Otilde" unicode="&#xd5;" horiz-adv-x="737" 
d="M679 189q0 -46 -13.5 -83.5t-48 -64t-95 -41.5t-153.5 -15t-154 15t-95.5 41.5t-48 64t-13.5 83.5v341q0 46 13.5 83.5t48 64.5t95.5 42t154 15t153.5 -15t95 -42t48 -64.5t13.5 -83.5v-341zM570 212v295q0 60 -43 97.5t-160 37.5t-159 -37.5t-42 -97.5v-295
q0 -60 42 -97.5t159 -37.5t160 37.5t43 97.5zM176 212v295q0 56 40 90.5t151 34.5t152 -34.5t41 -90.5v-295q0 -56 -41 -90.5t-152 -34.5t-151 34.5t-40 90.5zM285 225q0 -20 15 -33.5t69 -13.5t69 13.5t15 33.5v269q0 19 -15 32.5t-69 13.5t-69 -13.5t-15 -32.5v-269z
M367 764l-28 4q-28 4 -47 5.5t-34 0t-29.5 -5t-34.5 -9.5q-18 -5 -27 1t-9 25v101q0 19 9.5 26.5t26.5 14.5q24 7 40 10.5t31.5 3.5t35 -2.5t49.5 -6.5l17 -2l22 -3q33 -5 52.5 -7t34 -1t28.5 5t36 11q18 5 27 -1t9 -25v-101q0 -19 -9.5 -26.5t-26.5 -14.5q-24 -7 -40 -10.5
t-32 -3.5t-35.5 2.5t-49.5 6.5zM486 841q-20 -2 -42 0t-60 8l-16 2l-28 4q-34 4 -54.5 5.5t-37.5 -0.5v-11q16 3 36.5 2t53.5 -6l28 -4l16 -2q38 -6 61 -8t43 0v10z" />
    <glyph glyph-name="Odieresis" unicode="&#xd6;" horiz-adv-x="737" 
d="M679 189q0 -46 -13.5 -83.5t-48 -64t-95 -41.5t-153.5 -15t-154 15t-95.5 41.5t-48 64t-13.5 83.5v341q0 46 13.5 83.5t48 64.5t95.5 42t154 15t153.5 -15t95 -42t48 -64.5t13.5 -83.5v-341zM570 212v295q0 60 -43 97.5t-160 37.5t-159 -37.5t-42 -97.5v-295
q0 -60 42 -97.5t159 -37.5t160 37.5t43 97.5zM176 212v295q0 56 40 90.5t151 34.5t152 -34.5t41 -90.5v-295q0 -56 -41 -90.5t-152 -34.5t-151 34.5t-40 90.5zM285 225q0 -20 15 -33.5t69 -13.5t69 13.5t15 33.5v269q0 19 -15 32.5t-69 13.5t-69 -13.5t-15 -32.5v-269z
M306 760h-138q-17 0 -25.5 8t-8.5 25v121q0 17 8.5 25t25.5 8h138q17 0 25 -8t8 -25v-121q0 -17 -8 -25t-25 -8zM564 760h-138q-17 0 -25 8t-8 25v121q0 17 8 25t25 8h138q17 0 25 -8t8 -25v-121q0 -17 -8 -25t-25 -8zM242 830v47h-10v-47h10zM500 830v47h-10v-47h10z" />
    <glyph glyph-name="multiply" unicode="&#xd7;" horiz-adv-x="734" 
d="M557 90q-14 -14 -26 -13.5t-25 13.5l-139 139l-139 -139q-13 -13 -25 -13.5t-26 13.5l-80 80q-13 13 -13 25.5t13 25.5l139 139l-139 139q-13 13 -13.5 25t13.5 26l80 80q13 13 25.5 13t25.5 -13l139 -139l139 139q13 13 25 13.5t26 -13.5l80 -80q14 -14 13.5 -26
t-13.5 -25l-139 -139l139 -139q13 -13 13.5 -25t-13.5 -26zM510 210l7 7l-143 143l143 143l-7 7l-143 -143l-143 143l-7 -7l143 -143l-143 -143l7 -7l143 143z" />
    <glyph glyph-name="Oslash" unicode="&#xd8;" horiz-adv-x="737" 
d="M166 212v295q0 28 9 51t32 39.5t62 25.5t98 9q33 0 59.5 -3t47.5 -8l-221 -521q-50 14 -68.5 43.5t-18.5 68.5zM367 87q-32 0 -58 3t-46 7l220 521q49 -14 68 -43t19 -68v-295q0 -56 -42 -90.5t-161 -34.5zM265 494v-217l116 273h-12q-67 0 -85.5 -16t-18.5 -40zM369 168
q68 0 86 16t18 41v221l-118 -278h14zM230 20l29 68q21 -5 48 -8t60 -3q62 0 103.5 9.5t65.5 27.5t34 43t10 55v295q0 42 -20 73.5t-73 47.5l31 72h-11l-29 -69q-22 5 -49.5 8t-61.5 3q-62 0 -103 -9.5t-65 -27.5t-33.5 -43t-9.5 -55v-295q0 -43 20 -74.5t73 -46.5l-30 -71
h11zM295 -34q-9 -16 -18 -26t-28 -10h-115q-19 0 -27 10t1 26l27 65q-43 27 -60 67.5t-17 90.5v341q0 46 13.5 83.5t48 64.5t95.5 42t154 15q17 0 33 -0.5t31 -1.5l9 21q9 16 18 26t28 10h115q19 0 27 -10t-1 -26l-27 -65q44 -27 60.5 -67.5t16.5 -91.5v-341
q0 -46 -13.5 -83.5t-48 -64t-95 -41.5t-153.5 -15q-17 0 -33.5 0.5t-31.5 1.5z" />
    <glyph glyph-name="Ugrave" unicode="&#xd9;" horiz-adv-x="746" 
d="M682 189q0 -46 -13.5 -83.5t-48 -64t-94.5 -41.5t-153 -15t-153 15t-94.5 41.5t-48 64t-13.5 83.5v495q0 19 8.5 27.5t27.5 8.5h157q19 0 27.5 -8.5t8.5 -27.5v-456q0 -20 15 -33.5t67 -13.5q53 0 68 13.5t15 33.5v456q0 19 8.5 27.5t27.5 8.5h152q19 0 27.5 -8.5
t8.5 -27.5v-495zM174 630v-417q0 -60 41.5 -97.5t158.5 -37.5t159 37.5t42 97.5v417h-10v-417q0 -56 -40 -90.5t-151 -34.5t-150.5 34.5t-39.5 90.5v417h-10zM538 753l-349 43q-19 2 -27.5 9.5t-8.5 26.5v96q0 17 8.5 26t25.5 7l349 -43q19 -2 27.5 -9.5t8.5 -26.5v-96
q0 -17 -8.5 -26t-25.5 -7zM243 867l239 -30v10l-239 30v-10z" />
    <glyph glyph-name="Uacute" unicode="&#xda;" horiz-adv-x="746" 
d="M682 189q0 -46 -13.5 -83.5t-48 -64t-94.5 -41.5t-153 -15t-153 15t-94.5 41.5t-48 64t-13.5 83.5v495q0 19 8.5 27.5t27.5 8.5h157q19 0 27.5 -8.5t8.5 -27.5v-456q0 -20 15 -33.5t67 -13.5q53 0 68 13.5t15 33.5v456q0 19 8.5 27.5t27.5 8.5h152q19 0 27.5 -8.5
t8.5 -27.5v-495zM174 630v-417q0 -60 41.5 -97.5t158.5 -37.5t159 37.5t42 97.5v417h-10v-417q0 -56 -40 -90.5t-151 -34.5t-150.5 34.5t-39.5 90.5v417h-10zM556 796l-349 -43q-17 -2 -25.5 7t-8.5 26v96q0 19 8.5 26.5t27.5 9.5l349 43q17 2 25.5 -7t8.5 -26v-96
q0 -19 -8.5 -26.5t-27.5 -9.5zM263 847v-10l239 30v10z" />
    <glyph glyph-name="Ucircumflex" unicode="&#xdb;" horiz-adv-x="746" 
d="M682 189q0 -46 -13.5 -83.5t-48 -64t-94.5 -41.5t-153 -15t-153 15t-94.5 41.5t-48 64t-13.5 83.5v495q0 19 8.5 27.5t27.5 8.5h157q19 0 27.5 -8.5t8.5 -27.5v-456q0 -20 15 -33.5t67 -13.5q53 0 68 13.5t15 33.5v456q0 19 8.5 27.5t27.5 8.5h152q19 0 27.5 -8.5
t8.5 -27.5v-495zM174 630v-417q0 -60 41.5 -97.5t158.5 -37.5t159 37.5t42 97.5v417h-10v-417q0 -56 -40 -90.5t-151 -34.5t-150.5 34.5t-39.5 90.5v417h-10zM341 797l-137 -40q-25 -8 -33 -2t-8 33v81q0 27 8.5 35t32.5 18l128 46q9 4 19.5 6t19.5 3q9 0 17 -1t15 -4
l137 -50q25 -10 33.5 -18t8.5 -35v-81q0 -27 -8 -33t-34 2l-137 40q-17 4 -31 4t-31 -4zM491 850v11l-83 27q-9 2 -17 4t-19 2t-19 -2t-17 -4l-83 -27v-11l87 28q7 2 14.5 4t17.5 2t17.5 -2t14.5 -4z" />
    <glyph glyph-name="Udieresis" unicode="&#xdc;" horiz-adv-x="746" 
d="M682 189q0 -46 -13.5 -83.5t-48 -64t-94.5 -41.5t-153 -15t-153 15t-94.5 41.5t-48 64t-13.5 83.5v495q0 19 8.5 27.5t27.5 8.5h157q19 0 27.5 -8.5t8.5 -27.5v-456q0 -20 15 -33.5t67 -13.5q53 0 68 13.5t15 33.5v456q0 19 8.5 27.5t27.5 8.5h152q19 0 27.5 -8.5
t8.5 -27.5v-495zM174 630v-417q0 -60 41.5 -97.5t158.5 -37.5t159 37.5t42 97.5v417h-10v-417q0 -56 -40 -90.5t-151 -34.5t-150.5 34.5t-39.5 90.5v417h-10zM311 760h-138q-17 0 -25.5 8t-8.5 25v121q0 17 8.5 25t25.5 8h138q17 0 25 -8t8 -25v-121q0 -17 -8 -25t-25 -8z
M569 760h-138q-17 0 -25 8t-8 25v121q0 17 8 25t25 8h138q17 0 25 -8t8 -25v-121q0 -17 -8 -25t-25 -8zM247 830v47h-10v-47h10zM505 830v47h-10v-47h10z" />
    <glyph glyph-name="Yacute" unicode="&#xdd;" horiz-adv-x="705" 
d="M434 0h-162q-19 0 -27.5 8.5t-8.5 27.5v128l-153 205q-23 31 -30.5 54t-7.5 69v192q0 19 8.5 27.5t27.5 8.5h154q19 0 27.5 -8.5t8.5 -27.5v-164q0 -10 1 -21t8 -21l46 -72q5 -9 10.5 -13t13.5 -4h10q8 0 13.5 4t10.5 13l46 72q7 10 8 21t1 21v164q0 19 8.5 27.5
t27.5 8.5h149q19 0 27.5 -8.5t8.5 -27.5v-192q0 -46 -8 -69t-30 -54l-152 -206v-127q0 -19 -8.5 -27.5t-27.5 -8.5zM365 261q23 0 40.5 10t33.5 32l100 135q12 16 13.5 35.5t1.5 41.5v115h-10v-115q0 -21 -2 -40.5t-12 -32.5l-100 -135q-15 -19 -30.5 -27.5t-34.5 -8.5h-27
q-17 0 -34 8t-30 28l-97 135q-10 15 -12 33.5t-2 39.5v115h-10v-115q0 -22 2 -42t13 -35l97 -135q16 -22 33.5 -32t39.5 -10h10v-171h10v171h7zM535 796l-349 -43q-17 -2 -25.5 7t-8.5 26v96q0 19 8.5 26.5t27.5 9.5l349 43q17 2 25.5 -7t8.5 -26v-96q0 -19 -8.5 -26.5
t-27.5 -9.5zM242 847v-10l239 30v10z" />
    <glyph glyph-name="Thorn" unicode="&#xde;" horiz-adv-x="692" 
d="M260 0h-155q-19 0 -27.5 8.5t-8.5 27.5v648q0 19 8.5 27.5t27.5 8.5h155q19 0 27.5 -8.5t8.5 -27.5v-64h115q136 0 186 -54t50 -141v-128q0 -87 -50 -141t-186 -54h-115v-66q0 -19 -8.5 -27.5t-27.5 -8.5zM177 90h10v97h206q47 0 76.5 10t45.5 27.5t22 42t6 53.5v75
q0 29 -6 54t-22 43t-45.5 28.5t-76.5 10.5h-206v99h-10v-540zM187 197v324h206q44 0 71.5 -9.5t42.5 -26.5t20.5 -40t5.5 -50v-75q0 -27 -5.5 -49.5t-20.5 -39t-42.5 -25.5t-71.5 -9h-206zM294 433v-151h90q29 0 38 15t9 34v53q0 19 -9 34t-38 15h-90z" />
    <glyph glyph-name="germandbls" unicode="&#xdf;" horiz-adv-x="759" 
d="M193 90v530h238q46 0 61.5 -25.5t2.5 -74.5l-44 -156h60q46 0 70.5 -20.5t24.5 -67.5v-88q0 -46 -24 -67t-80 -21h-56v-10h56q62 0 88 23.5t26 74.5v88q0 51 -26.5 74.5t-78.5 23.5h-46l40 144q15 56 -4 84t-70 28h-248v-540h10zM296 36q0 -19 -8.5 -27.5t-27.5 -8.5
h-155q-19 0 -27.5 8.5t-8.5 27.5v648q0 18 9 27t27 9h371q88 0 127.5 -54t16.5 -137l-23 -83q53 -10 90.5 -49t37.5 -108v-123q0 -76 -52.5 -121t-142.5 -45h-138q-19 0 -27.5 8.5t-8.5 27.5v117q0 19 8.5 27.5t27.5 8.5h78q12 0 19.5 5.5t7.5 17.5v49q0 12 -7.5 17.5
t-19.5 5.5h-72q-24 0 -33.5 14t-3.5 42l33 163q2 11 -2 19.5t-17 8.5h-79v-495z" />
    <glyph glyph-name="agrave" unicode="&#xe0;" horiz-adv-x="730" 
d="M170 303q0 27 4.5 50t11.5 43l64 164q10 25 22 42.5t42 17.5h98q28 0 40 -17.5t23 -43.5l69 -163q7 -20 11.5 -43t4.5 -50v-31h-390v31zM330 510l-47 -152h157l-47 152q-4 9 -8.5 13t-10.5 4h-25q-6 0 -10.5 -4t-8.5 -13zM560 90h10v213q0 28 -4.5 51.5t-12.5 45.5
l-69 163q-12 29 -25.5 48t-46.5 19h-98q-34 0 -48 -19t-25 -47l-64 -164q-8 -22 -12.5 -45.5t-4.5 -51.5v-213h10v172h390v-172zM273 36q0 -19 -8.5 -27.5t-27.5 -8.5h-147q-19 0 -27.5 8.5t-8.5 27.5v264q0 30 9.5 69t29.5 91l87 227q6 17 18.5 25t32.5 8h269q19 0 31.5 -8
t18.5 -25l87 -227q20 -52 29.5 -91t9.5 -69v-264q0 -19 -8.5 -27.5t-27.5 -8.5h-151q-20 0 -29.5 8.5t-9.5 27.5v140h-177v-140zM540 753l-349 43q-19 2 -27.5 9.5t-8.5 26.5v96q0 17 8.5 26t25.5 7l349 -43q19 -2 27.5 -9.5t8.5 -26.5v-96q0 -17 -8.5 -26t-25.5 -7z
M245 867l239 -30v10l-239 30v-10z" />
    <glyph glyph-name="aacute" unicode="&#xe1;" horiz-adv-x="730" 
d="M170 303q0 27 4.5 50t11.5 43l64 164q10 25 22 42.5t42 17.5h98q28 0 40 -17.5t23 -43.5l69 -163q7 -20 11.5 -43t4.5 -50v-31h-390v31zM330 510l-47 -152h157l-47 152q-4 9 -8.5 13t-10.5 4h-25q-6 0 -10.5 -4t-8.5 -13zM560 90h10v213q0 28 -4.5 51.5t-12.5 45.5
l-69 163q-12 29 -25.5 48t-46.5 19h-98q-34 0 -48 -19t-25 -47l-64 -164q-8 -22 -12.5 -45.5t-4.5 -51.5v-213h10v172h390v-172zM273 36q0 -19 -8.5 -27.5t-27.5 -8.5h-147q-19 0 -27.5 8.5t-8.5 27.5v264q0 30 9.5 69t29.5 91l87 227q6 17 18.5 25t32.5 8h269q19 0 31.5 -8
t18.5 -25l87 -227q20 -52 29.5 -91t9.5 -69v-264q0 -19 -8.5 -27.5t-27.5 -8.5h-151q-20 0 -29.5 8.5t-9.5 27.5v140h-177v-140zM538 796l-349 -43q-17 -2 -25.5 7t-8.5 26v96q0 19 8.5 26.5t27.5 9.5l349 43q17 2 25.5 -7t8.5 -26v-96q0 -19 -8.5 -26.5t-27.5 -9.5z
M245 847v-10l239 30v10z" />
    <glyph glyph-name="acircumflex" unicode="&#xe2;" horiz-adv-x="730" 
d="M170 303q0 27 4.5 50t11.5 43l64 164q10 25 22 42.5t42 17.5h98q28 0 40 -17.5t23 -43.5l69 -163q7 -20 11.5 -43t4.5 -50v-31h-390v31zM330 510l-47 -152h157l-47 152q-4 9 -8.5 13t-10.5 4h-25q-6 0 -10.5 -4t-8.5 -13zM560 90h10v213q0 28 -4.5 51.5t-12.5 45.5
l-69 163q-12 29 -25.5 48t-46.5 19h-98q-34 0 -48 -19t-25 -47l-64 -164q-8 -22 -12.5 -45.5t-4.5 -51.5v-213h10v172h390v-172zM273 36q0 -19 -8.5 -27.5t-27.5 -8.5h-147q-19 0 -27.5 8.5t-8.5 27.5v264q0 30 9.5 69t29.5 91l87 227q6 17 18.5 25t32.5 8h269q19 0 31.5 -8
t18.5 -25l87 -227q20 -52 29.5 -91t9.5 -69v-264q0 -19 -8.5 -27.5t-27.5 -8.5h-151q-20 0 -29.5 8.5t-9.5 27.5v140h-177v-140zM333 797l-137 -40q-25 -8 -33 -2t-8 33v81q0 27 8.5 35t32.5 18l128 46q9 4 19.5 6t19.5 3q9 0 17 -1t15 -4l137 -50q25 -10 33.5 -18t8.5 -35
v-81q0 -27 -8 -33t-34 2l-137 40q-17 4 -31 4t-31 -4zM483 850v11l-83 27q-9 2 -17 4t-19 2t-19 -2t-17 -4l-83 -27v-11l87 28q7 2 14.5 4t17.5 2t17.5 -2t14.5 -4z" />
    <glyph glyph-name="atilde" unicode="&#xe3;" horiz-adv-x="730" 
d="M170 303q0 27 4.5 50t11.5 43l64 164q10 25 22 42.5t42 17.5h98q28 0 40 -17.5t23 -43.5l69 -163q7 -20 11.5 -43t4.5 -50v-31h-390v31zM330 510l-47 -152h157l-47 152q-4 9 -8.5 13t-10.5 4h-25q-6 0 -10.5 -4t-8.5 -13zM560 90h10v213q0 28 -4.5 51.5t-12.5 45.5
l-69 163q-12 29 -25.5 48t-46.5 19h-98q-34 0 -48 -19t-25 -47l-64 -164q-8 -22 -12.5 -45.5t-4.5 -51.5v-213h10v172h390v-172zM273 36q0 -19 -8.5 -27.5t-27.5 -8.5h-147q-19 0 -27.5 8.5t-8.5 27.5v264q0 30 9.5 69t29.5 91l87 227q6 17 18.5 25t32.5 8h269q19 0 31.5 -8
t18.5 -25l87 -227q20 -52 29.5 -91t9.5 -69v-264q0 -19 -8.5 -27.5t-27.5 -8.5h-151q-20 0 -29.5 8.5t-9.5 27.5v140h-177v-140zM364 764l-28 4q-28 4 -47 5.5t-34 0t-29.5 -5t-34.5 -9.5q-18 -5 -27 1t-9 25v101q0 19 9.5 26.5t26.5 14.5q24 7 40 10.5t31.5 3.5t35 -2.5
t49.5 -6.5l17 -2l22 -3q33 -5 52.5 -7t34 -1t28.5 5t36 11q18 5 27 -1t9 -25v-101q0 -19 -9.5 -26.5t-26.5 -14.5q-24 -7 -40 -10.5t-32 -3.5t-35.5 2.5t-49.5 6.5zM483 841q-20 -2 -42 0t-60 8l-16 2l-28 4q-34 4 -54.5 5.5t-37.5 -0.5v-11q16 3 36.5 2t53.5 -6l28 -4
l16 -2q38 -6 61 -8t43 0v10z" />
    <glyph glyph-name="adieresis" unicode="&#xe4;" horiz-adv-x="730" 
d="M170 303q0 27 4.5 50t11.5 43l64 164q10 25 22 42.5t42 17.5h98q28 0 40 -17.5t23 -43.5l69 -163q7 -20 11.5 -43t4.5 -50v-31h-390v31zM330 510l-47 -152h157l-47 152q-4 9 -8.5 13t-10.5 4h-25q-6 0 -10.5 -4t-8.5 -13zM560 90h10v213q0 28 -4.5 51.5t-12.5 45.5
l-69 163q-12 29 -25.5 48t-46.5 19h-98q-34 0 -48 -19t-25 -47l-64 -164q-8 -22 -12.5 -45.5t-4.5 -51.5v-213h10v172h390v-172zM273 36q0 -19 -8.5 -27.5t-27.5 -8.5h-147q-19 0 -27.5 8.5t-8.5 27.5v264q0 30 9.5 69t29.5 91l87 227q6 17 18.5 25t32.5 8h269q19 0 31.5 -8
t18.5 -25l87 -227q20 -52 29.5 -91t9.5 -69v-264q0 -19 -8.5 -27.5t-27.5 -8.5h-151q-20 0 -29.5 8.5t-9.5 27.5v140h-177v-140zM303 760h-138q-17 0 -25.5 8t-8.5 25v121q0 17 8.5 25t25.5 8h138q17 0 25 -8t8 -25v-121q0 -17 -8 -25t-25 -8zM561 760h-138q-17 0 -25 8
t-8 25v121q0 17 8 25t25 8h138q17 0 25 -8t8 -25v-121q0 -17 -8 -25t-25 -8zM239 830v47h-10v-47h10zM497 830v47h-10v-47h10z" />
    <glyph glyph-name="aring" unicode="&#xe5;" horiz-adv-x="730" 
d="M225 760q0 -22 5.5 -40.5t20.5 -32t43 -20.5t72 -7q89 0 116 27.5t27 72.5v45q0 44 -27 72.5t-116 28.5q-44 0 -72 -7.5t-43 -20.5t-20.5 -32t-5.5 -41v-45zM366 896q80 0 106.5 -25t26.5 -66v-45q0 -42 -26.5 -66t-106.5 -24t-105.5 24t-25.5 66v45q0 42 25.5 66.5
t105.5 24.5zM425 764v35q0 19 -11 29.5t-48 10.5t-47 -10.5t-10 -29.5v-35q0 -22 10 -32.5t47 -10.5t48 10.5t11 32.5zM170 303q0 27 4.5 50t11.5 43l64 164q10 25 22 42.5t42 17.5h98q28 0 40 -17.5t23 -43.5l69 -163q7 -20 11.5 -43t4.5 -50v-31h-390v31zM330 510
l-47 -152h157l-47 152q-3 9 -8 13t-11 4h-25q-6 0 -11 -4t-8 -13zM560 90h10v213q0 28 -4.5 51.5t-12.5 45.5l-69 163q-12 29 -25.5 48t-46.5 19h-98q-34 0 -48 -19t-25 -47l-64 -164q-8 -22 -12.5 -45.5t-4.5 -51.5v-213h10v172h390v-172zM273 36q0 -19 -8.5 -27.5
t-27.5 -8.5h-147q-19 0 -27.5 8.5t-8.5 27.5v264q0 30 9.5 69t29.5 91l84 220q-16 18 -22.5 41t-6.5 50v58q0 32 9.5 58.5t34 45t66.5 29t107 10.5t107 -10.5t66.5 -29t34 -45t9.5 -58.5v-58q0 -27 -6.5 -50t-22.5 -41l84 -220q20 -52 29.5 -91t9.5 -69v-264
q0 -19 -8.5 -27.5t-27.5 -8.5h-151q-20 0 -29.5 8.5t-9.5 27.5v140h-177v-140z" />
    <glyph glyph-name="ae" unicode="&#xe6;" horiz-adv-x="1005" 
d="M168 291q0 28 2 48.5t9 39.5l74 203q7 22 16.5 30t24.5 8h255v-347h-381v18zM334 514l-52 -156h158v173h-87q-8 0 -11.5 -3.5t-7.5 -13.5zM158 90h10v173h381v-173h317v10h-307v260h226v10h-226v250h307v10h-572q-18 0 -29.5 -9t-21.5 -35l-74 -203q-7 -21 -9 -42t-2 -50
v-201zM272 36q0 -19 -8.5 -27.5t-27.5 -8.5h-146q-19 0 -27.5 8.5t-8.5 27.5v254q0 44 7.5 78.5t21.5 71.5l87 239q8 23 22.5 32t39.5 9h688q19 0 27.5 -8.5t8.5 -27.5v-117q0 -19 -8.5 -27.5t-27.5 -8.5h-253v-77h172q19 0 27.5 -8.5t8.5 -27.5v-107q0 -19 -8.5 -27.5
t-27.5 -8.5h-172v-86h253q19 0 27.5 -8.5t8.5 -27.5v-117q0 -19 -8.5 -27.5t-27.5 -8.5h-444q-19 0 -27.5 8.5t-8.5 27.5v140h-168v-140z" />
    <glyph glyph-name="ccedilla" unicode="&#xe7;" horiz-adv-x="628" 
d="M435 -96q-5 -16 -16 -23t-30 -7h-126q-25 0 -31 11t1 29l32 87q-105 7 -156 57t-51 146v311q0 104 60.5 154.5t185.5 50.5h244q19 0 27.5 -8.5t8.5 -27.5v-121q0 -19 -8.5 -27.5t-27.5 -8.5h-201q-31 0 -46 -12.5t-15 -37.5v-238q0 -25 15 -36.5t46 -11.5h201
q19 0 27.5 -8.5t8.5 -27.5v-119q0 -19 -8.5 -27.5t-27.5 -8.5h-79zM349 -36h10l46 126h88v10h-167q-90 0 -120 27t-30 92v280q0 66 31 93.5t119 27.5h167v10h-167q-96 0 -128 -30t-32 -101v-280q0 -69 31.5 -99t128.5 -30h68z" />
    <glyph glyph-name="egrave" unicode="&#xe8;" horiz-adv-x="654" 
d="M569 0h-464q-19 0 -27.5 8.5t-8.5 27.5v648q0 19 8.5 27.5t27.5 8.5h464q19 0 27.5 -8.5t8.5 -27.5v-117q0 -19 -8.5 -27.5t-27.5 -8.5h-276v-77h195q19 0 27.5 -8.5t8.5 -27.5v-107q0 -19 -8.5 -27.5t-27.5 -8.5h-195v-86h276q19 0 27.5 -8.5t8.5 -27.5v-117
q0 -19 -8.5 -27.5t-27.5 -8.5zM515 100h-327v259h246v10h-246v251h327v10h-337v-540h337v10zM502 753l-349 43q-19 2 -27.5 9.5t-8.5 26.5v96q0 17 8.5 26t25.5 7l349 -43q19 -2 27.5 -9.5t8.5 -26.5v-96q0 -17 -8.5 -26t-25.5 -7zM207 867l239 -30v10l-239 30v-10z" />
    <glyph glyph-name="eacute" unicode="&#xe9;" horiz-adv-x="654" 
d="M569 0h-464q-19 0 -27.5 8.5t-8.5 27.5v648q0 19 8.5 27.5t27.5 8.5h464q19 0 27.5 -8.5t8.5 -27.5v-117q0 -19 -8.5 -27.5t-27.5 -8.5h-276v-77h195q19 0 27.5 -8.5t8.5 -27.5v-107q0 -19 -8.5 -27.5t-27.5 -8.5h-195v-86h276q19 0 27.5 -8.5t8.5 -27.5v-117
q0 -19 -8.5 -27.5t-27.5 -8.5zM515 100h-327v259h246v10h-246v251h327v10h-337v-540h337v10zM530 796l-349 -43q-17 -2 -25.5 7t-8.5 26v96q0 19 8.5 26.5t27.5 9.5l349 43q17 2 25.5 -7t8.5 -26v-96q0 -19 -8.5 -26.5t-27.5 -9.5zM237 847v-10l239 30v10z" />
    <glyph glyph-name="ecircumflex" unicode="&#xea;" horiz-adv-x="654" 
d="M569 0h-464q-19 0 -27.5 8.5t-8.5 27.5v648q0 19 8.5 27.5t27.5 8.5h464q19 0 27.5 -8.5t8.5 -27.5v-117q0 -19 -8.5 -27.5t-27.5 -8.5h-276v-77h195q19 0 27.5 -8.5t8.5 -27.5v-107q0 -19 -8.5 -27.5t-27.5 -8.5h-195v-86h276q19 0 27.5 -8.5t8.5 -27.5v-117
q0 -19 -8.5 -27.5t-27.5 -8.5zM515 100h-327v259h246v10h-246v251h327v10h-337v-540h337v10zM305 797l-137 -40q-25 -8 -33 -2t-8 33v81q0 27 8.5 35t32.5 18l128 46q9 4 19.5 6t19.5 3q9 0 17 -1t15 -4l137 -50q25 -10 33.5 -18t8.5 -35v-81q0 -27 -8 -33t-34 2l-137 40
q-17 4 -31 4t-31 -4zM455 850v11l-83 27q-9 2 -17 4t-19 2t-19 -2t-17 -4l-83 -27v-11l87 28q7 2 14.5 4t17.5 2t17.5 -2t14.5 -4z" />
    <glyph glyph-name="edieresis" unicode="&#xeb;" horiz-adv-x="654" 
d="M569 0h-464q-19 0 -27.5 8.5t-8.5 27.5v648q0 19 8.5 27.5t27.5 8.5h464q19 0 27.5 -8.5t8.5 -27.5v-117q0 -19 -8.5 -27.5t-27.5 -8.5h-276v-77h195q19 0 27.5 -8.5t8.5 -27.5v-107q0 -19 -8.5 -27.5t-27.5 -8.5h-195v-86h276q19 0 27.5 -8.5t8.5 -27.5v-117
q0 -19 -8.5 -27.5t-27.5 -8.5zM515 100h-327v259h246v10h-246v251h327v10h-337v-540h337v10zM285 760h-138q-17 0 -25.5 8t-8.5 25v121q0 17 8.5 25t25.5 8h138q17 0 25 -8t8 -25v-121q0 -17 -8 -25t-25 -8zM543 760h-138q-17 0 -25 8t-8 25v121q0 17 8 25t25 8h138
q17 0 25 -8t8 -25v-121q0 -17 -8 -25t-25 -8zM221 830v47h-10v-47h10zM479 830v47h-10v-47h10z" />
    <glyph glyph-name="igrave" unicode="&#xec;" horiz-adv-x="605" 
d="M89 0q-19 0 -27.5 8.5t-8.5 27.5v119q0 19 8.5 27.5t27.5 8.5h99v336h-99q-19 0 -27.5 8.5t-8.5 27.5v121q0 19 8.5 27.5t27.5 8.5h426q19 0 27.5 -8.5t8.5 -27.5v-121q0 -19 -8.5 -27.5t-27.5 -8.5h-97v-336h97q19 0 27.5 -8.5t8.5 -27.5v-119q0 -19 -8.5 -27.5
t-27.5 -8.5h-426zM461 90v10h-153v520h153v10h-318v-10h155v-520h-155v-10h318zM477 753l-349 43q-19 2 -27.5 9.5t-8.5 26.5v96q0 17 8.5 26t25.5 7l349 -43q19 -2 27.5 -9.5t8.5 -26.5v-96q0 -17 -8.5 -26t-25.5 -7zM182 867l239 -30v10l-239 30v-10z" />
    <glyph glyph-name="iacute" unicode="&#xed;" horiz-adv-x="605" 
d="M89 0q-19 0 -27.5 8.5t-8.5 27.5v119q0 19 8.5 27.5t27.5 8.5h99v336h-99q-19 0 -27.5 8.5t-8.5 27.5v121q0 19 8.5 27.5t27.5 8.5h426q19 0 27.5 -8.5t8.5 -27.5v-121q0 -19 -8.5 -27.5t-27.5 -8.5h-97v-336h97q19 0 27.5 -8.5t8.5 -27.5v-119q0 -19 -8.5 -27.5
t-27.5 -8.5h-426zM461 90v10h-153v520h153v10h-318v-10h155v-520h-155v-10h318zM475 796l-349 -43q-17 -2 -25.5 7t-8.5 26v96q0 19 8.5 26.5t27.5 9.5l349 43q17 2 25.5 -7t8.5 -26v-96q0 -19 -8.5 -26.5t-27.5 -9.5zM182 847v-10l239 30v10z" />
    <glyph glyph-name="icircumflex" unicode="&#xee;" horiz-adv-x="605" 
d="M89 0q-19 0 -27.5 8.5t-8.5 27.5v119q0 19 8.5 27.5t27.5 8.5h99v336h-99q-19 0 -27.5 8.5t-8.5 27.5v121q0 19 8.5 27.5t27.5 8.5h426q19 0 27.5 -8.5t8.5 -27.5v-121q0 -19 -8.5 -27.5t-27.5 -8.5h-97v-336h97q19 0 27.5 -8.5t8.5 -27.5v-119q0 -19 -8.5 -27.5
t-27.5 -8.5h-426zM461 90v10h-153v520h153v10h-318v-10h155v-520h-155v-10h318zM270 797l-137 -40q-25 -8 -33 -2t-8 33v81q0 27 8.5 35t32.5 18l128 46q9 4 19.5 6t19.5 3q9 0 17 -1t15 -4l137 -50q25 -10 33.5 -18t8.5 -35v-81q0 -27 -8 -33t-34 2l-137 40q-17 4 -31 4
t-31 -4zM420 850v11l-83 27q-9 2 -17 4t-19 2t-19 -2t-17 -4l-83 -27v-11l87 28q7 2 14.5 4t17.5 2t17.5 -2t14.5 -4z" />
    <glyph glyph-name="idieresis" unicode="&#xef;" horiz-adv-x="605" 
d="M89 0q-19 0 -27.5 8.5t-8.5 27.5v119q0 19 8.5 27.5t27.5 8.5h99v336h-99q-19 0 -27.5 8.5t-8.5 27.5v121q0 19 8.5 27.5t27.5 8.5h426q19 0 27.5 -8.5t8.5 -27.5v-121q0 -19 -8.5 -27.5t-27.5 -8.5h-97v-336h97q19 0 27.5 -8.5t8.5 -27.5v-119q0 -19 -8.5 -27.5
t-27.5 -8.5h-426zM461 90v10h-153v520h153v10h-318v-10h155v-520h-155v-10h318zM240 760h-138q-17 0 -25.5 8t-8.5 25v121q0 17 8.5 25t25.5 8h138q17 0 25 -8t8 -25v-121q0 -17 -8 -25t-25 -8zM498 760h-138q-17 0 -25 8t-8 25v121q0 17 8 25t25 8h138q17 0 25 -8t8 -25
v-121q0 -17 -8 -25t-25 -8zM176 830v47h-10v-47h10zM434 830v47h-10v-47h10z" />
    <glyph glyph-name="eth" unicode="&#xf0;" horiz-adv-x="756" 
d="M452 0h-337q-19 0 -27.5 8.5t-8.5 27.5v229h-23q-19 0 -27.5 8.5t-8.5 27.5v107q0 19 8.5 27.5t27.5 8.5h23v240q0 19 8.5 27.5t27.5 8.5h337q141 0 193.5 -57t52.5 -147v-312q0 -90 -52.5 -147t-193.5 -57zM186 90h244q51 0 83 10.5t49 28.5t22.5 43t5.5 54v265
q0 29 -6 54.5t-23 44t-48.5 29.5t-82.5 11h-244v-271h-76v-10h76v-259zM290 349v10h-94v261h234q47 0 76.5 -10t45.5 -27t22 -41t6 -51v-265q0 -27 -5.5 -50.5t-21.5 -40t-45.5 -26t-77.5 -9.5h-234v249h94zM303 189h122q30 0 38.5 14.5t8.5 34.5v243q0 19 -8.5 33.5
t-38.5 14.5h-122v-85h41q19 0 27.5 -8.5t8.5 -27.5v-107q0 -19 -8.5 -27.5t-27.5 -8.5h-41v-76z" />
    <glyph glyph-name="ntilde" unicode="&#xf1;" horiz-adv-x="753" 
d="M201 622q-5 5 -8 7t-7 2t-8 -3t-4 -9v-529h10v527q0 1 0.5 2t1.5 1t2.5 -1t2.5 -2l378 -424v-103h10v540h-10v-422zM255 0h-150q-19 0 -27.5 8.5t-8.5 27.5v648q0 19 8.5 27.5t27.5 8.5h104q19 0 32.5 -6t26.5 -21l194 -222v213q0 19 8.5 27.5t27.5 8.5h150
q19 0 27.5 -8.5t8.5 -27.5v-648q0 -19 -8.5 -27.5t-27.5 -8.5h-150q-19 0 -27.5 8.5t-8.5 27.5v123l-171 207v-330q0 -19 -8.5 -27.5t-27.5 -8.5zM375 764l-28 4q-28 4 -47 5.5t-34 0t-29.5 -5t-34.5 -9.5q-18 -5 -27 1t-9 25v101q0 19 9.5 26.5t26.5 14.5q24 7 40 10.5
t31.5 3.5t35 -2.5t49.5 -6.5l17 -2l22 -3q33 -5 52.5 -7t34 -1t28.5 5t36 11q18 5 27 -1t9 -25v-101q0 -19 -9.5 -26.5t-26.5 -14.5q-24 -7 -40 -10.5t-32 -3.5t-35.5 2.5t-49.5 6.5zM494 841q-20 -2 -42 0t-60 8l-16 2l-28 4q-34 4 -54.5 5.5t-37.5 -0.5v-11q16 3 36.5 2
t53.5 -6l28 -4l16 -2q38 -6 61 -8t43 0v10z" />
    <glyph glyph-name="ograve" unicode="&#xf2;" horiz-adv-x="737" 
d="M679 189q0 -46 -13.5 -83.5t-48 -64t-95 -41.5t-153.5 -15t-154 15t-95.5 41.5t-48 64t-13.5 83.5v341q0 46 13.5 83.5t48 64.5t95.5 42t154 15t153.5 -15t95 -42t48 -64.5t13.5 -83.5v-341zM570 212v295q0 60 -43 97.5t-160 37.5t-159 -37.5t-42 -97.5v-295
q0 -60 42 -97.5t159 -37.5t160 37.5t43 97.5zM176 212v295q0 56 40 90.5t151 34.5t152 -34.5t41 -90.5v-295q0 -56 -41 -90.5t-152 -34.5t-151 34.5t-40 90.5zM285 225q0 -20 15 -33.5t69 -13.5t69 13.5t15 33.5v269q0 19 -15 32.5t-69 13.5t-69 -13.5t-15 -32.5v-269z
M543 753l-349 43q-19 2 -27.5 9.5t-8.5 26.5v96q0 17 8.5 26t25.5 7l349 -43q19 -2 27.5 -9.5t8.5 -26.5v-96q0 -17 -8.5 -26t-25.5 -7zM248 867l239 -30v10l-239 30v-10z" />
    <glyph glyph-name="oacute" unicode="&#xf3;" horiz-adv-x="737" 
d="M679 189q0 -46 -13.5 -83.5t-48 -64t-95 -41.5t-153.5 -15t-154 15t-95.5 41.5t-48 64t-13.5 83.5v341q0 46 13.5 83.5t48 64.5t95.5 42t154 15t153.5 -15t95 -42t48 -64.5t13.5 -83.5v-341zM570 212v295q0 60 -43 97.5t-160 37.5t-159 -37.5t-42 -97.5v-295
q0 -60 42 -97.5t159 -37.5t160 37.5t43 97.5zM176 212v295q0 56 40 90.5t151 34.5t152 -34.5t41 -90.5v-295q0 -56 -41 -90.5t-152 -34.5t-151 34.5t-40 90.5zM285 225q0 -20 15 -33.5t69 -13.5t69 13.5t15 33.5v269q0 19 -15 32.5t-69 13.5t-69 -13.5t-15 -32.5v-269z
M541 796l-349 -43q-17 -2 -25.5 7t-8.5 26v96q0 19 8.5 26.5t27.5 9.5l349 43q17 2 25.5 -7t8.5 -26v-96q0 -19 -8.5 -26.5t-27.5 -9.5zM248 847v-10l239 30v10z" />
    <glyph glyph-name="ocircumflex" unicode="&#xf4;" horiz-adv-x="737" 
d="M679 189q0 -46 -13.5 -83.5t-48 -64t-95 -41.5t-153.5 -15t-154 15t-95.5 41.5t-48 64t-13.5 83.5v341q0 46 13.5 83.5t48 64.5t95.5 42t154 15t153.5 -15t95 -42t48 -64.5t13.5 -83.5v-341zM570 212v295q0 60 -43 97.5t-160 37.5t-159 -37.5t-42 -97.5v-295
q0 -60 42 -97.5t159 -37.5t160 37.5t43 97.5zM176 212v295q0 56 40 90.5t151 34.5t152 -34.5t41 -90.5v-295q0 -56 -41 -90.5t-152 -34.5t-151 34.5t-40 90.5zM285 225q0 -20 15 -33.5t69 -13.5t69 13.5t15 33.5v269q0 19 -15 32.5t-69 13.5t-69 -13.5t-15 -32.5v-269z
M336 797l-137 -40q-25 -8 -33 -2t-8 33v81q0 27 8.5 35t32.5 18l128 46q9 4 19.5 6t19.5 3q9 0 17 -1t15 -4l137 -50q25 -10 33.5 -18t8.5 -35v-81q0 -27 -8 -33t-34 2l-137 40q-17 4 -31 4t-31 -4zM486 850v11l-83 27q-9 2 -17 4t-19 2t-19 -2t-17 -4l-83 -27v-11l87 28
q7 2 14.5 4t17.5 2t17.5 -2t14.5 -4z" />
    <glyph glyph-name="otilde" unicode="&#xf5;" horiz-adv-x="737" 
d="M679 189q0 -46 -13.5 -83.5t-48 -64t-95 -41.5t-153.5 -15t-154 15t-95.5 41.5t-48 64t-13.5 83.5v341q0 46 13.5 83.5t48 64.5t95.5 42t154 15t153.5 -15t95 -42t48 -64.5t13.5 -83.5v-341zM570 212v295q0 60 -43 97.5t-160 37.5t-159 -37.5t-42 -97.5v-295
q0 -60 42 -97.5t159 -37.5t160 37.5t43 97.5zM176 212v295q0 56 40 90.5t151 34.5t152 -34.5t41 -90.5v-295q0 -56 -41 -90.5t-152 -34.5t-151 34.5t-40 90.5zM285 225q0 -20 15 -33.5t69 -13.5t69 13.5t15 33.5v269q0 19 -15 32.5t-69 13.5t-69 -13.5t-15 -32.5v-269z
M367 764l-28 4q-28 4 -47 5.5t-34 0t-29.5 -5t-34.5 -9.5q-18 -5 -27 1t-9 25v101q0 19 9.5 26.5t26.5 14.5q24 7 40 10.5t31.5 3.5t35 -2.5t49.5 -6.5l17 -2l22 -3q33 -5 52.5 -7t34 -1t28.5 5t36 11q18 5 27 -1t9 -25v-101q0 -19 -9.5 -26.5t-26.5 -14.5q-24 -7 -40 -10.5
t-32 -3.5t-35.5 2.5t-49.5 6.5zM486 841q-20 -2 -42 0t-60 8l-16 2l-28 4q-34 4 -54.5 5.5t-37.5 -0.5v-11q16 3 36.5 2t53.5 -6l28 -4l16 -2q38 -6 61 -8t43 0v10z" />
    <glyph glyph-name="odieresis" unicode="&#xf6;" horiz-adv-x="737" 
d="M679 189q0 -46 -13.5 -83.5t-48 -64t-95 -41.5t-153.5 -15t-154 15t-95.5 41.5t-48 64t-13.5 83.5v341q0 46 13.5 83.5t48 64.5t95.5 42t154 15t153.5 -15t95 -42t48 -64.5t13.5 -83.5v-341zM570 212v295q0 60 -43 97.5t-160 37.5t-159 -37.5t-42 -97.5v-295
q0 -60 42 -97.5t159 -37.5t160 37.5t43 97.5zM176 212v295q0 56 40 90.5t151 34.5t152 -34.5t41 -90.5v-295q0 -56 -41 -90.5t-152 -34.5t-151 34.5t-40 90.5zM285 225q0 -20 15 -33.5t69 -13.5t69 13.5t15 33.5v269q0 19 -15 32.5t-69 13.5t-69 -13.5t-15 -32.5v-269z
M306 760h-138q-17 0 -25.5 8t-8.5 25v121q0 17 8.5 25t25.5 8h138q17 0 25 -8t8 -25v-121q0 -17 -8 -25t-25 -8zM564 760h-138q-17 0 -25 8t-8 25v121q0 17 8 25t25 8h138q17 0 25 -8t8 -25v-121q0 -17 -8 -25t-25 -8zM242 830v47h-10v-47h10zM500 830v47h-10v-47h10z" />
    <glyph glyph-name="divide" unicode="&#xf7;" horiz-adv-x="734" 
d="M448 483h-162q-19 0 -27.5 8.5t-8.5 27.5v123q0 19 8.5 27.5t27.5 8.5h162q19 0 27.5 -8.5t8.5 -27.5v-123q0 -19 -8.5 -27.5t-27.5 -8.5zM362 558h10v45h-10v-45zM106 277q-19 0 -27.5 8.5t-8.5 27.5v94q0 19 8.5 27.5t27.5 8.5h522q19 0 27.5 -8.5t8.5 -27.5v-94
q0 -19 -8.5 -27.5t-27.5 -8.5h-522zM160 355h414v10h-414v-10zM448 42h-162q-19 0 -27.5 8.5t-8.5 27.5v123q0 19 8.5 27.5t27.5 8.5h162q19 0 27.5 -8.5t8.5 -27.5v-123q0 -19 -8.5 -27.5t-27.5 -8.5zM362 117h10v45h-10v-45z" />
    <glyph glyph-name="oslash" unicode="&#xf8;" horiz-adv-x="737" 
d="M166 212v295q0 28 9 51t32 39.5t62 25.5t98 9q33 0 59.5 -3t47.5 -8l-221 -521q-50 14 -68.5 43.5t-18.5 68.5zM367 87q-32 0 -58 3t-46 7l220 521q49 -14 68 -43t19 -68v-295q0 -56 -42 -90.5t-161 -34.5zM265 494v-217l116 273h-12q-67 0 -85.5 -16t-18.5 -40zM369 168
q68 0 86 16t18 41v221l-118 -278h14zM230 20l29 68q21 -5 48 -8t60 -3q62 0 103.5 9.5t65.5 27.5t34 43t10 55v295q0 42 -20 73.5t-73 47.5l31 72h-11l-29 -69q-22 5 -49.5 8t-61.5 3q-62 0 -103 -9.5t-65 -27.5t-33.5 -43t-9.5 -55v-295q0 -43 20 -74.5t73 -46.5l-30 -71
h11zM295 -34q-9 -16 -18 -26t-28 -10h-115q-19 0 -27 10t1 26l27 65q-43 27 -60 67.5t-17 90.5v341q0 46 13.5 83.5t48 64.5t95.5 42t154 15q17 0 33 -0.5t31 -1.5l9 21q9 16 18 26t28 10h115q19 0 27 -10t-1 -26l-27 -65q44 -27 60.5 -67.5t16.5 -91.5v-341
q0 -46 -13.5 -83.5t-48 -64t-95 -41.5t-153.5 -15q-17 0 -33.5 0.5t-31.5 1.5z" />
    <glyph glyph-name="ugrave" unicode="&#xf9;" horiz-adv-x="746" 
d="M682 189q0 -46 -13.5 -83.5t-48 -64t-94.5 -41.5t-153 -15t-153 15t-94.5 41.5t-48 64t-13.5 83.5v495q0 19 8.5 27.5t27.5 8.5h157q19 0 27.5 -8.5t8.5 -27.5v-456q0 -20 15 -33.5t67 -13.5q53 0 68 13.5t15 33.5v456q0 19 8.5 27.5t27.5 8.5h152q19 0 27.5 -8.5
t8.5 -27.5v-495zM174 630v-417q0 -60 41.5 -97.5t158.5 -37.5t159 37.5t42 97.5v417h-10v-417q0 -56 -40 -90.5t-151 -34.5t-150.5 34.5t-39.5 90.5v417h-10zM538 753l-349 43q-19 2 -27.5 9.5t-8.5 26.5v96q0 17 8.5 26t25.5 7l349 -43q19 -2 27.5 -9.5t8.5 -26.5v-96
q0 -17 -8.5 -26t-25.5 -7zM243 867l239 -30v10l-239 30v-10z" />
    <glyph glyph-name="uacute" unicode="&#xfa;" horiz-adv-x="746" 
d="M682 189q0 -46 -13.5 -83.5t-48 -64t-94.5 -41.5t-153 -15t-153 15t-94.5 41.5t-48 64t-13.5 83.5v495q0 19 8.5 27.5t27.5 8.5h157q19 0 27.5 -8.5t8.5 -27.5v-456q0 -20 15 -33.5t67 -13.5q53 0 68 13.5t15 33.5v456q0 19 8.5 27.5t27.5 8.5h152q19 0 27.5 -8.5
t8.5 -27.5v-495zM174 630v-417q0 -60 41.5 -97.5t158.5 -37.5t159 37.5t42 97.5v417h-10v-417q0 -56 -40 -90.5t-151 -34.5t-150.5 34.5t-39.5 90.5v417h-10zM556 796l-349 -43q-17 -2 -25.5 7t-8.5 26v96q0 19 8.5 26.5t27.5 9.5l349 43q17 2 25.5 -7t8.5 -26v-96
q0 -19 -8.5 -26.5t-27.5 -9.5zM263 847v-10l239 30v10z" />
    <glyph glyph-name="ucircumflex" unicode="&#xfb;" horiz-adv-x="746" 
d="M682 189q0 -46 -13.5 -83.5t-48 -64t-94.5 -41.5t-153 -15t-153 15t-94.5 41.5t-48 64t-13.5 83.5v495q0 19 8.5 27.5t27.5 8.5h157q19 0 27.5 -8.5t8.5 -27.5v-456q0 -20 15 -33.5t67 -13.5q53 0 68 13.5t15 33.5v456q0 19 8.5 27.5t27.5 8.5h152q19 0 27.5 -8.5
t8.5 -27.5v-495zM174 630v-417q0 -60 41.5 -97.5t158.5 -37.5t159 37.5t42 97.5v417h-10v-417q0 -56 -40 -90.5t-151 -34.5t-150.5 34.5t-39.5 90.5v417h-10zM341 797l-137 -40q-25 -8 -33 -2t-8 33v81q0 27 8.5 35t32.5 18l128 46q9 4 19.5 6t19.5 3q9 0 17 -1t15 -4
l137 -50q25 -10 33.5 -18t8.5 -35v-81q0 -27 -8 -33t-34 2l-137 40q-17 4 -31 4t-31 -4zM491 850v11l-83 27q-9 2 -17 4t-19 2t-19 -2t-17 -4l-83 -27v-11l87 28q7 2 14.5 4t17.5 2t17.5 -2t14.5 -4z" />
    <glyph glyph-name="udieresis" unicode="&#xfc;" horiz-adv-x="746" 
d="M682 189q0 -46 -13.5 -83.5t-48 -64t-94.5 -41.5t-153 -15t-153 15t-94.5 41.5t-48 64t-13.5 83.5v495q0 19 8.5 27.5t27.5 8.5h157q19 0 27.5 -8.5t8.5 -27.5v-456q0 -20 15 -33.5t67 -13.5q53 0 68 13.5t15 33.5v456q0 19 8.5 27.5t27.5 8.5h152q19 0 27.5 -8.5
t8.5 -27.5v-495zM174 630v-417q0 -60 41.5 -97.5t158.5 -37.5t159 37.5t42 97.5v417h-10v-417q0 -56 -40 -90.5t-151 -34.5t-150.5 34.5t-39.5 90.5v417h-10zM311 760h-138q-17 0 -25.5 8t-8.5 25v121q0 17 8.5 25t25.5 8h138q17 0 25 -8t8 -25v-121q0 -17 -8 -25t-25 -8z
M569 760h-138q-17 0 -25 8t-8 25v121q0 17 8 25t25 8h138q17 0 25 -8t8 -25v-121q0 -17 -8 -25t-25 -8zM247 830v47h-10v-47h10zM505 830v47h-10v-47h10z" />
    <glyph glyph-name="yacute" unicode="&#xfd;" horiz-adv-x="705" 
d="M434 0h-162q-19 0 -27.5 8.5t-8.5 27.5v128l-153 205q-23 31 -30.5 54t-7.5 69v192q0 19 8.5 27.5t27.5 8.5h154q19 0 27.5 -8.5t8.5 -27.5v-164q0 -10 1 -21t8 -21l46 -72q5 -9 10.5 -13t13.5 -4h10q8 0 13.5 4t10.5 13l46 72q7 10 8 21t1 21v164q0 19 8.5 27.5
t27.5 8.5h149q19 0 27.5 -8.5t8.5 -27.5v-192q0 -46 -8 -69t-30 -54l-152 -206v-127q0 -19 -8.5 -27.5t-27.5 -8.5zM365 261q23 0 40.5 10t33.5 32l100 135q12 16 13.5 35.5t1.5 41.5v115h-10v-115q0 -21 -2 -40.5t-12 -32.5l-100 -135q-15 -19 -30.5 -27.5t-34.5 -8.5h-27
q-17 0 -34 8t-30 28l-97 135q-10 15 -12 33.5t-2 39.5v115h-10v-115q0 -22 2 -42t13 -35l97 -135q16 -22 33.5 -32t39.5 -10h10v-171h10v171h7zM535 796l-349 -43q-17 -2 -25.5 7t-8.5 26v96q0 19 8.5 26.5t27.5 9.5l349 43q17 2 25.5 -7t8.5 -26v-96q0 -19 -8.5 -26.5
t-27.5 -9.5zM242 847v-10l239 30v10z" />
    <glyph glyph-name="thorn" unicode="&#xfe;" horiz-adv-x="692" 
d="M260 0h-155q-19 0 -27.5 8.5t-8.5 27.5v648q0 19 8.5 27.5t27.5 8.5h155q19 0 27.5 -8.5t8.5 -27.5v-64h115q136 0 186 -54t50 -141v-128q0 -87 -50 -141t-186 -54h-115v-66q0 -19 -8.5 -27.5t-27.5 -8.5zM177 90h10v97h206q47 0 76.5 10t45.5 27.5t22 42t6 53.5v75
q0 29 -6 54t-22 43t-45.5 28.5t-76.5 10.5h-206v99h-10v-540zM187 197v324h206q44 0 71.5 -9.5t42.5 -26.5t20.5 -40t5.5 -50v-75q0 -27 -5.5 -49.5t-20.5 -39t-42.5 -25.5t-71.5 -9h-206zM294 433v-151h90q29 0 38 15t9 34v53q0 19 -9 34t-38 15h-90z" />
    <glyph glyph-name="ydieresis" unicode="&#xff;" horiz-adv-x="705" 
d="M434 0h-162q-19 0 -27.5 8.5t-8.5 27.5v128l-153 205q-23 31 -30.5 54t-7.5 69v192q0 19 8.5 27.5t27.5 8.5h154q19 0 27.5 -8.5t8.5 -27.5v-164q0 -10 1 -21t8 -21l46 -72q5 -9 10.5 -13t13.5 -4h10q8 0 13.5 4t10.5 13l46 72q7 10 8 21t1 21v164q0 19 8.5 27.5
t27.5 8.5h149q19 0 27.5 -8.5t8.5 -27.5v-192q0 -46 -8 -69t-30 -54l-152 -206v-127q0 -19 -8.5 -27.5t-27.5 -8.5zM365 261q23 0 40.5 10t33.5 32l100 135q12 16 13.5 35.5t1.5 41.5v115h-10v-115q0 -21 -2 -40.5t-12 -32.5l-100 -135q-15 -19 -30.5 -27.5t-34.5 -8.5h-27
q-17 0 -34 8t-30 28l-97 135q-10 15 -12 33.5t-2 39.5v115h-10v-115q0 -22 2 -42t13 -35l97 -135q16 -22 33.5 -32t39.5 -10h10v-171h10v171h7zM290 760h-138q-17 0 -25.5 8t-8.5 25v121q0 17 8.5 25t25.5 8h138q17 0 25 -8t8 -25v-121q0 -17 -8 -25t-25 -8zM548 760h-138
q-17 0 -25 8t-8 25v121q0 17 8 25t25 8h138q17 0 25 -8t8 -25v-121q0 -17 -8 -25t-25 -8zM226 830v47h-10v-47h10zM484 830v47h-10v-47h10z" />
    <glyph glyph-name="Amacron" unicode="&#x100;" horiz-adv-x="730" 
d="M170 303q0 27 4.5 50t11.5 43l64 164q10 25 22 42.5t42 17.5h98q28 0 40 -17.5t23 -43.5l69 -163q7 -20 11.5 -43t4.5 -50v-31h-390v31zM330 510l-47 -152h157l-47 152q-4 9 -8.5 13t-10.5 4h-25q-6 0 -10.5 -4t-8.5 -13zM560 90h10v213q0 28 -4.5 51.5t-12.5 45.5
l-69 163q-12 29 -25.5 48t-46.5 19h-98q-34 0 -48 -19t-25 -47l-64 -164q-8 -22 -12.5 -45.5t-4.5 -51.5v-213h10v172h390v-172zM273 36q0 -19 -8.5 -27.5t-27.5 -8.5h-147q-19 0 -27.5 8.5t-8.5 27.5v264q0 30 9.5 69t29.5 91l87 227q6 17 18.5 25t32.5 8h269q19 0 31.5 -8
t18.5 -25l87 -227q20 -52 29.5 -91t9.5 -69v-264q0 -19 -8.5 -27.5t-27.5 -8.5h-151q-20 0 -29.5 8.5t-9.5 27.5v140h-177v-140zM538 760h-347q-19 0 -27.5 8.5t-8.5 27.5v93q0 19 8.5 27.5t27.5 8.5h347q19 0 27.5 -8.5t8.5 -27.5v-93q0 -19 -8.5 -27.5t-27.5 -8.5z
M245 847v-10h239v10h-239z" />
    <glyph glyph-name="amacron" unicode="&#x101;" horiz-adv-x="730" 
d="M170 303q0 27 4.5 50t11.5 43l64 164q10 25 22 42.5t42 17.5h98q28 0 40 -17.5t23 -43.5l69 -163q7 -20 11.5 -43t4.5 -50v-31h-390v31zM330 510l-47 -152h157l-47 152q-4 9 -8.5 13t-10.5 4h-25q-6 0 -10.5 -4t-8.5 -13zM560 90h10v213q0 28 -4.5 51.5t-12.5 45.5
l-69 163q-12 29 -25.5 48t-46.5 19h-98q-34 0 -48 -19t-25 -47l-64 -164q-8 -22 -12.5 -45.5t-4.5 -51.5v-213h10v172h390v-172zM273 36q0 -19 -8.5 -27.5t-27.5 -8.5h-147q-19 0 -27.5 8.5t-8.5 27.5v264q0 30 9.5 69t29.5 91l87 227q6 17 18.5 25t32.5 8h269q19 0 31.5 -8
t18.5 -25l87 -227q20 -52 29.5 -91t9.5 -69v-264q0 -19 -8.5 -27.5t-27.5 -8.5h-151q-20 0 -29.5 8.5t-9.5 27.5v140h-177v-140zM538 760h-347q-19 0 -27.5 8.5t-8.5 27.5v93q0 19 8.5 27.5t27.5 8.5h347q19 0 27.5 -8.5t8.5 -27.5v-93q0 -19 -8.5 -27.5t-27.5 -8.5z
M245 847v-10h239v10h-239z" />
    <glyph glyph-name="Abreve" unicode="&#x102;" horiz-adv-x="730" 
d="M170 303q0 27 4.5 50t11.5 43l64 164q10 25 22 42.5t42 17.5h98q28 0 40 -17.5t23 -43.5l69 -163q7 -20 11.5 -43t4.5 -50v-31h-390v31zM330 510l-47 -152h157l-47 152q-4 9 -8.5 13t-10.5 4h-25q-6 0 -10.5 -4t-8.5 -13zM560 90h10v213q0 28 -4.5 51.5t-12.5 45.5
l-69 163q-12 29 -25.5 48t-46.5 19h-98q-34 0 -48 -19t-25 -47l-64 -164q-8 -22 -12.5 -45.5t-4.5 -51.5v-213h10v172h390v-172zM273 36q0 -19 -8.5 -27.5t-27.5 -8.5h-147q-19 0 -27.5 8.5t-8.5 27.5v264q0 30 9.5 69t29.5 91l87 227q6 17 18.5 25t32.5 8h269q19 0 31.5 -8
t18.5 -25l87 -227q20 -52 29.5 -91t9.5 -69v-264q0 -19 -8.5 -27.5t-27.5 -8.5h-151q-20 0 -29.5 8.5t-9.5 27.5v140h-177v-140zM582 897q0 -32 -9.5 -58.5t-34 -45t-66.5 -29t-107 -10.5t-107 10.5t-66.5 29t-34 45t-9.5 58.5v44q0 19 8.5 27.5t27.5 8.5h96q16 0 22.5 -6.5
t6.5 -24.5v-21q0 -14 10 -23.5t47 -9.5t48 9.5t11 23.5v21q0 18 6.5 24.5t23.5 6.5h91q19 0 27.5 -8.5t8.5 -27.5v-44zM499 907v-9q0 -27 -27 -48.5t-108 -21.5t-105.5 21.5t-24.5 48.5v9h-10v-9q0 -14 4.5 -28.5t19 -26t42.5 -18.5t74 -7t75 7t44 18.5t20.5 26t5.5 28.5v9
h-10z" />
    <glyph glyph-name="abreve" unicode="&#x103;" horiz-adv-x="730" 
d="M170 303q0 27 4.5 50t11.5 43l64 164q10 25 22 42.5t42 17.5h98q28 0 40 -17.5t23 -43.5l69 -163q7 -20 11.5 -43t4.5 -50v-31h-390v31zM330 510l-47 -152h157l-47 152q-4 9 -8.5 13t-10.5 4h-25q-6 0 -10.5 -4t-8.5 -13zM560 90h10v213q0 28 -4.5 51.5t-12.5 45.5
l-69 163q-12 29 -25.5 48t-46.5 19h-98q-34 0 -48 -19t-25 -47l-64 -164q-8 -22 -12.5 -45.5t-4.5 -51.5v-213h10v172h390v-172zM273 36q0 -19 -8.5 -27.5t-27.5 -8.5h-147q-19 0 -27.5 8.5t-8.5 27.5v264q0 30 9.5 69t29.5 91l87 227q6 17 18.5 25t32.5 8h269q19 0 31.5 -8
t18.5 -25l87 -227q20 -52 29.5 -91t9.5 -69v-264q0 -19 -8.5 -27.5t-27.5 -8.5h-151q-20 0 -29.5 8.5t-9.5 27.5v140h-177v-140zM582 897q0 -32 -9.5 -58.5t-34 -45t-66.5 -29t-107 -10.5t-107 10.5t-66.5 29t-34 45t-9.5 58.5v44q0 19 8.5 27.5t27.5 8.5h96q16 0 22.5 -6.5
t6.5 -24.5v-21q0 -14 10 -23.5t47 -9.5t48 9.5t11 23.5v21q0 18 6.5 24.5t23.5 6.5h91q19 0 27.5 -8.5t8.5 -27.5v-44zM499 907v-9q0 -27 -27 -48.5t-108 -21.5t-105.5 21.5t-24.5 48.5v9h-10v-9q0 -14 4.5 -28.5t19 -26t42.5 -18.5t74 -7t75 7t44 18.5t20.5 26t5.5 28.5v9
h-10z" />
    <glyph glyph-name="Aogonek" unicode="&#x104;" horiz-adv-x="730" 
d="M676 -152q0 -19 -7 -26.5t-26 -7.5h-111q-64 0 -87.5 33t-13.5 102l19 107v120h-177v-140q0 -19 -8.5 -27.5t-27.5 -8.5h-147q-19 0 -27.5 8.5t-8.5 27.5v264q0 30 9.5 69t29.5 91l87 227q6 17 18.5 25t32.5 8h269q19 0 31.5 -8t18.5 -25l87 -227q20 -52 29.5 -91
t9.5 -69v-264q0 -19 -8.5 -27.5t-27.5 -8.5h-34l-7 -46h41q21 0 28.5 -7.5t7.5 -26.5v-72zM562 -116h24v10h-24q-31 0 -38 16.5t-3 46.5l12 85q3 22 8.5 30t24.5 18h4v213q0 28 -4.5 51.5t-12.5 45.5l-69 163q-12 29 -25.5 48t-46.5 19h-98q-34 0 -48 -19t-25 -47l-64 -164
q-8 -22 -12.5 -45.5t-4.5 -51.5v-213h10v172h390v-164q-21 -12 -27 -22t-10 -34l-12 -83q-6 -37 4 -56t47 -19zM170 303q0 27 4.5 50t11.5 43l64 164q10 25 22 42.5t42 17.5h98q28 0 40 -17.5t23 -43.5l69 -163q7 -20 11.5 -43t4.5 -50v-31h-390v31zM330 510l-47 -152h157
l-47 152q-4 9 -8.5 13t-10.5 4h-25q-6 0 -10.5 -4t-8.5 -13z" />
    <glyph glyph-name="aogonek" unicode="&#x105;" horiz-adv-x="730" 
d="M676 -152q0 -19 -7 -26.5t-26 -7.5h-111q-64 0 -87.5 33t-13.5 102l19 107v120h-177v-140q0 -19 -8.5 -27.5t-27.5 -8.5h-147q-19 0 -27.5 8.5t-8.5 27.5v264q0 30 9.5 69t29.5 91l87 227q6 17 18.5 25t32.5 8h269q19 0 31.5 -8t18.5 -25l87 -227q20 -52 29.5 -91
t9.5 -69v-264q0 -19 -8.5 -27.5t-27.5 -8.5h-34l-7 -46h41q21 0 28.5 -7.5t7.5 -26.5v-72zM562 -116h24v10h-24q-31 0 -38 16.5t-3 46.5l12 85q3 22 8.5 30t24.5 18h4v213q0 28 -4.5 51.5t-12.5 45.5l-69 163q-12 29 -25.5 48t-46.5 19h-98q-34 0 -48 -19t-25 -47l-64 -164
q-8 -22 -12.5 -45.5t-4.5 -51.5v-213h10v172h390v-164q-21 -12 -27 -22t-10 -34l-12 -83q-6 -37 4 -56t47 -19zM170 303q0 27 4.5 50t11.5 43l64 164q10 25 22 42.5t42 17.5h98q28 0 40 -17.5t23 -43.5l69 -163q7 -20 11.5 -43t4.5 -50v-31h-390v31zM330 510l-47 -152h157
l-47 152q-4 9 -8.5 13t-10.5 4h-25q-6 0 -10.5 -4t-8.5 -13z" />
    <glyph glyph-name="Cacute" unicode="&#x106;" horiz-adv-x="628" 
d="M548 0h-244q-125 0 -185.5 50t-60.5 154v311q0 104 60.5 154.5t185.5 50.5h244q19 0 27.5 -8.5t8.5 -27.5v-121q0 -19 -8.5 -27.5t-27.5 -8.5h-201q-31 0 -46 -12.5t-15 -37.5v-238q0 -25 15 -36.5t46 -11.5h201q19 0 27.5 -8.5t8.5 -27.5v-119q0 -19 -8.5 -27.5
t-27.5 -8.5zM493 100h-167q-90 0 -120 27t-30 92v280q0 66 31 93.5t119 27.5h167v10h-167q-96 0 -128 -30t-32 -101v-280q0 -69 31.5 -99t128.5 -30h167v10zM548 796l-349 -43q-17 -2 -25.5 7t-8.5 26v96q0 19 8.5 26.5t27.5 9.5l349 43q17 2 25.5 -7t8.5 -26v-96
q0 -19 -8.5 -26.5t-27.5 -9.5zM255 847v-10l239 30v10z" />
    <glyph glyph-name="cacute" unicode="&#x107;" horiz-adv-x="628" 
d="M548 0h-244q-125 0 -185.5 50t-60.5 154v311q0 104 60.5 154.5t185.5 50.5h244q19 0 27.5 -8.5t8.5 -27.5v-121q0 -19 -8.5 -27.5t-27.5 -8.5h-201q-31 0 -46 -12.5t-15 -37.5v-238q0 -25 15 -36.5t46 -11.5h201q19 0 27.5 -8.5t8.5 -27.5v-119q0 -19 -8.5 -27.5
t-27.5 -8.5zM493 100h-167q-90 0 -120 27t-30 92v280q0 66 31 93.5t119 27.5h167v10h-167q-96 0 -128 -30t-32 -101v-280q0 -69 31.5 -99t128.5 -30h167v10zM548 796l-349 -43q-17 -2 -25.5 7t-8.5 26v96q0 19 8.5 26.5t27.5 9.5l349 43q17 2 25.5 -7t8.5 -26v-96
q0 -19 -8.5 -26.5t-27.5 -9.5zM255 847v-10l239 30v10z" />
    <glyph glyph-name="Ccircumflex" unicode="&#x108;" horiz-adv-x="628" 
d="M548 0h-244q-125 0 -185.5 50t-60.5 154v311q0 104 60.5 154.5t185.5 50.5h244q19 0 27.5 -8.5t8.5 -27.5v-121q0 -19 -8.5 -27.5t-27.5 -8.5h-201q-31 0 -46 -12.5t-15 -37.5v-238q0 -25 15 -36.5t46 -11.5h201q19 0 27.5 -8.5t8.5 -27.5v-119q0 -19 -8.5 -27.5
t-27.5 -8.5zM493 100h-167q-90 0 -120 27t-30 92v280q0 66 31 93.5t119 27.5h167v10h-167q-96 0 -128 -30t-32 -101v-280q0 -69 31.5 -99t128.5 -30h167v10zM313 797l-137 -40q-25 -8 -33 -2t-8 33v81q0 27 8.5 35t32.5 18l128 46q9 4 19.5 6t19.5 3q9 0 17 -1t15 -4
l137 -50q25 -10 33.5 -18t8.5 -35v-81q0 -27 -8 -33t-34 2l-137 40q-17 4 -31 4t-31 -4zM463 850v11l-83 27q-9 2 -17 4t-19 2t-19 -2t-17 -4l-83 -27v-11l87 28q7 2 14.5 4t17.5 2t17.5 -2t14.5 -4z" />
    <glyph glyph-name="ccircumflex" unicode="&#x109;" horiz-adv-x="628" 
d="M548 0h-244q-125 0 -185.5 50t-60.5 154v311q0 104 60.5 154.5t185.5 50.5h244q19 0 27.5 -8.5t8.5 -27.5v-121q0 -19 -8.5 -27.5t-27.5 -8.5h-201q-31 0 -46 -12.5t-15 -37.5v-238q0 -25 15 -36.5t46 -11.5h201q19 0 27.5 -8.5t8.5 -27.5v-119q0 -19 -8.5 -27.5
t-27.5 -8.5zM493 100h-167q-90 0 -120 27t-30 92v280q0 66 31 93.5t119 27.5h167v10h-167q-96 0 -128 -30t-32 -101v-280q0 -69 31.5 -99t128.5 -30h167v10zM313 797l-137 -40q-25 -8 -33 -2t-8 33v81q0 27 8.5 35t32.5 18l128 46q9 4 19.5 6t19.5 3q9 0 17 -1t15 -4
l137 -50q25 -10 33.5 -18t8.5 -35v-81q0 -27 -8 -33t-34 2l-137 40q-17 4 -31 4t-31 -4zM463 850v11l-83 27q-9 2 -17 4t-19 2t-19 -2t-17 -4l-83 -27v-11l87 28q7 2 14.5 4t17.5 2t17.5 -2t14.5 -4z" />
    <glyph glyph-name="Cdotaccent" unicode="&#x10a;" horiz-adv-x="628" 
d="M548 0h-244q-125 0 -185.5 50t-60.5 154v311q0 104 60.5 154.5t185.5 50.5h244q19 0 27.5 -8.5t8.5 -27.5v-121q0 -19 -8.5 -27.5t-27.5 -8.5h-201q-31 0 -46 -12.5t-15 -37.5v-238q0 -25 15 -36.5t46 -11.5h201q19 0 27.5 -8.5t8.5 -27.5v-119q0 -19 -8.5 -27.5
t-27.5 -8.5zM493 100h-167q-90 0 -120 27t-30 92v280q0 66 31 93.5t119 27.5h167v10h-167q-96 0 -128 -30t-32 -101v-280q0 -69 31.5 -99t128.5 -30h167v10zM435 760h-158q-19 0 -27.5 8.5t-8.5 27.5v127q0 19 8.5 27.5t27.5 8.5h158q19 0 27.5 -8.5t8.5 -27.5v-127
q0 -19 -8.5 -27.5t-27.5 -8.5zM361 830v59h-10v-59h10z" />
    <glyph glyph-name="cdotaccent" unicode="&#x10b;" horiz-adv-x="628" 
d="M548 0h-244q-125 0 -185.5 50t-60.5 154v311q0 104 60.5 154.5t185.5 50.5h244q19 0 27.5 -8.5t8.5 -27.5v-121q0 -19 -8.5 -27.5t-27.5 -8.5h-201q-31 0 -46 -12.5t-15 -37.5v-238q0 -25 15 -36.5t46 -11.5h201q19 0 27.5 -8.5t8.5 -27.5v-119q0 -19 -8.5 -27.5
t-27.5 -8.5zM493 100h-167q-90 0 -120 27t-30 92v280q0 66 31 93.5t119 27.5h167v10h-167q-96 0 -128 -30t-32 -101v-280q0 -69 31.5 -99t128.5 -30h167v10zM435 760h-158q-19 0 -27.5 8.5t-8.5 27.5v127q0 19 8.5 27.5t27.5 8.5h158q19 0 27.5 -8.5t8.5 -27.5v-127
q0 -19 -8.5 -27.5t-27.5 -8.5zM361 830v59h-10v-59h10z" />
    <glyph glyph-name="Ccaron" unicode="&#x10c;" horiz-adv-x="628" 
d="M548 0h-244q-125 0 -185.5 50t-60.5 154v311q0 104 60.5 154.5t185.5 50.5h244q19 0 27.5 -8.5t8.5 -27.5v-121q0 -19 -8.5 -27.5t-27.5 -8.5h-201q-31 0 -46 -12.5t-15 -37.5v-238q0 -25 15 -36.5t46 -11.5h201q19 0 27.5 -8.5t8.5 -27.5v-119q0 -19 -8.5 -27.5
t-27.5 -8.5zM493 100h-167q-90 0 -120 27t-30 92v280q0 66 31 93.5t119 27.5h167v10h-167q-96 0 -128 -30t-32 -101v-280q0 -69 31.5 -99t128.5 -30h167v10zM376 932l137 40q25 8 33 2t8 -33v-81q0 -27 -8.5 -35t-32.5 -18l-128 -46q-9 -4 -19.5 -6t-19.5 -3q-9 0 -17 1
t-15 4l-137 50q-25 10 -33.5 18t-8.5 35v81q0 27 8 33t34 -2l137 -40q17 -4 31 -4t31 4zM225 879v-11l83 -27q9 -2 17 -4t19 -2t19 2t17 4l83 27v11l-87 -28q-7 -2 -14.5 -4t-17.5 -2t-17.5 2t-14.5 4z" />
    <glyph glyph-name="ccaron" unicode="&#x10d;" horiz-adv-x="628" 
d="M548 0h-244q-125 0 -185.5 50t-60.5 154v311q0 104 60.5 154.5t185.5 50.5h244q19 0 27.5 -8.5t8.5 -27.5v-121q0 -19 -8.5 -27.5t-27.5 -8.5h-201q-31 0 -46 -12.5t-15 -37.5v-238q0 -25 15 -36.5t46 -11.5h201q19 0 27.5 -8.5t8.5 -27.5v-119q0 -19 -8.5 -27.5
t-27.5 -8.5zM493 100h-167q-90 0 -120 27t-30 92v280q0 66 31 93.5t119 27.5h167v10h-167q-96 0 -128 -30t-32 -101v-280q0 -69 31.5 -99t128.5 -30h167v10zM376 932l137 40q25 8 33 2t8 -33v-81q0 -27 -8.5 -35t-32.5 -18l-128 -46q-9 -4 -19.5 -6t-19.5 -3q-9 0 -17 1
t-15 4l-137 50q-25 10 -33.5 18t-8.5 35v81q0 27 8 33t34 -2l137 -40q17 -4 31 -4t31 4zM225 879v-11l83 -27q9 -2 17 -4t19 -2t19 2t17 4l83 27v11l-87 -28q-7 -2 -14.5 -4t-17.5 -2t-17.5 2t-14.5 4z" />
    <glyph glyph-name="Dcaron" unicode="&#x10e;" horiz-adv-x="746" 
d="M442 0h-337q-19 0 -27.5 8.5t-8.5 27.5v648q0 19 8.5 27.5t27.5 8.5h337q125 0 185.5 -50t60.5 -154v-312q0 -104 -60.5 -154t-185.5 -50zM178 90h242q51 0 83 10.5t49 28.5t22.5 43t5.5 54v265q0 29 -6 54.5t-23 44t-48.5 29.5t-82.5 11h-242v-540zM420 620
q47 0 76.5 -10t45.5 -27t22 -41t6 -51v-265q0 -27 -5.5 -50.5t-21.5 -40t-45.5 -26t-77.5 -9.5h-232v520h232zM296 529v-340h119q24 0 35.5 12t11.5 37v243q0 25 -11.5 36.5t-35.5 11.5h-119zM404 932l137 40q25 8 33 2t8 -33v-81q0 -27 -8.5 -35t-32.5 -18l-128 -46
q-9 -4 -19.5 -6t-19.5 -3q-9 0 -17 1t-15 4l-137 50q-25 10 -33.5 18t-8.5 35v81q0 27 8 33t34 -2l137 -40q17 -4 31 -4t31 4zM253 879v-11l83 -27q9 -2 17 -4t19 -2t19 2t17 4l83 27v11l-87 -28q-7 -2 -14.5 -4t-17.5 -2t-17.5 2t-14.5 4z" />
    <glyph glyph-name="dcaron" unicode="&#x10f;" horiz-adv-x="746" 
d="M442 0h-337q-19 0 -27.5 8.5t-8.5 27.5v648q0 19 8.5 27.5t27.5 8.5h337q125 0 185.5 -50t60.5 -154v-312q0 -104 -60.5 -154t-185.5 -50zM178 90h242q51 0 83 10.5t49 28.5t22.5 43t5.5 54v265q0 29 -6 54.5t-23 44t-48.5 29.5t-82.5 11h-242v-540zM420 620
q47 0 76.5 -10t45.5 -27t22 -41t6 -51v-265q0 -27 -5.5 -50.5t-21.5 -40t-45.5 -26t-77.5 -9.5h-232v520h232zM296 529v-340h119q24 0 35.5 12t11.5 37v243q0 25 -11.5 36.5t-35.5 11.5h-119zM404 932l137 40q25 8 33 2t8 -33v-81q0 -27 -8.5 -35t-32.5 -18l-128 -46
q-9 -4 -19.5 -6t-19.5 -3q-9 0 -17 1t-15 4l-137 50q-25 10 -33.5 18t-8.5 35v81q0 27 8 33t34 -2l137 -40q17 -4 31 -4t31 4zM253 879v-11l83 -27q9 -2 17 -4t19 -2t19 2t17 4l83 27v11l-87 -28q-7 -2 -14.5 -4t-17.5 -2t-17.5 2t-14.5 4z" />
    <glyph glyph-name="Dcroat" unicode="&#x110;" horiz-adv-x="756" 
d="M452 0h-337q-19 0 -27.5 8.5t-8.5 27.5v229h-23q-19 0 -27.5 8.5t-8.5 27.5v107q0 19 8.5 27.5t27.5 8.5h23v240q0 19 8.5 27.5t27.5 8.5h337q141 0 193.5 -57t52.5 -147v-312q0 -90 -52.5 -147t-193.5 -57zM186 90h244q51 0 83 10.5t49 28.5t22.5 43t5.5 54v265
q0 29 -6 54.5t-23 44t-48.5 29.5t-82.5 11h-244v-271h-76v-10h76v-259zM290 349v10h-94v261h234q47 0 76.5 -10t45.5 -27t22 -41t6 -51v-265q0 -27 -5.5 -50.5t-21.5 -40t-45.5 -26t-77.5 -9.5h-234v249h94zM303 189h122q30 0 38.5 14.5t8.5 34.5v243q0 19 -8.5 33.5
t-38.5 14.5h-122v-85h41q19 0 27.5 -8.5t8.5 -27.5v-107q0 -19 -8.5 -27.5t-27.5 -8.5h-41v-76z" />
    <glyph glyph-name="dcroat" unicode="&#x111;" horiz-adv-x="756" 
d="M452 0h-337q-19 0 -27.5 8.5t-8.5 27.5v229h-23q-19 0 -27.5 8.5t-8.5 27.5v107q0 19 8.5 27.5t27.5 8.5h23v240q0 19 8.5 27.5t27.5 8.5h337q141 0 193.5 -57t52.5 -147v-312q0 -90 -52.5 -147t-193.5 -57zM186 90h244q51 0 83 10.5t49 28.5t22.5 43t5.5 54v265
q0 29 -6 54.5t-23 44t-48.5 29.5t-82.5 11h-244v-271h-76v-10h76v-259zM290 349v10h-94v261h234q47 0 76.5 -10t45.5 -27t22 -41t6 -51v-265q0 -27 -5.5 -50.5t-21.5 -40t-45.5 -26t-77.5 -9.5h-234v249h94zM303 189h122q30 0 38.5 14.5t8.5 34.5v243q0 19 -8.5 33.5
t-38.5 14.5h-122v-85h41q19 0 27.5 -8.5t8.5 -27.5v-107q0 -19 -8.5 -27.5t-27.5 -8.5h-41v-76z" />
    <glyph glyph-name="Emacron" unicode="&#x112;" horiz-adv-x="654" 
d="M569 0h-464q-19 0 -27.5 8.5t-8.5 27.5v648q0 19 8.5 27.5t27.5 8.5h464q19 0 27.5 -8.5t8.5 -27.5v-117q0 -19 -8.5 -27.5t-27.5 -8.5h-276v-77h195q19 0 27.5 -8.5t8.5 -27.5v-107q0 -19 -8.5 -27.5t-27.5 -8.5h-195v-86h276q19 0 27.5 -8.5t8.5 -27.5v-117
q0 -19 -8.5 -27.5t-27.5 -8.5zM515 100h-327v259h246v10h-246v251h327v10h-337v-540h337v10zM510 760h-347q-19 0 -27.5 8.5t-8.5 27.5v93q0 19 8.5 27.5t27.5 8.5h347q19 0 27.5 -8.5t8.5 -27.5v-93q0 -19 -8.5 -27.5t-27.5 -8.5zM217 847v-10h239v10h-239z" />
    <glyph glyph-name="emacron" unicode="&#x113;" horiz-adv-x="654" 
d="M569 0h-464q-19 0 -27.5 8.5t-8.5 27.5v648q0 19 8.5 27.5t27.5 8.5h464q19 0 27.5 -8.5t8.5 -27.5v-117q0 -19 -8.5 -27.5t-27.5 -8.5h-276v-77h195q19 0 27.5 -8.5t8.5 -27.5v-107q0 -19 -8.5 -27.5t-27.5 -8.5h-195v-86h276q19 0 27.5 -8.5t8.5 -27.5v-117
q0 -19 -8.5 -27.5t-27.5 -8.5zM515 100h-327v259h246v10h-246v251h327v10h-337v-540h337v10zM510 760h-347q-19 0 -27.5 8.5t-8.5 27.5v93q0 19 8.5 27.5t27.5 8.5h347q19 0 27.5 -8.5t8.5 -27.5v-93q0 -19 -8.5 -27.5t-27.5 -8.5zM217 847v-10h239v10h-239z" />
    <glyph glyph-name="Ebreve" unicode="&#x114;" horiz-adv-x="654" 
d="M569 0h-464q-19 0 -27.5 8.5t-8.5 27.5v648q0 19 8.5 27.5t27.5 8.5h464q19 0 27.5 -8.5t8.5 -27.5v-117q0 -19 -8.5 -27.5t-27.5 -8.5h-276v-77h195q19 0 27.5 -8.5t8.5 -27.5v-107q0 -19 -8.5 -27.5t-27.5 -8.5h-195v-86h276q19 0 27.5 -8.5t8.5 -27.5v-117
q0 -19 -8.5 -27.5t-27.5 -8.5zM515 100h-327v259h246v10h-246v251h327v10h-337v-540h337v10zM564 897q0 -32 -9.5 -58.5t-34 -45t-66.5 -29t-107 -10.5t-107 10.5t-66.5 29t-34 45t-9.5 58.5v44q0 19 8.5 27.5t27.5 8.5h96q16 0 22.5 -6.5t6.5 -24.5v-21q0 -14 10 -23.5
t47 -9.5t48 9.5t11 23.5v21q0 18 6.5 24.5t23.5 6.5h91q19 0 27.5 -8.5t8.5 -27.5v-44zM481 907v-9q0 -27 -27 -48.5t-108 -21.5t-105.5 21.5t-24.5 48.5v9h-10v-9q0 -14 4.5 -28.5t19 -26t42.5 -18.5t74 -7t75 7t44 18.5t20.5 26t5.5 28.5v9h-10z" />
    <glyph glyph-name="ebreve" unicode="&#x115;" horiz-adv-x="654" 
d="M569 0h-464q-19 0 -27.5 8.5t-8.5 27.5v648q0 19 8.5 27.5t27.5 8.5h464q19 0 27.5 -8.5t8.5 -27.5v-117q0 -19 -8.5 -27.5t-27.5 -8.5h-276v-77h195q19 0 27.5 -8.5t8.5 -27.5v-107q0 -19 -8.5 -27.5t-27.5 -8.5h-195v-86h276q19 0 27.5 -8.5t8.5 -27.5v-117
q0 -19 -8.5 -27.5t-27.5 -8.5zM515 100h-327v259h246v10h-246v251h327v10h-337v-540h337v10zM564 897q0 -32 -9.5 -58.5t-34 -45t-66.5 -29t-107 -10.5t-107 10.5t-66.5 29t-34 45t-9.5 58.5v44q0 19 8.5 27.5t27.5 8.5h96q16 0 22.5 -6.5t6.5 -24.5v-21q0 -14 10 -23.5
t47 -9.5t48 9.5t11 23.5v21q0 18 6.5 24.5t23.5 6.5h91q19 0 27.5 -8.5t8.5 -27.5v-44zM481 907v-9q0 -27 -27 -48.5t-108 -21.5t-105.5 21.5t-24.5 48.5v9h-10v-9q0 -14 4.5 -28.5t19 -26t42.5 -18.5t74 -7t75 7t44 18.5t20.5 26t5.5 28.5v9h-10z" />
    <glyph glyph-name="Edotaccent" unicode="&#x116;" horiz-adv-x="654" 
d="M569 0h-464q-19 0 -27.5 8.5t-8.5 27.5v648q0 19 8.5 27.5t27.5 8.5h464q19 0 27.5 -8.5t8.5 -27.5v-117q0 -19 -8.5 -27.5t-27.5 -8.5h-276v-77h195q19 0 27.5 -8.5t8.5 -27.5v-107q0 -19 -8.5 -27.5t-27.5 -8.5h-195v-86h276q19 0 27.5 -8.5t8.5 -27.5v-117
q0 -19 -8.5 -27.5t-27.5 -8.5zM515 100h-327v259h246v10h-246v251h327v10h-337v-540h337v10zM405 760h-158q-19 0 -27.5 8.5t-8.5 27.5v127q0 19 8.5 27.5t27.5 8.5h158q19 0 27.5 -8.5t8.5 -27.5v-127q0 -19 -8.5 -27.5t-27.5 -8.5zM331 830v59h-10v-59h10z" />
    <glyph glyph-name="edotaccent" unicode="&#x117;" horiz-adv-x="654" 
d="M569 0h-464q-19 0 -27.5 8.5t-8.5 27.5v648q0 19 8.5 27.5t27.5 8.5h464q19 0 27.5 -8.5t8.5 -27.5v-117q0 -19 -8.5 -27.5t-27.5 -8.5h-276v-77h195q19 0 27.5 -8.5t8.5 -27.5v-107q0 -19 -8.5 -27.5t-27.5 -8.5h-195v-86h276q19 0 27.5 -8.5t8.5 -27.5v-117
q0 -19 -8.5 -27.5t-27.5 -8.5zM515 100h-327v259h246v10h-246v251h327v10h-337v-540h337v10zM405 760h-158q-19 0 -27.5 8.5t-8.5 27.5v127q0 19 8.5 27.5t27.5 8.5h158q19 0 27.5 -8.5t8.5 -27.5v-127q0 -19 -8.5 -27.5t-27.5 -8.5zM331 830v59h-10v-59h10z" />
    <glyph glyph-name="Eogonek" unicode="&#x118;" horiz-adv-x="654" 
d="M605 -152q0 -19 -7 -26.5t-26 -7.5h-111q-64 0 -87.5 33t-13.5 102l9 51h-264q-19 0 -27.5 8.5t-8.5 27.5v648q0 19 8.5 27.5t27.5 8.5h464q19 0 27.5 -8.5t8.5 -27.5v-117q0 -19 -8.5 -27.5t-27.5 -8.5h-276v-77h195q19 0 27.5 -8.5t8.5 -27.5v-107q0 -19 -8.5 -27.5
t-27.5 -8.5h-195v-86h276q19 0 27.5 -8.5t8.5 -27.5v-117q0 -19 -8.5 -27.5t-27.5 -8.5h-34l-7 -46h41q21 0 28.5 -7.5t7.5 -26.5v-72zM491 -116h24v10h-24q-31 0 -38 16.5t-3 46.5l12 85q3 22 8.5 30t24.5 18h20v10h-327v259h246v10h-246v251h327v10h-337v-540h298
q-12 -9 -16.5 -19t-7.5 -29l-12 -83q-6 -37 4 -56t47 -19z" />
    <glyph glyph-name="eogonek" unicode="&#x119;" horiz-adv-x="654" 
d="M605 -152q0 -19 -7 -26.5t-26 -7.5h-111q-64 0 -87.5 33t-13.5 102l9 51h-264q-19 0 -27.5 8.5t-8.5 27.5v648q0 19 8.5 27.5t27.5 8.5h464q19 0 27.5 -8.5t8.5 -27.5v-117q0 -19 -8.5 -27.5t-27.5 -8.5h-276v-77h195q19 0 27.5 -8.5t8.5 -27.5v-107q0 -19 -8.5 -27.5
t-27.5 -8.5h-195v-86h276q19 0 27.5 -8.5t8.5 -27.5v-117q0 -19 -8.5 -27.5t-27.5 -8.5h-34l-7 -46h41q21 0 28.5 -7.5t7.5 -26.5v-72zM491 -116h24v10h-24q-31 0 -38 16.5t-3 46.5l12 85q3 22 8.5 30t24.5 18h20v10h-327v259h246v10h-246v251h327v10h-337v-540h298
q-12 -9 -16.5 -19t-7.5 -29l-12 -83q-6 -37 4 -56t47 -19z" />
    <glyph glyph-name="Ecaron" unicode="&#x11a;" horiz-adv-x="654" 
d="M569 0h-464q-19 0 -27.5 8.5t-8.5 27.5v648q0 19 8.5 27.5t27.5 8.5h464q19 0 27.5 -8.5t8.5 -27.5v-117q0 -19 -8.5 -27.5t-27.5 -8.5h-276v-77h195q19 0 27.5 -8.5t8.5 -27.5v-107q0 -19 -8.5 -27.5t-27.5 -8.5h-195v-86h276q19 0 27.5 -8.5t8.5 -27.5v-117
q0 -19 -8.5 -27.5t-27.5 -8.5zM515 100h-327v259h246v10h-246v251h327v10h-337v-540h337v10zM375 932l137 40q25 8 33 2t8 -33v-81q0 -27 -8.5 -35t-32.5 -18l-128 -46q-9 -4 -19.5 -6t-19.5 -3q-9 0 -17 1t-15 4l-137 50q-25 10 -33.5 18t-8.5 35v81q0 27 8 33t34 -2
l137 -40q17 -4 31 -4t31 4zM224 879v-11l83 -27q9 -2 17 -4t19 -2t19 2t17 4l83 27v11l-87 -28q-7 -2 -14.5 -4t-17.5 -2t-17.5 2t-14.5 4z" />
    <glyph glyph-name="ecaron" unicode="&#x11b;" horiz-adv-x="654" 
d="M569 0h-464q-19 0 -27.5 8.5t-8.5 27.5v648q0 19 8.5 27.5t27.5 8.5h464q19 0 27.5 -8.5t8.5 -27.5v-117q0 -19 -8.5 -27.5t-27.5 -8.5h-276v-77h195q19 0 27.5 -8.5t8.5 -27.5v-107q0 -19 -8.5 -27.5t-27.5 -8.5h-195v-86h276q19 0 27.5 -8.5t8.5 -27.5v-117
q0 -19 -8.5 -27.5t-27.5 -8.5zM515 100h-327v259h246v10h-246v251h327v10h-337v-540h337v10zM375 932l137 40q25 8 33 2t8 -33v-81q0 -27 -8.5 -35t-32.5 -18l-128 -46q-9 -4 -19.5 -6t-19.5 -3q-9 0 -17 1t-15 4l-137 50q-25 10 -33.5 18t-8.5 35v81q0 27 8 33t34 -2
l137 -40q17 -4 31 -4t31 4zM224 879v-11l83 -27q9 -2 17 -4t19 -2t19 2t17 4l83 27v11l-87 -28q-7 -2 -14.5 -4t-17.5 -2t-17.5 2t-14.5 4z" />
    <glyph glyph-name="Gcircumflex" unicode="&#x11c;" horiz-adv-x="708" 
d="M619 0h-315q-125 0 -185.5 50t-60.5 154v312q0 104 60.5 154t185.5 50h250q19 0 27.5 -8.5t8.5 -27.5v-121q0 -19 -8.5 -27.5t-27.5 -8.5h-208q-31 0 -46 -12.5t-15 -37.5v-239q0 -25 11.5 -37t34.5 -12h97v156q0 19 8.5 27.5t27.5 8.5h155q19 0 27.5 -8.5t8.5 -27.5
v-309q0 -19 -8.5 -27.5t-27.5 -8.5zM347 90h199v201h-10v-191h-189q-101 0 -135.5 27t-34.5 92v280q0 66 31 93.5t119 27.5h173v10h-173q-96 0 -128 -30t-32 -101v-280q0 -35 7.5 -59.5t27.5 -40t55 -22.5t90 -7zM349 797l-137 -40q-25 -8 -33 -2t-8 33v81q0 27 8.5 35
t32.5 18l128 46q9 4 19.5 6t19.5 3q9 0 17 -1t15 -4l137 -50q25 -10 33.5 -18t8.5 -35v-81q0 -27 -8 -33t-34 2l-137 40q-17 4 -31 4t-31 -4zM499 850v11l-83 27q-9 2 -17 4t-19 2t-19 -2t-17 -4l-83 -27v-11l87 28q7 2 14.5 4t17.5 2t17.5 -2t14.5 -4z" />
    <glyph glyph-name="gcircumflex" unicode="&#x11d;" horiz-adv-x="708" 
d="M619 0h-315q-125 0 -185.5 50t-60.5 154v312q0 104 60.5 154t185.5 50h250q19 0 27.5 -8.5t8.5 -27.5v-121q0 -19 -8.5 -27.5t-27.5 -8.5h-208q-31 0 -46 -12.5t-15 -37.5v-239q0 -25 11.5 -37t34.5 -12h97v156q0 19 8.5 27.5t27.5 8.5h155q19 0 27.5 -8.5t8.5 -27.5
v-309q0 -19 -8.5 -27.5t-27.5 -8.5zM347 90h199v201h-10v-191h-189q-101 0 -135.5 27t-34.5 92v280q0 66 31 93.5t119 27.5h173v10h-173q-96 0 -128 -30t-32 -101v-280q0 -35 7.5 -59.5t27.5 -40t55 -22.5t90 -7zM349 797l-137 -40q-25 -8 -33 -2t-8 33v81q0 27 8.5 35
t32.5 18l128 46q9 4 19.5 6t19.5 3q9 0 17 -1t15 -4l137 -50q25 -10 33.5 -18t8.5 -35v-81q0 -27 -8 -33t-34 2l-137 40q-17 4 -31 4t-31 -4zM499 850v11l-83 27q-9 2 -17 4t-19 2t-19 -2t-17 -4l-83 -27v-11l87 28q7 2 14.5 4t17.5 2t17.5 -2t14.5 -4z" />
    <glyph glyph-name="Gbreve" unicode="&#x11e;" horiz-adv-x="708" 
d="M619 0h-315q-125 0 -185.5 50t-60.5 154v312q0 104 60.5 154t185.5 50h250q19 0 27.5 -8.5t8.5 -27.5v-121q0 -19 -8.5 -27.5t-27.5 -8.5h-208q-31 0 -46 -12.5t-15 -37.5v-239q0 -25 11.5 -37t34.5 -12h97v156q0 19 8.5 27.5t27.5 8.5h155q19 0 27.5 -8.5t8.5 -27.5
v-309q0 -19 -8.5 -27.5t-27.5 -8.5zM347 90h199v201h-10v-191h-189q-101 0 -135.5 27t-34.5 92v280q0 66 31 93.5t119 27.5h173v10h-173q-96 0 -128 -30t-32 -101v-280q0 -35 7.5 -59.5t27.5 -40t55 -22.5t90 -7zM591 897q0 -32 -9.5 -58.5t-34 -45t-66.5 -29t-107 -10.5
t-107 10.5t-66.5 29t-34 45t-9.5 58.5v44q0 19 8.5 27.5t27.5 8.5h96q16 0 22.5 -6.5t6.5 -24.5v-21q0 -14 10 -23.5t47 -9.5t48 9.5t11 23.5v21q0 18 6.5 24.5t23.5 6.5h91q19 0 27.5 -8.5t8.5 -27.5v-44zM508 907v-9q0 -27 -27 -48.5t-108 -21.5t-105.5 21.5t-24.5 48.5v9
h-10v-9q0 -14 4.5 -28.5t19 -26t42.5 -18.5t74 -7t75 7t44 18.5t20.5 26t5.5 28.5v9h-10z" />
    <glyph glyph-name="gbreve" unicode="&#x11f;" horiz-adv-x="708" 
d="M619 0h-315q-125 0 -185.5 50t-60.5 154v312q0 104 60.5 154t185.5 50h250q19 0 27.5 -8.5t8.5 -27.5v-121q0 -19 -8.5 -27.5t-27.5 -8.5h-208q-31 0 -46 -12.5t-15 -37.5v-239q0 -25 11.5 -37t34.5 -12h97v156q0 19 8.5 27.5t27.5 8.5h155q19 0 27.5 -8.5t8.5 -27.5
v-309q0 -19 -8.5 -27.5t-27.5 -8.5zM347 90h199v201h-10v-191h-189q-101 0 -135.5 27t-34.5 92v280q0 66 31 93.5t119 27.5h173v10h-173q-96 0 -128 -30t-32 -101v-280q0 -35 7.5 -59.5t27.5 -40t55 -22.5t90 -7zM591 897q0 -32 -9.5 -58.5t-34 -45t-66.5 -29t-107 -10.5
t-107 10.5t-66.5 29t-34 45t-9.5 58.5v44q0 19 8.5 27.5t27.5 8.5h96q16 0 22.5 -6.5t6.5 -24.5v-21q0 -14 10 -23.5t47 -9.5t48 9.5t11 23.5v21q0 18 6.5 24.5t23.5 6.5h91q19 0 27.5 -8.5t8.5 -27.5v-44zM508 907v-9q0 -27 -27 -48.5t-108 -21.5t-105.5 21.5t-24.5 48.5v9
h-10v-9q0 -14 4.5 -28.5t19 -26t42.5 -18.5t74 -7t75 7t44 18.5t20.5 26t5.5 28.5v9h-10z" />
    <glyph glyph-name="Gdotaccent" unicode="&#x120;" horiz-adv-x="708" 
d="M619 0h-315q-125 0 -185.5 50t-60.5 154v312q0 104 60.5 154t185.5 50h250q19 0 27.5 -8.5t8.5 -27.5v-121q0 -19 -8.5 -27.5t-27.5 -8.5h-208q-31 0 -46 -12.5t-15 -37.5v-239q0 -25 11.5 -37t34.5 -12h97v156q0 19 8.5 27.5t27.5 8.5h155q19 0 27.5 -8.5t8.5 -27.5
v-309q0 -19 -8.5 -27.5t-27.5 -8.5zM347 90h199v201h-10v-191h-189q-101 0 -135.5 27t-34.5 92v280q0 66 31 93.5t119 27.5h173v10h-173q-96 0 -128 -30t-32 -101v-280q0 -35 7.5 -59.5t27.5 -40t55 -22.5t90 -7zM454 760h-158q-19 0 -27.5 8.5t-8.5 27.5v127q0 19 8.5 27.5
t27.5 8.5h158q19 0 27.5 -8.5t8.5 -27.5v-127q0 -19 -8.5 -27.5t-27.5 -8.5zM380 830v59h-10v-59h10z" />
    <glyph glyph-name="gdotaccent" unicode="&#x121;" horiz-adv-x="708" 
d="M619 0h-315q-125 0 -185.5 50t-60.5 154v312q0 104 60.5 154t185.5 50h250q19 0 27.5 -8.5t8.5 -27.5v-121q0 -19 -8.5 -27.5t-27.5 -8.5h-208q-31 0 -46 -12.5t-15 -37.5v-239q0 -25 11.5 -37t34.5 -12h97v156q0 19 8.5 27.5t27.5 8.5h155q19 0 27.5 -8.5t8.5 -27.5
v-309q0 -19 -8.5 -27.5t-27.5 -8.5zM347 90h199v201h-10v-191h-189q-101 0 -135.5 27t-34.5 92v280q0 66 31 93.5t119 27.5h173v10h-173q-96 0 -128 -30t-32 -101v-280q0 -35 7.5 -59.5t27.5 -40t55 -22.5t90 -7zM454 760h-158q-19 0 -27.5 8.5t-8.5 27.5v127q0 19 8.5 27.5
t27.5 8.5h158q19 0 27.5 -8.5t8.5 -27.5v-127q0 -19 -8.5 -27.5t-27.5 -8.5zM380 830v59h-10v-59h10z" />
    <glyph glyph-name="Gcommaaccent" unicode="&#x122;" horiz-adv-x="708" 
d="M619 0h-315q-125 0 -185.5 50t-60.5 154v312q0 104 60.5 154t185.5 50h250q19 0 27.5 -8.5t8.5 -27.5v-121q0 -19 -8.5 -27.5t-27.5 -8.5h-208q-31 0 -46 -12.5t-15 -37.5v-239q0 -25 11.5 -37t34.5 -12h97v156q0 19 8.5 27.5t27.5 8.5h155q19 0 27.5 -8.5t8.5 -27.5
v-309q0 -19 -8.5 -27.5t-27.5 -8.5zM347 90h199v201h-10v-191h-189q-101 0 -135.5 27t-34.5 92v280q0 66 31 93.5t119 27.5h173v10h-173q-96 0 -128 -30t-32 -101v-280q0 -35 7.5 -59.5t27.5 -40t55 -22.5t90 -7zM365 -362h-66q-16 0 -23 7.5t-7 23.5v34q0 16 7 23t23 7h59
q11 0 17 6.5t6 17.5v13h-86q-21 0 -29 8.5t-8 30.5v109q0 22 8 30.5t29 8.5h158q21 0 29 -8.5t8 -30.5v-152q0 -64 -34 -96t-91 -32zM433 -132h-118v-10h108v-87q0 -40 -18.5 -58t-54.5 -18h-35v-10h35q40 0 61.5 20t21.5 66v97z" />
    <glyph glyph-name="gcommaaccent" unicode="&#x123;" horiz-adv-x="708" 
d="M619 0h-315q-125 0 -185.5 50t-60.5 154v312q0 104 60.5 154t185.5 50h250q19 0 27.5 -8.5t8.5 -27.5v-121q0 -19 -8.5 -27.5t-27.5 -8.5h-208q-31 0 -46 -12.5t-15 -37.5v-239q0 -25 11.5 -37t34.5 -12h97v156q0 19 8.5 27.5t27.5 8.5h155q19 0 27.5 -8.5t8.5 -27.5
v-309q0 -19 -8.5 -27.5t-27.5 -8.5zM347 90h199v201h-10v-191h-189q-101 0 -135.5 27t-34.5 92v280q0 66 31 93.5t119 27.5h173v10h-173q-96 0 -128 -30t-32 -101v-280q0 -35 7.5 -59.5t27.5 -40t55 -22.5t90 -7zM365 -362h-66q-16 0 -23 7.5t-7 23.5v34q0 16 7 23t23 7h59
q11 0 17 6.5t6 17.5v13h-86q-21 0 -29 8.5t-8 30.5v109q0 22 8 30.5t29 8.5h158q21 0 29 -8.5t8 -30.5v-152q0 -64 -34 -96t-91 -32zM433 -132h-118v-10h108v-87q0 -40 -18.5 -58t-54.5 -18h-35v-10h35q40 0 61.5 20t21.5 66v97z" />
    <glyph glyph-name="Hcircumflex" unicode="&#x124;" horiz-adv-x="759" 
d="M177 90h10v265h384v-265h10v540h-10v-265h-384v265h-10v-540zM260 0h-155q-19 0 -27.5 8.5t-8.5 27.5v648q0 19 8.5 27.5t27.5 8.5h155q19 0 27.5 -8.5t8.5 -27.5v-217h167v217q0 19 8.5 27.5t27.5 8.5h155q19 0 27.5 -8.5t8.5 -27.5v-648q0 -19 -8.5 -27.5t-27.5 -8.5
h-155q-19 0 -27.5 8.5t-8.5 27.5v222h-167v-222q0 -19 -8.5 -27.5t-27.5 -8.5zM347 797l-137 -40q-25 -8 -33 -2t-8 33v81q0 27 8.5 35t32.5 18l128 46q9 4 19.5 6t19.5 3q9 0 17 -1t15 -4l137 -50q25 -10 33.5 -18t8.5 -35v-81q0 -27 -8 -33t-34 2l-137 40q-17 4 -31 4
t-31 -4zM497 850v11l-83 27q-9 2 -17 4t-19 2t-19 -2t-17 -4l-83 -27v-11l87 28q7 2 14.5 4t17.5 2t17.5 -2t14.5 -4z" />
    <glyph glyph-name="hcircumflex" unicode="&#x125;" horiz-adv-x="759" 
d="M177 90h10v265h384v-265h10v540h-10v-265h-384v265h-10v-540zM260 0h-155q-19 0 -27.5 8.5t-8.5 27.5v648q0 19 8.5 27.5t27.5 8.5h155q19 0 27.5 -8.5t8.5 -27.5v-217h167v217q0 19 8.5 27.5t27.5 8.5h155q19 0 27.5 -8.5t8.5 -27.5v-648q0 -19 -8.5 -27.5t-27.5 -8.5
h-155q-19 0 -27.5 8.5t-8.5 27.5v222h-167v-222q0 -19 -8.5 -27.5t-27.5 -8.5zM347 797l-137 -40q-25 -8 -33 -2t-8 33v81q0 27 8.5 35t32.5 18l128 46q9 4 19.5 6t19.5 3q9 0 17 -1t15 -4l137 -50q25 -10 33.5 -18t8.5 -35v-81q0 -27 -8 -33t-34 2l-137 40q-17 4 -31 4
t-31 -4zM497 850v11l-83 27q-9 2 -17 4t-19 2t-19 -2t-17 -4l-83 -27v-11l87 28q7 2 14.5 4t17.5 2t17.5 -2t14.5 -4z" />
    <glyph glyph-name="Hbar" unicode="&#x126;" horiz-adv-x="779" 
d="M583 504v-252h-387v252h387zM303 347h173v78h-173v-78zM186 90h10v152h387v-152h10v414h66v10h-66v116h-10v-116h-387v116h-10v-116h-66v-10h66v-414zM303 36q0 -19 -8.5 -27.5t-27.5 -8.5h-152q-19 0 -27.5 8.5t-8.5 27.5v389h-13q-19 0 -27.5 8.5t-8.5 27.5v97
q0 19 8.5 27.5t27.5 8.5h13v90q0 19 8.5 27.5t27.5 8.5h152q19 0 27.5 -8.5t8.5 -27.5v-90h173v90q0 19 8.5 27.5t27.5 8.5h152q19 0 27.5 -8.5t8.5 -27.5v-90h13q19 0 27.5 -8.5t8.5 -27.5v-97q0 -19 -8.5 -27.5t-27.5 -8.5h-13v-389q0 -19 -8.5 -27.5t-27.5 -8.5h-152
q-19 0 -27.5 8.5t-8.5 27.5v112h-173v-112z" />
    <glyph glyph-name="hbar" unicode="&#x127;" horiz-adv-x="779" 
d="M583 504v-252h-387v252h387zM303 347h173v78h-173v-78zM186 90h10v152h387v-152h10v414h66v10h-66v116h-10v-116h-387v116h-10v-116h-66v-10h66v-414zM303 36q0 -19 -8.5 -27.5t-27.5 -8.5h-152q-19 0 -27.5 8.5t-8.5 27.5v389h-13q-19 0 -27.5 8.5t-8.5 27.5v97
q0 19 8.5 27.5t27.5 8.5h13v90q0 19 8.5 27.5t27.5 8.5h152q19 0 27.5 -8.5t8.5 -27.5v-90h173v90q0 19 8.5 27.5t27.5 8.5h152q19 0 27.5 -8.5t8.5 -27.5v-90h13q19 0 27.5 -8.5t8.5 -27.5v-97q0 -19 -8.5 -27.5t-27.5 -8.5h-13v-389q0 -19 -8.5 -27.5t-27.5 -8.5h-152
q-19 0 -27.5 8.5t-8.5 27.5v112h-173v-112z" />
    <glyph glyph-name="Itilde" unicode="&#x128;" horiz-adv-x="605" 
d="M89 0q-19 0 -27.5 8.5t-8.5 27.5v119q0 19 8.5 27.5t27.5 8.5h99v336h-99q-19 0 -27.5 8.5t-8.5 27.5v121q0 19 8.5 27.5t27.5 8.5h426q19 0 27.5 -8.5t8.5 -27.5v-121q0 -19 -8.5 -27.5t-27.5 -8.5h-97v-336h97q19 0 27.5 -8.5t8.5 -27.5v-119q0 -19 -8.5 -27.5
t-27.5 -8.5h-426zM461 90v10h-153v520h153v10h-318v-10h155v-520h-155v-10h318zM301 764l-28 4q-28 4 -47 5.5t-34 0t-29.5 -5t-34.5 -9.5q-18 -5 -27 1t-9 25v101q0 19 9.5 26.5t26.5 14.5q24 7 40 10.5t31.5 3.5t35 -2.5t49.5 -6.5l17 -2l22 -3q33 -5 52.5 -7t34 -1
t28.5 5t36 11q18 5 27 -1t9 -25v-101q0 -19 -9.5 -26.5t-26.5 -14.5q-24 -7 -40 -10.5t-32 -3.5t-35.5 2.5t-49.5 6.5zM420 841q-20 -2 -42 0t-60 8l-16 2l-28 4q-34 4 -54.5 5.5t-37.5 -0.5v-11q16 3 36.5 2t53.5 -6l28 -4l16 -2q38 -6 61 -8t43 0v10z" />
    <glyph glyph-name="itilde" unicode="&#x129;" horiz-adv-x="605" 
d="M89 0q-19 0 -27.5 8.5t-8.5 27.5v119q0 19 8.5 27.5t27.5 8.5h99v336h-99q-19 0 -27.5 8.5t-8.5 27.5v121q0 19 8.5 27.5t27.5 8.5h426q19 0 27.5 -8.5t8.5 -27.5v-121q0 -19 -8.5 -27.5t-27.5 -8.5h-97v-336h97q19 0 27.5 -8.5t8.5 -27.5v-119q0 -19 -8.5 -27.5
t-27.5 -8.5h-426zM461 90v10h-153v520h153v10h-318v-10h155v-520h-155v-10h318zM301 764l-28 4q-28 4 -47 5.5t-34 0t-29.5 -5t-34.5 -9.5q-18 -5 -27 1t-9 25v101q0 19 9.5 26.5t26.5 14.5q24 7 40 10.5t31.5 3.5t35 -2.5t49.5 -6.5l17 -2l22 -3q33 -5 52.5 -7t34 -1
t28.5 5t36 11q18 5 27 -1t9 -25v-101q0 -19 -9.5 -26.5t-26.5 -14.5q-24 -7 -40 -10.5t-32 -3.5t-35.5 2.5t-49.5 6.5zM420 841q-20 -2 -42 0t-60 8l-16 2l-28 4q-34 4 -54.5 5.5t-37.5 -0.5v-11q16 3 36.5 2t53.5 -6l28 -4l16 -2q38 -6 61 -8t43 0v10z" />
    <glyph glyph-name="Imacron" unicode="&#x12a;" horiz-adv-x="605" 
d="M89 0q-19 0 -27.5 8.5t-8.5 27.5v119q0 19 8.5 27.5t27.5 8.5h99v336h-99q-19 0 -27.5 8.5t-8.5 27.5v121q0 19 8.5 27.5t27.5 8.5h426q19 0 27.5 -8.5t8.5 -27.5v-121q0 -19 -8.5 -27.5t-27.5 -8.5h-97v-336h97q19 0 27.5 -8.5t8.5 -27.5v-119q0 -19 -8.5 -27.5
t-27.5 -8.5h-426zM461 90v10h-153v520h153v10h-318v-10h155v-520h-155v-10h318zM475 760h-347q-19 0 -27.5 8.5t-8.5 27.5v93q0 19 8.5 27.5t27.5 8.5h347q19 0 27.5 -8.5t8.5 -27.5v-93q0 -19 -8.5 -27.5t-27.5 -8.5zM182 847v-10h239v10h-239z" />
    <glyph glyph-name="imacron" unicode="&#x12b;" horiz-adv-x="605" 
d="M89 0q-19 0 -27.5 8.5t-8.5 27.5v119q0 19 8.5 27.5t27.5 8.5h99v336h-99q-19 0 -27.5 8.5t-8.5 27.5v121q0 19 8.5 27.5t27.5 8.5h426q19 0 27.5 -8.5t8.5 -27.5v-121q0 -19 -8.5 -27.5t-27.5 -8.5h-97v-336h97q19 0 27.5 -8.5t8.5 -27.5v-119q0 -19 -8.5 -27.5
t-27.5 -8.5h-426zM461 90v10h-153v520h153v10h-318v-10h155v-520h-155v-10h318zM475 760h-347q-19 0 -27.5 8.5t-8.5 27.5v93q0 19 8.5 27.5t27.5 8.5h347q19 0 27.5 -8.5t8.5 -27.5v-93q0 -19 -8.5 -27.5t-27.5 -8.5zM182 847v-10h239v10h-239z" />
    <glyph glyph-name="Ibreve" unicode="&#x12c;" horiz-adv-x="605" 
d="M89 0q-19 0 -27.5 8.5t-8.5 27.5v119q0 19 8.5 27.5t27.5 8.5h99v336h-99q-19 0 -27.5 8.5t-8.5 27.5v121q0 19 8.5 27.5t27.5 8.5h426q19 0 27.5 -8.5t8.5 -27.5v-121q0 -19 -8.5 -27.5t-27.5 -8.5h-97v-336h97q19 0 27.5 -8.5t8.5 -27.5v-119q0 -19 -8.5 -27.5
t-27.5 -8.5h-426zM461 90v10h-153v520h153v10h-318v-10h155v-520h-155v-10h318zM519 897q0 -32 -9.5 -58.5t-34 -45t-66.5 -29t-107 -10.5t-107 10.5t-66.5 29t-34 45t-9.5 58.5v44q0 19 8.5 27.5t27.5 8.5h96q16 0 22.5 -6.5t6.5 -24.5v-21q0 -14 10 -23.5t47 -9.5t48 9.5
t11 23.5v21q0 18 6.5 24.5t23.5 6.5h91q19 0 27.5 -8.5t8.5 -27.5v-44zM436 907v-9q0 -27 -27 -48.5t-108 -21.5t-105.5 21.5t-24.5 48.5v9h-10v-9q0 -14 4.5 -28.5t19 -26t42.5 -18.5t74 -7t75 7t44 18.5t20.5 26t5.5 28.5v9h-10z" />
    <glyph glyph-name="ibreve" unicode="&#x12d;" horiz-adv-x="605" 
d="M89 0q-19 0 -27.5 8.5t-8.5 27.5v119q0 19 8.5 27.5t27.5 8.5h99v336h-99q-19 0 -27.5 8.5t-8.5 27.5v121q0 19 8.5 27.5t27.5 8.5h426q19 0 27.5 -8.5t8.5 -27.5v-121q0 -19 -8.5 -27.5t-27.5 -8.5h-97v-336h97q19 0 27.5 -8.5t8.5 -27.5v-119q0 -19 -8.5 -27.5
t-27.5 -8.5h-426zM461 90v10h-153v520h153v10h-318v-10h155v-520h-155v-10h318zM519 897q0 -32 -9.5 -58.5t-34 -45t-66.5 -29t-107 -10.5t-107 10.5t-66.5 29t-34 45t-9.5 58.5v44q0 19 8.5 27.5t27.5 8.5h96q16 0 22.5 -6.5t6.5 -24.5v-21q0 -14 10 -23.5t47 -9.5t48 9.5
t11 23.5v21q0 18 6.5 24.5t23.5 6.5h91q19 0 27.5 -8.5t8.5 -27.5v-44zM436 907v-9q0 -27 -27 -48.5t-108 -21.5t-105.5 21.5t-24.5 48.5v9h-10v-9q0 -14 4.5 -28.5t19 -26t42.5 -18.5t74 -7t75 7t44 18.5t20.5 26t5.5 28.5v9h-10z" />
    <glyph glyph-name="Iogonek" unicode="&#x12e;" horiz-adv-x="605" 
d="M551 -152q0 -19 -7 -26.5t-26 -7.5h-111q-64 0 -87.5 33t-13.5 102l9 51h-226q-19 0 -27.5 8.5t-8.5 27.5v119q0 19 8.5 27.5t27.5 8.5h99v336h-99q-19 0 -27.5 8.5t-8.5 27.5v121q0 19 8.5 27.5t27.5 8.5h426q19 0 27.5 -8.5t8.5 -27.5v-121q0 -19 -8.5 -27.5
t-27.5 -8.5h-97v-336h97q19 0 27.5 -8.5t8.5 -27.5v-119q0 -19 -8.5 -27.5t-27.5 -8.5h-34l-7 -46h41q21 0 28.5 -7.5t7.5 -26.5v-72zM437 -116h24v10h-24q-31 0 -38 16.5t-3 46.5l12 85q3 22 8.5 30t24.5 18h20v10h-153v520h153v10h-318v-10h155v-520h-155v-10h279
q-12 -9 -16.5 -19t-7.5 -29l-12 -83q-6 -37 4 -56t47 -19z" />
    <glyph glyph-name="iogonek" unicode="&#x12f;" horiz-adv-x="605" 
d="M551 -152q0 -19 -7 -26.5t-26 -7.5h-111q-64 0 -87.5 33t-13.5 102l9 51h-226q-19 0 -27.5 8.5t-8.5 27.5v119q0 19 8.5 27.5t27.5 8.5h99v336h-99q-19 0 -27.5 8.5t-8.5 27.5v121q0 19 8.5 27.5t27.5 8.5h426q19 0 27.5 -8.5t8.5 -27.5v-121q0 -19 -8.5 -27.5
t-27.5 -8.5h-97v-336h97q19 0 27.5 -8.5t8.5 -27.5v-119q0 -19 -8.5 -27.5t-27.5 -8.5h-34l-7 -46h41q21 0 28.5 -7.5t7.5 -26.5v-72zM437 -116h24v10h-24q-31 0 -38 16.5t-3 46.5l12 85q3 22 8.5 30t24.5 18h20v10h-153v520h153v10h-318v-10h155v-520h-155v-10h279
q-12 -9 -16.5 -19t-7.5 -29l-12 -83q-6 -37 4 -56t47 -19z" />
    <glyph glyph-name="Idotaccent" unicode="&#x130;" horiz-adv-x="605" 
d="M89 0q-19 0 -27.5 8.5t-8.5 27.5v119q0 19 8.5 27.5t27.5 8.5h99v336h-99q-19 0 -27.5 8.5t-8.5 27.5v121q0 19 8.5 27.5t27.5 8.5h426q19 0 27.5 -8.5t8.5 -27.5v-121q0 -19 -8.5 -27.5t-27.5 -8.5h-97v-336h97q19 0 27.5 -8.5t8.5 -27.5v-119q0 -19 -8.5 -27.5
t-27.5 -8.5h-426zM461 90v10h-153v520h153v10h-318v-10h155v-520h-155v-10h318zM382 760h-158q-19 0 -27.5 8.5t-8.5 27.5v127q0 19 8.5 27.5t27.5 8.5h158q19 0 27.5 -8.5t8.5 -27.5v-127q0 -19 -8.5 -27.5t-27.5 -8.5zM308 830v59h-10v-59h10z" />
    <glyph glyph-name="dotlessi" unicode="&#x131;" horiz-adv-x="605" 
d="M89 0q-19 0 -27.5 8.5t-8.5 27.5v119q0 19 8.5 27.5t27.5 8.5h99v336h-99q-19 0 -27.5 8.5t-8.5 27.5v121q0 19 8.5 27.5t27.5 8.5h426q19 0 27.5 -8.5t8.5 -27.5v-121q0 -19 -8.5 -27.5t-27.5 -8.5h-97v-336h97q19 0 27.5 -8.5t8.5 -27.5v-119q0 -19 -8.5 -27.5
t-27.5 -8.5h-426zM461 90v10h-153v520h153v10h-318v-10h155v-520h-155v-10h318z" />
    <glyph glyph-name="IJ" unicode="&#x132;" horiz-adv-x="744" 
d="M69 36v121q0 19 8.5 27.5t27.5 8.5h275q36 0 54.5 15.5t18.5 51.5v424q0 19 8.5 27.5t27.5 8.5h155q19 0 27.5 -8.5t8.5 -27.5v-474q0 -99 -57 -154.5t-156 -55.5h-362q-19 0 -27.5 8.5t-8.5 27.5zM260 310h-155q-19 0 -27.5 8.5t-8.5 27.5v338q0 19 8.5 27.5t27.5 8.5
h155q19 0 27.5 -8.5t8.5 -27.5v-338q0 -19 -8.5 -27.5t-27.5 -8.5zM187 400v230h-10v-230h10zM420 90q48 0 78 11t46 32t22 52t6 71v374h-10v-374q0 -77 -27 -116.5t-115 -39.5h-261v-10h261z" />
    <glyph glyph-name="ij" unicode="&#x133;" horiz-adv-x="744" 
d="M69 36v121q0 19 8.5 27.5t27.5 8.5h275q36 0 54.5 15.5t18.5 51.5v424q0 19 8.5 27.5t27.5 8.5h155q19 0 27.5 -8.5t8.5 -27.5v-474q0 -99 -57 -154.5t-156 -55.5h-362q-19 0 -27.5 8.5t-8.5 27.5zM260 310h-155q-19 0 -27.5 8.5t-8.5 27.5v338q0 19 8.5 27.5t27.5 8.5
h155q19 0 27.5 -8.5t8.5 -27.5v-338q0 -19 -8.5 -27.5t-27.5 -8.5zM187 400v230h-10v-230h10zM420 90q48 0 78 11t46 32t22 52t6 71v374h-10v-374q0 -77 -27 -116.5t-115 -39.5h-261v-10h261z" />
    <glyph glyph-name="Jcircumflex" unicode="&#x134;" horiz-adv-x="688" 
d="M624 189q0 -46 -13 -83.5t-45.5 -64t-89.5 -41.5t-145 -15q-87 0 -143.5 15t-89 41.5t-45 64t-12.5 83.5v162q0 19 8.5 27.5t27.5 8.5h145q19 0 27.5 -8.5t8.5 -27.5v-122q0 -20 12.5 -33.5t58.5 -13.5q43 0 54.5 13.5t11.5 33.5v455q0 19 8.5 27.5t27.5 8.5h157
q19 0 27.5 -8.5t8.5 -27.5v-495zM504 630v-417q0 -56 -36 -90.5t-135 -34.5q-103 0 -140.5 34t-37.5 91v79h-10v-79q0 -30 8.5 -55t29.5 -42.5t57.5 -27.5t92.5 -10q106 0 143.5 38t37.5 97v417h-10zM470 797l-137 -40q-25 -8 -33 -2t-8 33v81q0 27 8.5 35t32.5 18l128 46
q9 4 19.5 6t19.5 3q9 0 17 -1t15 -4l137 -50q25 -10 33.5 -18t8.5 -35v-81q0 -27 -8 -33t-34 2l-137 40q-17 4 -31 4t-31 -4zM620 850v11l-83 27q-9 2 -17 4t-19 2t-19 -2t-17 -4l-83 -27v-11l87 28q7 2 14.5 4t17.5 2t17.5 -2t14.5 -4z" />
    <glyph glyph-name="jcircumflex" unicode="&#x135;" horiz-adv-x="688" 
d="M624 189q0 -46 -13 -83.5t-45.5 -64t-89.5 -41.5t-145 -15q-87 0 -143.5 15t-89 41.5t-45 64t-12.5 83.5v162q0 19 8.5 27.5t27.5 8.5h145q19 0 27.5 -8.5t8.5 -27.5v-122q0 -20 12.5 -33.5t58.5 -13.5q43 0 54.5 13.5t11.5 33.5v455q0 19 8.5 27.5t27.5 8.5h157
q19 0 27.5 -8.5t8.5 -27.5v-495zM504 630v-417q0 -56 -36 -90.5t-135 -34.5q-103 0 -140.5 34t-37.5 91v79h-10v-79q0 -30 8.5 -55t29.5 -42.5t57.5 -27.5t92.5 -10q106 0 143.5 38t37.5 97v417h-10zM470 797l-137 -40q-25 -8 -33 -2t-8 33v81q0 27 8.5 35t32.5 18l128 46
q9 4 19.5 6t19.5 3q9 0 17 -1t15 -4l137 -50q25 -10 33.5 -18t8.5 -35v-81q0 -27 -8 -33t-34 2l-137 40q-17 4 -31 4t-31 -4zM620 850v11l-83 27q-9 2 -17 4t-19 2t-19 -2t-17 -4l-83 -27v-11l87 28q7 2 14.5 4t17.5 2t17.5 -2t14.5 -4z" />
    <glyph glyph-name="Kcommaaccent" unicode="&#x136;" horiz-adv-x="746" 
d="M188 90v264h269q55 0 83 -20t28 -68v-176h10v176q0 52 -30 75t-91 23h-41l115 266h-11l-115 -266h-217v266h-10v-540h10zM260 0h-155q-19 0 -27.5 8.5t-8.5 27.5v648q0 19 8.5 27.5t27.5 8.5h155q19 0 27.5 -8.5t8.5 -27.5v-230h40l103 233q7 18 19 25.5t31 7.5h154
q17 0 23 -8.5t-1 -24.5l-102 -233q56 -3 89.5 -39.5t33.5 -96.5v-282q0 -19 -8.5 -27.5t-27.5 -8.5h-154q-19 0 -27.5 8.5t-8.5 27.5v195q0 16 -8 25t-24 9h-132v-229q0 -19 -8.5 -27.5t-27.5 -8.5zM364 -362h-66q-16 0 -23 7.5t-7 23.5v34q0 16 7 23t23 7h59q11 0 17 6.5
t6 17.5v13h-86q-21 0 -29 8.5t-8 30.5v109q0 22 8 30.5t29 8.5h158q21 0 29 -8.5t8 -30.5v-152q0 -64 -34 -96t-91 -32zM432 -132h-118v-10h108v-87q0 -40 -18.5 -58t-54.5 -18h-35v-10h35q40 0 61.5 20t21.5 66v97z" />
    <glyph glyph-name="kcommaaccent" unicode="&#x137;" horiz-adv-x="746" 
d="M188 90v264h269q55 0 83 -20t28 -68v-176h10v176q0 52 -30 75t-91 23h-41l115 266h-11l-115 -266h-217v266h-10v-540h10zM260 0h-155q-19 0 -27.5 8.5t-8.5 27.5v648q0 19 8.5 27.5t27.5 8.5h155q19 0 27.5 -8.5t8.5 -27.5v-230h40l103 233q7 18 19 25.5t31 7.5h154
q17 0 23 -8.5t-1 -24.5l-102 -233q56 -3 89.5 -39.5t33.5 -96.5v-282q0 -19 -8.5 -27.5t-27.5 -8.5h-154q-19 0 -27.5 8.5t-8.5 27.5v195q0 16 -8 25t-24 9h-132v-229q0 -19 -8.5 -27.5t-27.5 -8.5zM364 -362h-66q-16 0 -23 7.5t-7 23.5v34q0 16 7 23t23 7h59q11 0 17 6.5
t6 17.5v13h-86q-21 0 -29 8.5t-8 30.5v109q0 22 8 30.5t29 8.5h158q21 0 29 -8.5t8 -30.5v-152q0 -64 -34 -96t-91 -32zM432 -132h-118v-10h108v-87q0 -40 -18.5 -58t-54.5 -18h-35v-10h35q40 0 61.5 20t21.5 66v97z" />
    <glyph glyph-name="kgreenlandic" unicode="&#x138;" horiz-adv-x="746" 
d="M188 90v264h269q55 0 83 -20t28 -68v-176h10v176q0 52 -30 75t-91 23h-41l115 266h-11l-115 -266h-217v266h-10v-540h10zM260 0h-155q-19 0 -27.5 8.5t-8.5 27.5v648q0 19 8.5 27.5t27.5 8.5h155q19 0 27.5 -8.5t8.5 -27.5v-230h40l103 233q7 18 19 25.5t31 7.5h154
q17 0 23 -8.5t-1 -24.5l-102 -233q56 -3 89.5 -39.5t33.5 -96.5v-282q0 -19 -8.5 -27.5t-27.5 -8.5h-154q-19 0 -27.5 8.5t-8.5 27.5v195q0 16 -8 25t-24 9h-132v-229q0 -19 -8.5 -27.5t-27.5 -8.5z" />
    <glyph glyph-name="Lacute" unicode="&#x139;" horiz-adv-x="695" 
d="M614 0h-509q-19 0 -27.5 8.5t-8.5 27.5v648q0 19 8.5 27.5t27.5 8.5h155q19 0 27.5 -8.5t8.5 -27.5v-495h137v162q0 19 8.5 27.5t27.5 8.5h145q19 0 27.5 -8.5t8.5 -27.5v-315q0 -19 -8.5 -27.5t-27.5 -8.5zM178 90h368v207h-10v-197h-348v530h-10v-540zM452 796
l-349 -43q-17 -2 -25.5 7t-8.5 26v96q0 19 8.5 26.5t27.5 9.5l349 43q17 2 25.5 -7t8.5 -26v-96q0 -19 -8.5 -26.5t-27.5 -9.5zM159 847v-10l239 30v10z" />
    <glyph glyph-name="lacute" unicode="&#x13a;" horiz-adv-x="695" 
d="M614 0h-509q-19 0 -27.5 8.5t-8.5 27.5v648q0 19 8.5 27.5t27.5 8.5h155q19 0 27.5 -8.5t8.5 -27.5v-495h137v162q0 19 8.5 27.5t27.5 8.5h145q19 0 27.5 -8.5t8.5 -27.5v-315q0 -19 -8.5 -27.5t-27.5 -8.5zM178 90h368v207h-10v-197h-348v530h-10v-540zM452 796
l-349 -43q-17 -2 -25.5 7t-8.5 26v96q0 19 8.5 26.5t27.5 9.5l349 43q17 2 25.5 -7t8.5 -26v-96q0 -19 -8.5 -26.5t-27.5 -9.5zM159 847v-10l239 30v10z" />
    <glyph glyph-name="Lcommaaccent" unicode="&#x13b;" horiz-adv-x="695" 
d="M614 0h-509q-19 0 -27.5 8.5t-8.5 27.5v648q0 19 8.5 27.5t27.5 8.5h155q19 0 27.5 -8.5t8.5 -27.5v-495h137v162q0 19 8.5 27.5t27.5 8.5h145q19 0 27.5 -8.5t8.5 -27.5v-315q0 -19 -8.5 -27.5t-27.5 -8.5zM178 90h368v207h-10v-197h-348v530h-10v-540zM355 -362h-66
q-16 0 -23 7.5t-7 23.5v34q0 16 7 23t23 7h59q11 0 17 6.5t6 17.5v13h-86q-21 0 -29 8.5t-8 30.5v109q0 22 8 30.5t29 8.5h158q21 0 29 -8.5t8 -30.5v-152q0 -64 -34 -96t-91 -32zM423 -132h-118v-10h108v-87q0 -40 -18.5 -58t-54.5 -18h-35v-10h35q40 0 61.5 20t21.5 66v97
z" />
    <glyph glyph-name="lcommaaccent" unicode="&#x13c;" horiz-adv-x="695" 
d="M614 0h-509q-19 0 -27.5 8.5t-8.5 27.5v648q0 19 8.5 27.5t27.5 8.5h155q19 0 27.5 -8.5t8.5 -27.5v-495h137v162q0 19 8.5 27.5t27.5 8.5h145q19 0 27.5 -8.5t8.5 -27.5v-315q0 -19 -8.5 -27.5t-27.5 -8.5zM178 90h368v207h-10v-197h-348v530h-10v-540zM355 -362h-66
q-16 0 -23 7.5t-7 23.5v34q0 16 7 23t23 7h59q11 0 17 6.5t6 17.5v13h-86q-21 0 -29 8.5t-8 30.5v109q0 22 8 30.5t29 8.5h158q21 0 29 -8.5t8 -30.5v-152q0 -64 -34 -96t-91 -32zM423 -132h-118v-10h108v-87q0 -40 -18.5 -58t-54.5 -18h-35v-10h35q40 0 61.5 20t21.5 66v97
z" />
    <glyph glyph-name="Lcaron" unicode="&#x13d;" horiz-adv-x="695" 
d="M614 0h-509q-19 0 -27.5 8.5t-8.5 27.5v648q0 19 8.5 27.5t27.5 8.5h155q19 0 27.5 -8.5t8.5 -27.5v-495h137v162q0 19 8.5 27.5t27.5 8.5h145q19 0 27.5 -8.5t8.5 -27.5v-315q0 -19 -8.5 -27.5t-27.5 -8.5zM178 90h368v207h-10v-197h-348v530h-10v-540zM562 452h-124
q-19 0 -29 8.5t-7 27.5l33 196q3 19 10 27.5t26 8.5h138q19 0 29.5 -9t6.5 -27l-47 -196q-4 -18 -10.5 -27t-25.5 -9zM516 537l18 93h-11l-18 -93h11z" />
    <glyph glyph-name="lcaron" unicode="&#x13e;" horiz-adv-x="695" 
d="M614 0h-509q-19 0 -27.5 8.5t-8.5 27.5v648q0 19 8.5 27.5t27.5 8.5h155q19 0 27.5 -8.5t8.5 -27.5v-495h137v162q0 19 8.5 27.5t27.5 8.5h145q19 0 27.5 -8.5t8.5 -27.5v-315q0 -19 -8.5 -27.5t-27.5 -8.5zM178 90h368v207h-10v-197h-348v530h-10v-540zM562 452h-124
q-19 0 -29 8.5t-7 27.5l33 196q3 19 10 27.5t26 8.5h138q19 0 29.5 -9t6.5 -27l-47 -196q-4 -18 -10.5 -27t-25.5 -9zM516 537l18 93h-11l-18 -93h11z" />
    <glyph glyph-name="Ldot" unicode="&#x13f;" horiz-adv-x="695" 
d="M614 0h-509q-19 0 -27.5 8.5t-8.5 27.5v648q0 19 8.5 27.5t27.5 8.5h155q19 0 27.5 -8.5t8.5 -27.5v-495h137v82q0 19 8.5 27.5t27.5 8.5h145q19 0 27.5 -8.5t8.5 -27.5v-235q0 -19 -8.5 -27.5t-27.5 -8.5zM178 90h368v127h-10v-117h-348v530h-10v-540zM604 372h-145
q-19 0 -27.5 8.5t-8.5 27.5v127q0 19 8.5 27.5t27.5 8.5h145q19 0 27.5 -8.5t8.5 -27.5v-127q0 -19 -8.5 -27.5t-27.5 -8.5zM527 442h10v55h-10v-55z" />
    <glyph glyph-name="ldot" unicode="&#x140;" horiz-adv-x="695" 
d="M614 0h-509q-19 0 -27.5 8.5t-8.5 27.5v648q0 19 8.5 27.5t27.5 8.5h155q19 0 27.5 -8.5t8.5 -27.5v-495h137v82q0 19 8.5 27.5t27.5 8.5h145q19 0 27.5 -8.5t8.5 -27.5v-235q0 -19 -8.5 -27.5t-27.5 -8.5zM178 90h368v127h-10v-117h-348v530h-10v-540zM604 372h-145
q-19 0 -27.5 8.5t-8.5 27.5v127q0 19 8.5 27.5t27.5 8.5h145q19 0 27.5 -8.5t8.5 -27.5v-127q0 -19 -8.5 -27.5t-27.5 -8.5zM527 442h10v55h-10v-55z" />
    <glyph glyph-name="Lslash" unicode="&#x141;" horiz-adv-x="705" 
d="M624 0h-509q-19 0 -27.5 8.5t-8.5 27.5v253l-23 -4q-19 -3 -27.5 7t-8.5 29v107q0 19 8.5 26t27.5 10l23 4v216q0 19 8.5 27.5t27.5 8.5h155q19 0 27.5 -8.5t8.5 -27.5v-179l58 9q19 3 27.5 -7t8.5 -29v-107q0 -19 -8.5 -26t-27.5 -10l-58 -9v-137h137v162q0 19 8.5 27.5
t27.5 8.5h145q19 0 27.5 -8.5t8.5 -27.5v-315q0 -19 -8.5 -27.5t-27.5 -8.5zM188 90h368v207h-10v-197h-348v293l112 18v10l-112 -18v227h-10v-229l-78 -13v-10l78 13v-301z" />
    <glyph glyph-name="lslash" unicode="&#x142;" horiz-adv-x="705" 
d="M624 0h-509q-19 0 -27.5 8.5t-8.5 27.5v253l-23 -4q-19 -3 -27.5 7t-8.5 29v107q0 19 8.5 26t27.5 10l23 4v216q0 19 8.5 27.5t27.5 8.5h155q19 0 27.5 -8.5t8.5 -27.5v-179l58 9q19 3 27.5 -7t8.5 -29v-107q0 -19 -8.5 -26t-27.5 -10l-58 -9v-137h137v162q0 19 8.5 27.5
t27.5 8.5h145q19 0 27.5 -8.5t8.5 -27.5v-315q0 -19 -8.5 -27.5t-27.5 -8.5zM188 90h368v207h-10v-197h-348v293l112 18v10l-112 -18v227h-10v-229l-78 -13v-10l78 13v-301z" />
    <glyph glyph-name="Nacute" unicode="&#x143;" horiz-adv-x="753" 
d="M201 622q-5 5 -8 7t-7 2t-8 -3t-4 -9v-529h10v527q0 1 0.5 2t1.5 1t2.5 -1t2.5 -2l378 -424v-103h10v540h-10v-422zM255 0h-150q-19 0 -27.5 8.5t-8.5 27.5v648q0 19 8.5 27.5t27.5 8.5h104q19 0 32.5 -6t26.5 -21l194 -222v213q0 19 8.5 27.5t27.5 8.5h150
q19 0 27.5 -8.5t8.5 -27.5v-648q0 -19 -8.5 -27.5t-27.5 -8.5h-150q-19 0 -27.5 8.5t-8.5 27.5v123l-171 207v-330q0 -19 -8.5 -27.5t-27.5 -8.5zM559 796l-349 -43q-17 -2 -25.5 7t-8.5 26v96q0 19 8.5 26.5t27.5 9.5l349 43q17 2 25.5 -7t8.5 -26v-96q0 -19 -8.5 -26.5
t-27.5 -9.5zM266 847v-10l239 30v10z" />
    <glyph glyph-name="nacute" unicode="&#x144;" horiz-adv-x="753" 
d="M201 622q-5 5 -8 7t-7 2t-8 -3t-4 -9v-529h10v527q0 1 0.5 2t1.5 1t2.5 -1t2.5 -2l378 -424v-103h10v540h-10v-422zM255 0h-150q-19 0 -27.5 8.5t-8.5 27.5v648q0 19 8.5 27.5t27.5 8.5h104q19 0 32.5 -6t26.5 -21l194 -222v213q0 19 8.5 27.5t27.5 8.5h150
q19 0 27.5 -8.5t8.5 -27.5v-648q0 -19 -8.5 -27.5t-27.5 -8.5h-150q-19 0 -27.5 8.5t-8.5 27.5v123l-171 207v-330q0 -19 -8.5 -27.5t-27.5 -8.5zM559 796l-349 -43q-17 -2 -25.5 7t-8.5 26v96q0 19 8.5 26.5t27.5 9.5l349 43q17 2 25.5 -7t8.5 -26v-96q0 -19 -8.5 -26.5
t-27.5 -9.5zM266 847v-10l239 30v10z" />
    <glyph glyph-name="Ncommaaccent" unicode="&#x145;" horiz-adv-x="753" 
d="M201 622q-5 5 -8 7t-7 2t-8 -3t-4 -9v-529h10v527q0 1 0.5 2t1.5 1t2.5 -1t2.5 -2l378 -424v-103h10v540h-10v-422zM255 0h-150q-19 0 -27.5 8.5t-8.5 27.5v648q0 19 8.5 27.5t27.5 8.5h104q19 0 32.5 -6t26.5 -21l194 -222v213q0 19 8.5 27.5t27.5 8.5h150
q19 0 27.5 -8.5t8.5 -27.5v-648q0 -19 -8.5 -27.5t-27.5 -8.5h-150q-19 0 -27.5 8.5t-8.5 27.5v123l-171 207v-330q0 -19 -8.5 -27.5t-27.5 -8.5zM367 -362h-66q-16 0 -23 7.5t-7 23.5v34q0 16 7 23t23 7h59q11 0 17 6.5t6 17.5v13h-86q-21 0 -29 8.5t-8 30.5v109
q0 22 8 30.5t29 8.5h158q21 0 29 -8.5t8 -30.5v-152q0 -64 -34 -96t-91 -32zM435 -132h-118v-10h108v-87q0 -40 -18.5 -58t-54.5 -18h-35v-10h35q40 0 61.5 20t21.5 66v97z" />
    <glyph glyph-name="ncommaaccent" unicode="&#x146;" horiz-adv-x="753" 
d="M201 622q-5 5 -8 7t-7 2t-8 -3t-4 -9v-529h10v527q0 1 0.5 2t1.5 1t2.5 -1t2.5 -2l378 -424v-103h10v540h-10v-422zM255 0h-150q-19 0 -27.5 8.5t-8.5 27.5v648q0 19 8.5 27.5t27.5 8.5h104q19 0 32.5 -6t26.5 -21l194 -222v213q0 19 8.5 27.5t27.5 8.5h150
q19 0 27.5 -8.5t8.5 -27.5v-648q0 -19 -8.5 -27.5t-27.5 -8.5h-150q-19 0 -27.5 8.5t-8.5 27.5v123l-171 207v-330q0 -19 -8.5 -27.5t-27.5 -8.5zM367 -362h-66q-16 0 -23 7.5t-7 23.5v34q0 16 7 23t23 7h59q11 0 17 6.5t6 17.5v13h-86q-21 0 -29 8.5t-8 30.5v109
q0 22 8 30.5t29 8.5h158q21 0 29 -8.5t8 -30.5v-152q0 -64 -34 -96t-91 -32zM435 -132h-118v-10h108v-87q0 -40 -18.5 -58t-54.5 -18h-35v-10h35q40 0 61.5 20t21.5 66v97z" />
    <glyph glyph-name="Ncaron" unicode="&#x147;" horiz-adv-x="753" 
d="M201 622q-5 5 -8 7t-7 2t-8 -3t-4 -9v-529h10v527q0 1 0.5 2t1.5 1t2.5 -1t2.5 -2l378 -424v-103h10v540h-10v-422zM255 0h-150q-19 0 -27.5 8.5t-8.5 27.5v648q0 19 8.5 27.5t27.5 8.5h104q19 0 32.5 -6t26.5 -21l194 -222v213q0 19 8.5 27.5t27.5 8.5h150
q19 0 27.5 -8.5t8.5 -27.5v-648q0 -19 -8.5 -27.5t-27.5 -8.5h-150q-19 0 -27.5 8.5t-8.5 27.5v123l-171 207v-330q0 -19 -8.5 -27.5t-27.5 -8.5zM397 932l137 40q25 8 33 2t8 -33v-81q0 -27 -8.5 -35t-32.5 -18l-128 -46q-9 -4 -19.5 -6t-19.5 -3q-9 0 -17 1t-15 4l-137 50
q-25 10 -33.5 18t-8.5 35v81q0 27 8 33t34 -2l137 -40q17 -4 31 -4t31 4zM246 879v-11l83 -27q9 -2 17 -4t19 -2t19 2t17 4l83 27v11l-87 -28q-7 -2 -14.5 -4t-17.5 -2t-17.5 2t-14.5 4z" />
    <glyph glyph-name="ncaron" unicode="&#x148;" horiz-adv-x="753" 
d="M201 622q-5 5 -8 7t-7 2t-8 -3t-4 -9v-529h10v527q0 1 0.5 2t1.5 1t2.5 -1t2.5 -2l378 -424v-103h10v540h-10v-422zM255 0h-150q-19 0 -27.5 8.5t-8.5 27.5v648q0 19 8.5 27.5t27.5 8.5h104q19 0 32.5 -6t26.5 -21l194 -222v213q0 19 8.5 27.5t27.5 8.5h150
q19 0 27.5 -8.5t8.5 -27.5v-648q0 -19 -8.5 -27.5t-27.5 -8.5h-150q-19 0 -27.5 8.5t-8.5 27.5v123l-171 207v-330q0 -19 -8.5 -27.5t-27.5 -8.5zM397 932l137 40q25 8 33 2t8 -33v-81q0 -27 -8.5 -35t-32.5 -18l-128 -46q-9 -4 -19.5 -6t-19.5 -3q-9 0 -17 1t-15 4l-137 50
q-25 10 -33.5 18t-8.5 35v81q0 27 8 33t34 -2l137 -40q17 -4 31 -4t31 4zM246 879v-11l83 -27q9 -2 17 -4t19 -2t19 2t17 4l83 27v11l-87 -28q-7 -2 -14.5 -4t-17.5 -2t-17.5 2t-14.5 4z" />
    <glyph glyph-name="napostrophe" unicode="&#x149;" horiz-adv-x="753" 
d="M201 622q-5 5 -8 7t-7 2t-8 -3t-4 -9v-529h10v527q0 1 0.5 2t1.5 1t2.5 -1t2.5 -2l378 -424v-103h10v540h-10v-422zM255 0h-150q-19 0 -27.5 8.5t-8.5 27.5v648q0 19 8.5 27.5t27.5 8.5h104q19 0 32.5 -6t26.5 -21l194 -222v213q0 19 8.5 27.5t27.5 8.5h150
q19 0 27.5 -8.5t8.5 -27.5v-648q0 -19 -8.5 -27.5t-27.5 -8.5h-150q-19 0 -27.5 8.5t-8.5 27.5v123l-171 207v-330q0 -19 -8.5 -27.5t-27.5 -8.5zM163 751h-66q-16 0 -23 7.5t-7 23.5v34q0 16 7 23t23 7h59q11 0 17 6.5t6 17.5v13h-86q-21 0 -29 8.5t-8 30.5v109
q0 22 8 30.5t29 8.5h158q21 0 29 -8.5t8 -30.5v-152q0 -64 -34 -96t-91 -32zM231 981h-118v-10h108v-87q0 -40 -18.5 -58t-54.5 -18h-35v-10h35q40 0 61.5 20t21.5 66v97z" />
    <glyph glyph-name="Eng" unicode="&#x14a;" horiz-adv-x="746" 
d="M64 531q0 46 13.5 83.5t48 64t94.5 41.5t153 15t153 -15t94.5 -41.5t48 -64t13.5 -83.5v-417q0 -90 -52.5 -147t-193.5 -57h-45q-19 0 -27.5 8.5t-8.5 27.5v119q0 19 8.5 27.5t27.5 8.5h21q26 0 33.5 13.5t7.5 34.5v343q0 20 -15 33.5t-67 13.5q-53 0 -68 -13.5
t-15 -33.5v-456q0 -19 -8.5 -27.5t-27.5 -8.5h-152q-19 0 -27.5 8.5t-8.5 27.5v495zM445 1q69 0 98 23.5t29 75.5v407q0 60 -41.5 97.5t-158.5 37.5t-159 -37.5t-42 -97.5v-417h10v417q0 56 40 90.5t151 34.5t150.5 -34.5t39.5 -90.5v-407q0 -48 -28 -68.5t-89 -20.5v-10z
" />
    <glyph glyph-name="eng" unicode="&#x14b;" horiz-adv-x="746" 
d="M64 531q0 46 13.5 83.5t48 64t94.5 41.5t153 15t153 -15t94.5 -41.5t48 -64t13.5 -83.5v-417q0 -90 -52.5 -147t-193.5 -57h-45q-19 0 -27.5 8.5t-8.5 27.5v119q0 19 8.5 27.5t27.5 8.5h21q26 0 33.5 13.5t7.5 34.5v343q0 20 -15 33.5t-67 13.5q-53 0 -68 -13.5
t-15 -33.5v-456q0 -19 -8.5 -27.5t-27.5 -8.5h-152q-19 0 -27.5 8.5t-8.5 27.5v495zM445 1q69 0 98 23.5t29 75.5v407q0 60 -41.5 97.5t-158.5 37.5t-159 -37.5t-42 -97.5v-417h10v417q0 56 40 90.5t151 34.5t150.5 -34.5t39.5 -90.5v-407q0 -48 -28 -68.5t-89 -20.5v-10z
" />
    <glyph glyph-name="Omacron" unicode="&#x14c;" horiz-adv-x="737" 
d="M679 189q0 -46 -13.5 -83.5t-48 -64t-95 -41.5t-153.5 -15t-154 15t-95.5 41.5t-48 64t-13.5 83.5v341q0 46 13.5 83.5t48 64.5t95.5 42t154 15t153.5 -15t95 -42t48 -64.5t13.5 -83.5v-341zM570 212v295q0 60 -43 97.5t-160 37.5t-159 -37.5t-42 -97.5v-295
q0 -60 42 -97.5t159 -37.5t160 37.5t43 97.5zM176 212v295q0 56 40 90.5t151 34.5t152 -34.5t41 -90.5v-295q0 -56 -41 -90.5t-152 -34.5t-151 34.5t-40 90.5zM285 225q0 -20 15 -33.5t69 -13.5t69 13.5t15 33.5v269q0 19 -15 32.5t-69 13.5t-69 -13.5t-15 -32.5v-269z
M541 760h-347q-19 0 -27.5 8.5t-8.5 27.5v93q0 19 8.5 27.5t27.5 8.5h347q19 0 27.5 -8.5t8.5 -27.5v-93q0 -19 -8.5 -27.5t-27.5 -8.5zM248 847v-10h239v10h-239z" />
    <glyph glyph-name="omacron" unicode="&#x14d;" horiz-adv-x="737" 
d="M679 189q0 -46 -13.5 -83.5t-48 -64t-95 -41.5t-153.5 -15t-154 15t-95.5 41.5t-48 64t-13.5 83.5v341q0 46 13.5 83.5t48 64.5t95.5 42t154 15t153.5 -15t95 -42t48 -64.5t13.5 -83.5v-341zM570 212v295q0 60 -43 97.5t-160 37.5t-159 -37.5t-42 -97.5v-295
q0 -60 42 -97.5t159 -37.5t160 37.5t43 97.5zM176 212v295q0 56 40 90.5t151 34.5t152 -34.5t41 -90.5v-295q0 -56 -41 -90.5t-152 -34.5t-151 34.5t-40 90.5zM285 225q0 -20 15 -33.5t69 -13.5t69 13.5t15 33.5v269q0 19 -15 32.5t-69 13.5t-69 -13.5t-15 -32.5v-269z
M541 760h-347q-19 0 -27.5 8.5t-8.5 27.5v93q0 19 8.5 27.5t27.5 8.5h347q19 0 27.5 -8.5t8.5 -27.5v-93q0 -19 -8.5 -27.5t-27.5 -8.5zM248 847v-10h239v10h-239z" />
    <glyph glyph-name="Obreve" unicode="&#x14e;" horiz-adv-x="737" 
d="M679 189q0 -46 -13.5 -83.5t-48 -64t-95 -41.5t-153.5 -15t-154 15t-95.5 41.5t-48 64t-13.5 83.5v341q0 46 13.5 83.5t48 64.5t95.5 42t154 15t153.5 -15t95 -42t48 -64.5t13.5 -83.5v-341zM570 212v295q0 60 -43 97.5t-160 37.5t-159 -37.5t-42 -97.5v-295
q0 -60 42 -97.5t159 -37.5t160 37.5t43 97.5zM176 212v295q0 56 40 90.5t151 34.5t152 -34.5t41 -90.5v-295q0 -56 -41 -90.5t-152 -34.5t-151 34.5t-40 90.5zM285 225q0 -20 15 -33.5t69 -13.5t69 13.5t15 33.5v269q0 19 -15 32.5t-69 13.5t-69 -13.5t-15 -32.5v-269z
M585 897q0 -32 -9.5 -58.5t-34 -45t-66.5 -29t-107 -10.5t-107 10.5t-66.5 29t-34 45t-9.5 58.5v44q0 19 8.5 27.5t27.5 8.5h96q16 0 22.5 -6.5t6.5 -24.5v-21q0 -14 10 -23.5t47 -9.5t48 9.5t11 23.5v21q0 18 6.5 24.5t23.5 6.5h91q19 0 27.5 -8.5t8.5 -27.5v-44zM502 907
v-9q0 -27 -27 -48.5t-108 -21.5t-105.5 21.5t-24.5 48.5v9h-10v-9q0 -14 4.5 -28.5t19 -26t42.5 -18.5t74 -7t75 7t44 18.5t20.5 26t5.5 28.5v9h-10z" />
    <glyph glyph-name="obreve" unicode="&#x14f;" horiz-adv-x="737" 
d="M679 189q0 -46 -13.5 -83.5t-48 -64t-95 -41.5t-153.5 -15t-154 15t-95.5 41.5t-48 64t-13.5 83.5v341q0 46 13.5 83.5t48 64.5t95.5 42t154 15t153.5 -15t95 -42t48 -64.5t13.5 -83.5v-341zM570 212v295q0 60 -43 97.5t-160 37.5t-159 -37.5t-42 -97.5v-295
q0 -60 42 -97.5t159 -37.5t160 37.5t43 97.5zM176 212v295q0 56 40 90.5t151 34.5t152 -34.5t41 -90.5v-295q0 -56 -41 -90.5t-152 -34.5t-151 34.5t-40 90.5zM285 225q0 -20 15 -33.5t69 -13.5t69 13.5t15 33.5v269q0 19 -15 32.5t-69 13.5t-69 -13.5t-15 -32.5v-269z
M585 897q0 -32 -9.5 -58.5t-34 -45t-66.5 -29t-107 -10.5t-107 10.5t-66.5 29t-34 45t-9.5 58.5v44q0 19 8.5 27.5t27.5 8.5h96q16 0 22.5 -6.5t6.5 -24.5v-21q0 -14 10 -23.5t47 -9.5t48 9.5t11 23.5v21q0 18 6.5 24.5t23.5 6.5h91q19 0 27.5 -8.5t8.5 -27.5v-44zM502 907
v-9q0 -27 -27 -48.5t-108 -21.5t-105.5 21.5t-24.5 48.5v9h-10v-9q0 -14 4.5 -28.5t19 -26t42.5 -18.5t74 -7t75 7t44 18.5t20.5 26t5.5 28.5v9h-10z" />
    <glyph glyph-name="Ohungarumlaut" unicode="&#x150;" horiz-adv-x="737" 
d="M679 189q0 -46 -13.5 -83.5t-48 -64t-95 -41.5t-153.5 -15t-154 15t-95.5 41.5t-48 64t-13.5 83.5v341q0 46 13.5 83.5t48 64.5t95.5 42t154 15t153.5 -15t95 -42t48 -64.5t13.5 -83.5v-341zM570 212v295q0 60 -43 97.5t-160 37.5t-159 -37.5t-42 -97.5v-295
q0 -60 42 -97.5t159 -37.5t160 37.5t43 97.5zM176 212v295q0 56 40 90.5t151 34.5t152 -34.5t41 -90.5v-295q0 -56 -41 -90.5t-152 -34.5t-151 34.5t-40 90.5zM285 225q0 -20 15 -33.5t69 -13.5t69 13.5t15 33.5v269q0 19 -15 32.5t-69 13.5t-69 -13.5t-15 -32.5v-269z
M151 794l53 207q4 18 10.5 27t25.5 9h106q17 0 27 -9t6 -25l-53 -207q-4 -18 -10.5 -27t-25.5 -9h-106q-17 0 -27 9t-6 25zM411 794l53 207q4 18 10.5 27t25.5 9h106q17 0 27 -9t6 -25l-53 -207q-4 -18 -10.5 -27t-25.5 -9h-106q-17 0 -27 9t-6 25zM518 850l25 97h-11
l-25 -97h11zM258 850l25 97h-11l-25 -97h11z" />
    <glyph glyph-name="ohungarumlaut" unicode="&#x151;" horiz-adv-x="737" 
d="M679 189q0 -46 -13.5 -83.5t-48 -64t-95 -41.5t-153.5 -15t-154 15t-95.5 41.5t-48 64t-13.5 83.5v341q0 46 13.5 83.5t48 64.5t95.5 42t154 15t153.5 -15t95 -42t48 -64.5t13.5 -83.5v-341zM570 212v295q0 60 -43 97.5t-160 37.5t-159 -37.5t-42 -97.5v-295
q0 -60 42 -97.5t159 -37.5t160 37.5t43 97.5zM176 212v295q0 56 40 90.5t151 34.5t152 -34.5t41 -90.5v-295q0 -56 -41 -90.5t-152 -34.5t-151 34.5t-40 90.5zM285 225q0 -20 15 -33.5t69 -13.5t69 13.5t15 33.5v269q0 19 -15 32.5t-69 13.5t-69 -13.5t-15 -32.5v-269z
M151 794l53 207q4 18 10.5 27t25.5 9h106q17 0 27 -9t6 -25l-53 -207q-4 -18 -10.5 -27t-25.5 -9h-106q-17 0 -27 9t-6 25zM411 794l53 207q4 18 10.5 27t25.5 9h106q17 0 27 -9t6 -25l-53 -207q-4 -18 -10.5 -27t-25.5 -9h-106q-17 0 -27 9t-6 25zM518 850l25 97h-11
l-25 -97h11zM258 850l25 97h-11l-25 -97h11z" />
    <glyph glyph-name="OE" unicode="&#x152;" horiz-adv-x="1015" 
d="M304 0q-141 0 -193.5 57t-52.5 147v312q0 90 52.5 147t193.5 57h626q19 0 27.5 -8.5t8.5 -27.5v-117q0 -19 -8.5 -27.5t-27.5 -8.5h-263v-77h182q19 0 27.5 -8.5t8.5 -27.5v-107q0 -19 -8.5 -27.5t-27.5 -8.5h-182v-86h263q19 0 27.5 -8.5t8.5 -27.5v-117
q0 -19 -8.5 -27.5t-27.5 -8.5h-626zM326 90h540v10h-307v260h226v10h-226v250h307v10h-540q-51 0 -82.5 -11t-48.5 -29.5t-23 -44t-6 -54.5v-265q0 -29 5.5 -54t22.5 -43t49 -28.5t83 -10.5zM326 100q-47 0 -76 9t-45.5 25t-22.5 38.5t-6 48.5v270q0 27 6 51t22 41t45.5 27
t76.5 10h223v-520h-223zM440 189v340h-109q-30 0 -38.5 -14.5t-8.5 -33.5v-243q0 -20 8.5 -34.5t38.5 -14.5h109z" />
    <glyph glyph-name="oe" unicode="&#x153;" horiz-adv-x="1015" 
d="M304 0q-141 0 -193.5 57t-52.5 147v312q0 90 52.5 147t193.5 57h626q19 0 27.5 -8.5t8.5 -27.5v-117q0 -19 -8.5 -27.5t-27.5 -8.5h-263v-77h182q19 0 27.5 -8.5t8.5 -27.5v-107q0 -19 -8.5 -27.5t-27.5 -8.5h-182v-86h263q19 0 27.5 -8.5t8.5 -27.5v-117
q0 -19 -8.5 -27.5t-27.5 -8.5h-626zM326 90h540v10h-307v260h226v10h-226v250h307v10h-540q-51 0 -82.5 -11t-48.5 -29.5t-23 -44t-6 -54.5v-265q0 -29 5.5 -54t22.5 -43t49 -28.5t83 -10.5zM326 100q-47 0 -76 9t-45.5 25t-22.5 38.5t-6 48.5v270q0 27 6 51t22 41t45.5 27
t76.5 10h223v-520h-223zM440 189v340h-109q-30 0 -38.5 -14.5t-8.5 -33.5v-243q0 -20 8.5 -34.5t38.5 -14.5h109z" />
    <glyph glyph-name="Racute" unicode="&#x154;" horiz-adv-x="743" 
d="M405 620q53 0 78.5 -29t25.5 -75v-70q0 -55 -21 -85t-83 -30h-218v289h218zM295 540v-128h75q26 0 35 13.5t9 33.5v34q0 20 -9 33.5t-35 13.5h-75zM187 90v232h283q57 0 84 -24.5t27 -73.5v-134h10v134q0 52 -30 79.5t-91 27.5h-11q36 11 48 40.5t12 75.5v69
q0 49 -28 81.5t-86 32.5h-228v-540h10zM259 0h-154q-19 0 -27.5 8.5t-8.5 27.5v648q0 19 8.5 27.5t27.5 8.5h333q112 0 154.5 -46.5t42.5 -120.5v-46q0 -42 -12.5 -71.5t-43.5 -42.5q54 -6 87.5 -44t33.5 -101v-212q0 -19 -8.5 -27.5t-27.5 -8.5h-155q-19 0 -27.5 8.5
t-8.5 27.5v153q0 22 -8.5 32.5t-29.5 10.5h-140v-196q0 -19 -8.5 -27.5t-27.5 -8.5zM534 796l-349 -43q-17 -2 -25.5 7t-8.5 26v96q0 19 8.5 26.5t27.5 9.5l349 43q17 2 25.5 -7t8.5 -26v-96q0 -19 -8.5 -26.5t-27.5 -9.5zM241 847v-10l239 30v10z" />
    <glyph glyph-name="racute" unicode="&#x155;" horiz-adv-x="743" 
d="M405 620q53 0 78.5 -29t25.5 -75v-70q0 -55 -21 -85t-83 -30h-218v289h218zM295 540v-128h75q26 0 35 13.5t9 33.5v34q0 20 -9 33.5t-35 13.5h-75zM187 90v232h283q57 0 84 -24.5t27 -73.5v-134h10v134q0 52 -30 79.5t-91 27.5h-11q36 11 48 40.5t12 75.5v69
q0 49 -28 81.5t-86 32.5h-228v-540h10zM259 0h-154q-19 0 -27.5 8.5t-8.5 27.5v648q0 19 8.5 27.5t27.5 8.5h333q112 0 154.5 -46.5t42.5 -120.5v-46q0 -42 -12.5 -71.5t-43.5 -42.5q54 -6 87.5 -44t33.5 -101v-212q0 -19 -8.5 -27.5t-27.5 -8.5h-155q-19 0 -27.5 8.5
t-8.5 27.5v153q0 22 -8.5 32.5t-29.5 10.5h-140v-196q0 -19 -8.5 -27.5t-27.5 -8.5zM534 796l-349 -43q-17 -2 -25.5 7t-8.5 26v96q0 19 8.5 26.5t27.5 9.5l349 43q17 2 25.5 -7t8.5 -26v-96q0 -19 -8.5 -26.5t-27.5 -9.5zM241 847v-10l239 30v10z" />
    <glyph glyph-name="Rcommaaccent" unicode="&#x156;" horiz-adv-x="743" 
d="M405 620q53 0 78.5 -29t25.5 -75v-70q0 -55 -21 -85t-83 -30h-218v289h218zM295 540v-128h75q26 0 35 13.5t9 33.5v34q0 20 -9 33.5t-35 13.5h-75zM187 90v232h283q57 0 84 -24.5t27 -73.5v-134h10v134q0 52 -30 79.5t-91 27.5h-11q36 11 48 40.5t12 75.5v69
q0 49 -28 81.5t-86 32.5h-228v-540h10zM259 0h-154q-19 0 -27.5 8.5t-8.5 27.5v648q0 19 8.5 27.5t27.5 8.5h333q112 0 154.5 -46.5t42.5 -120.5v-46q0 -42 -12.5 -71.5t-43.5 -42.5q54 -6 87.5 -44t33.5 -101v-212q0 -19 -8.5 -27.5t-27.5 -8.5h-155q-19 0 -27.5 8.5
t-8.5 27.5v153q0 22 -8.5 32.5t-29.5 10.5h-140v-196q0 -19 -8.5 -27.5t-27.5 -8.5zM372 -362h-66q-16 0 -23 7.5t-7 23.5v34q0 16 7 23t23 7h59q11 0 17 6.5t6 17.5v13h-86q-21 0 -29 8.5t-8 30.5v109q0 22 8 30.5t29 8.5h158q21 0 29 -8.5t8 -30.5v-152q0 -64 -34 -96
t-91 -32zM440 -132h-118v-10h108v-87q0 -40 -18.5 -58t-54.5 -18h-35v-10h35q40 0 61.5 20t21.5 66v97z" />
    <glyph glyph-name="rcommaaccent" unicode="&#x157;" horiz-adv-x="743" 
d="M405 620q53 0 78.5 -29t25.5 -75v-70q0 -55 -21 -85t-83 -30h-218v289h218zM295 540v-128h75q26 0 35 13.5t9 33.5v34q0 20 -9 33.5t-35 13.5h-75zM187 90v232h283q57 0 84 -24.5t27 -73.5v-134h10v134q0 52 -30 79.5t-91 27.5h-11q36 11 48 40.5t12 75.5v69
q0 49 -28 81.5t-86 32.5h-228v-540h10zM259 0h-154q-19 0 -27.5 8.5t-8.5 27.5v648q0 19 8.5 27.5t27.5 8.5h333q112 0 154.5 -46.5t42.5 -120.5v-46q0 -42 -12.5 -71.5t-43.5 -42.5q54 -6 87.5 -44t33.5 -101v-212q0 -19 -8.5 -27.5t-27.5 -8.5h-155q-19 0 -27.5 8.5
t-8.5 27.5v153q0 22 -8.5 32.5t-29.5 10.5h-140v-196q0 -19 -8.5 -27.5t-27.5 -8.5zM372 -362h-66q-16 0 -23 7.5t-7 23.5v34q0 16 7 23t23 7h59q11 0 17 6.5t6 17.5v13h-86q-21 0 -29 8.5t-8 30.5v109q0 22 8 30.5t29 8.5h158q21 0 29 -8.5t8 -30.5v-152q0 -64 -34 -96
t-91 -32zM440 -132h-118v-10h108v-87q0 -40 -18.5 -58t-54.5 -18h-35v-10h35q40 0 61.5 20t21.5 66v97z" />
    <glyph glyph-name="Rcaron" unicode="&#x158;" horiz-adv-x="743" 
d="M405 620q53 0 78.5 -29t25.5 -75v-70q0 -55 -21 -85t-83 -30h-218v289h218zM295 540v-128h75q26 0 35 13.5t9 33.5v34q0 20 -9 33.5t-35 13.5h-75zM187 90v232h283q57 0 84 -24.5t27 -73.5v-134h10v134q0 52 -30 79.5t-91 27.5h-11q36 11 48 40.5t12 75.5v69
q0 49 -28 81.5t-86 32.5h-228v-540h10zM259 0h-154q-19 0 -27.5 8.5t-8.5 27.5v648q0 19 8.5 27.5t27.5 8.5h333q112 0 154.5 -46.5t42.5 -120.5v-46q0 -42 -12.5 -71.5t-43.5 -42.5q54 -6 87.5 -44t33.5 -101v-212q0 -19 -8.5 -27.5t-27.5 -8.5h-155q-19 0 -27.5 8.5
t-8.5 27.5v153q0 22 -8.5 32.5t-29.5 10.5h-140v-196q0 -19 -8.5 -27.5t-27.5 -8.5zM402 932l137 40q25 8 33 2t8 -33v-81q0 -27 -8.5 -35t-32.5 -18l-128 -46q-9 -4 -19.5 -6t-19.5 -3q-9 0 -17 1t-15 4l-137 50q-25 10 -33.5 18t-8.5 35v81q0 27 8 33t34 -2l137 -40
q17 -4 31 -4t31 4zM251 879v-11l83 -27q9 -2 17 -4t19 -2t19 2t17 4l83 27v11l-87 -28q-7 -2 -14.5 -4t-17.5 -2t-17.5 2t-14.5 4z" />
    <glyph glyph-name="rcaron" unicode="&#x159;" horiz-adv-x="743" 
d="M405 620q53 0 78.5 -29t25.5 -75v-70q0 -55 -21 -85t-83 -30h-218v289h218zM295 540v-128h75q26 0 35 13.5t9 33.5v34q0 20 -9 33.5t-35 13.5h-75zM187 90v232h283q57 0 84 -24.5t27 -73.5v-134h10v134q0 52 -30 79.5t-91 27.5h-11q36 11 48 40.5t12 75.5v69
q0 49 -28 81.5t-86 32.5h-228v-540h10zM259 0h-154q-19 0 -27.5 8.5t-8.5 27.5v648q0 19 8.5 27.5t27.5 8.5h333q112 0 154.5 -46.5t42.5 -120.5v-46q0 -42 -12.5 -71.5t-43.5 -42.5q54 -6 87.5 -44t33.5 -101v-212q0 -19 -8.5 -27.5t-27.5 -8.5h-155q-19 0 -27.5 8.5
t-8.5 27.5v153q0 22 -8.5 32.5t-29.5 10.5h-140v-196q0 -19 -8.5 -27.5t-27.5 -8.5zM402 932l137 40q25 8 33 2t8 -33v-81q0 -27 -8.5 -35t-32.5 -18l-128 -46q-9 -4 -19.5 -6t-19.5 -3q-9 0 -17 1t-15 4l-137 50q-25 10 -33.5 18t-8.5 35v81q0 27 8 33t34 -2l137 -40
q17 -4 31 -4t31 4zM251 879v-11l83 -27q9 -2 17 -4t19 -2t19 2t17 4l83 27v11l-87 -28q-7 -2 -14.5 -4t-17.5 -2t-17.5 2t-14.5 4z" />
    <glyph glyph-name="Sacute" unicode="&#x15a;" horiz-adv-x="650" 
d="M403 0h-316q-19 0 -27.5 8.5t-8.5 27.5v117q0 19 8.5 27.5t27.5 8.5h269q13 0 19.5 8.5t6.5 20.5q0 17 -6.5 25t-19.5 9l-150 21q-70 10 -112.5 46t-42.5 120v105q0 85 55 130.5t152 45.5h280q19 0 27.5 -8.5t8.5 -27.5v-119q0 -19 -8.5 -27.5t-27.5 -8.5h-233
q-13 0 -20 -8.5t-7 -21.5t7 -22t20 -10l149 -20q70 -10 113 -46t43 -120v-105q0 -85 -55.5 -130.5t-151.5 -45.5zM484 630h-222q-46 0 -74 -25.5t-28 -65.5v-82q0 -41 16.5 -56.5t42.5 -20.5l211 -43q28 -6 44.5 -23.5t16.5 -64.5v-58q0 -40 -27.5 -65.5t-73.5 -25.5h-249
v-10h249q51 0 81 28.5t30 72.5v58q0 52 -19.5 72t-49.5 26l-211 43q-23 4 -37 18t-14 49v82q0 35 25 58t67 23h222v10zM508 796l-349 -43q-17 -2 -25.5 7t-8.5 26v96q0 19 8.5 26.5t27.5 9.5l349 43q17 2 25.5 -7t8.5 -26v-96q0 -19 -8.5 -26.5t-27.5 -9.5zM215 847v-10
l239 30v10z" />
    <glyph glyph-name="sacute" unicode="&#x15b;" horiz-adv-x="650" 
d="M403 0h-316q-19 0 -27.5 8.5t-8.5 27.5v117q0 19 8.5 27.5t27.5 8.5h269q13 0 19.5 8.5t6.5 20.5q0 17 -6.5 25t-19.5 9l-150 21q-70 10 -112.5 46t-42.5 120v105q0 85 55 130.5t152 45.5h280q19 0 27.5 -8.5t8.5 -27.5v-119q0 -19 -8.5 -27.5t-27.5 -8.5h-233
q-13 0 -20 -8.5t-7 -21.5t7 -22t20 -10l149 -20q70 -10 113 -46t43 -120v-105q0 -85 -55.5 -130.5t-151.5 -45.5zM484 630h-222q-46 0 -74 -25.5t-28 -65.5v-82q0 -41 16.5 -56.5t42.5 -20.5l211 -43q28 -6 44.5 -23.5t16.5 -64.5v-58q0 -40 -27.5 -65.5t-73.5 -25.5h-249
v-10h249q51 0 81 28.5t30 72.5v58q0 52 -19.5 72t-49.5 26l-211 43q-23 4 -37 18t-14 49v82q0 35 25 58t67 23h222v10zM508 796l-349 -43q-17 -2 -25.5 7t-8.5 26v96q0 19 8.5 26.5t27.5 9.5l349 43q17 2 25.5 -7t8.5 -26v-96q0 -19 -8.5 -26.5t-27.5 -9.5zM215 847v-10
l239 30v10z" />
    <glyph glyph-name="Scircumflex" unicode="&#x15c;" horiz-adv-x="650" 
d="M403 0h-316q-19 0 -27.5 8.5t-8.5 27.5v117q0 19 8.5 27.5t27.5 8.5h269q13 0 19.5 8.5t6.5 20.5q0 17 -6.5 25t-19.5 9l-150 21q-70 10 -112.5 46t-42.5 120v105q0 85 55 130.5t152 45.5h280q19 0 27.5 -8.5t8.5 -27.5v-119q0 -19 -8.5 -27.5t-27.5 -8.5h-233
q-13 0 -20 -8.5t-7 -21.5t7 -22t20 -10l149 -20q70 -10 113 -46t43 -120v-105q0 -85 -55.5 -130.5t-151.5 -45.5zM484 630h-222q-46 0 -74 -25.5t-28 -65.5v-82q0 -41 16.5 -56.5t42.5 -20.5l211 -43q28 -6 44.5 -23.5t16.5 -64.5v-58q0 -40 -27.5 -65.5t-73.5 -25.5h-249
v-10h249q51 0 81 28.5t30 72.5v58q0 52 -19.5 72t-49.5 26l-211 43q-23 4 -37 18t-14 49v82q0 35 25 58t67 23h222v10zM293 797l-137 -40q-25 -8 -33 -2t-8 33v81q0 27 8.5 35t32.5 18l128 46q9 4 19.5 6t19.5 3q9 0 17 -1t15 -4l137 -50q25 -10 33.5 -18t8.5 -35v-81
q0 -27 -8 -33t-34 2l-137 40q-17 4 -31 4t-31 -4zM443 850v11l-83 27q-9 2 -17 4t-19 2t-19 -2t-17 -4l-83 -27v-11l87 28q7 2 14.5 4t17.5 2t17.5 -2t14.5 -4z" />
    <glyph glyph-name="scircumflex" unicode="&#x15d;" horiz-adv-x="650" 
d="M403 0h-316q-19 0 -27.5 8.5t-8.5 27.5v117q0 19 8.5 27.5t27.5 8.5h269q13 0 19.5 8.5t6.5 20.5q0 17 -6.5 25t-19.5 9l-150 21q-70 10 -112.5 46t-42.5 120v105q0 85 55 130.5t152 45.5h280q19 0 27.5 -8.5t8.5 -27.5v-119q0 -19 -8.5 -27.5t-27.5 -8.5h-233
q-13 0 -20 -8.5t-7 -21.5t7 -22t20 -10l149 -20q70 -10 113 -46t43 -120v-105q0 -85 -55.5 -130.5t-151.5 -45.5zM484 630h-222q-46 0 -74 -25.5t-28 -65.5v-82q0 -41 16.5 -56.5t42.5 -20.5l211 -43q28 -6 44.5 -23.5t16.5 -64.5v-58q0 -40 -27.5 -65.5t-73.5 -25.5h-249
v-10h249q51 0 81 28.5t30 72.5v58q0 52 -19.5 72t-49.5 26l-211 43q-23 4 -37 18t-14 49v82q0 35 25 58t67 23h222v10zM293 797l-137 -40q-25 -8 -33 -2t-8 33v81q0 27 8.5 35t32.5 18l128 46q9 4 19.5 6t19.5 3q9 0 17 -1t15 -4l137 -50q25 -10 33.5 -18t8.5 -35v-81
q0 -27 -8 -33t-34 2l-137 40q-17 4 -31 4t-31 -4zM443 850v11l-83 27q-9 2 -17 4t-19 2t-19 -2t-17 -4l-83 -27v-11l87 28q7 2 14.5 4t17.5 2t17.5 -2t14.5 -4z" />
    <glyph glyph-name="Scedilla" unicode="&#x15e;" horiz-adv-x="650" 
d="M339 -126h-126q-25 0 -31 11t1 29l32 86h-128q-19 0 -27.5 8.5t-8.5 27.5v117q0 19 8.5 27.5t27.5 8.5h269q13 0 19.5 8.5t6.5 20.5q0 17 -6.5 25t-19.5 9l-150 21q-70 10 -112.5 46t-42.5 120v105q0 85 55 130.5t152 45.5h280q19 0 27.5 -8.5t8.5 -27.5v-119
q0 -19 -8.5 -27.5t-27.5 -8.5h-233q-13 0 -20 -8.5t-7 -21.5t7 -22t20 -10l149 -20q70 -10 113 -46t43 -120v-105q0 -81 -50.5 -126.5t-140.5 -49.5l-34 -96q-5 -16 -16 -23t-30 -7zM299 -36h10l46 126h35q51 0 81 28.5t30 72.5v58q0 52 -19.5 72t-49.5 26l-211 43
q-23 4 -37 18t-14 49v82q0 35 25 58t67 23h222v10h-222q-46 0 -74 -25.5t-28 -65.5v-82q0 -41 16.5 -56.5t42.5 -20.5l211 -43q28 -6 44.5 -23.5t16.5 -64.5v-58q0 -40 -27.5 -65.5t-73.5 -25.5h-249v-10h203z" />
    <glyph glyph-name="scedilla" unicode="&#x15f;" horiz-adv-x="650" 
d="M339 -126h-126q-25 0 -31 11t1 29l32 86h-128q-19 0 -27.5 8.5t-8.5 27.5v117q0 19 8.5 27.5t27.5 8.5h269q13 0 19.5 8.5t6.5 20.5q0 17 -6.5 25t-19.5 9l-150 21q-70 10 -112.5 46t-42.5 120v105q0 85 55 130.5t152 45.5h280q19 0 27.5 -8.5t8.5 -27.5v-119
q0 -19 -8.5 -27.5t-27.5 -8.5h-233q-13 0 -20 -8.5t-7 -21.5t7 -22t20 -10l149 -20q70 -10 113 -46t43 -120v-105q0 -81 -50.5 -126.5t-140.5 -49.5l-34 -96q-5 -16 -16 -23t-30 -7zM299 -36h10l46 126h35q51 0 81 28.5t30 72.5v58q0 52 -19.5 72t-49.5 26l-211 43
q-23 4 -37 18t-14 49v82q0 35 25 58t67 23h222v10h-222q-46 0 -74 -25.5t-28 -65.5v-82q0 -41 16.5 -56.5t42.5 -20.5l211 -43q28 -6 44.5 -23.5t16.5 -64.5v-58q0 -40 -27.5 -65.5t-73.5 -25.5h-249v-10h203z" />
    <glyph glyph-name="Scaron" unicode="&#x160;" horiz-adv-x="650" 
d="M403 0h-316q-19 0 -27.5 8.5t-8.5 27.5v117q0 19 8.5 27.5t27.5 8.5h269q13 0 19.5 8.5t6.5 20.5q0 17 -6.5 25t-19.5 9l-150 21q-70 10 -112.5 46t-42.5 120v105q0 85 55 130.5t152 45.5h280q19 0 27.5 -8.5t8.5 -27.5v-119q0 -19 -8.5 -27.5t-27.5 -8.5h-233
q-13 0 -20 -8.5t-7 -21.5t7 -22t20 -10l149 -20q70 -10 113 -46t43 -120v-105q0 -85 -55.5 -130.5t-151.5 -45.5zM484 630h-222q-46 0 -74 -25.5t-28 -65.5v-82q0 -41 16.5 -56.5t42.5 -20.5l211 -43q28 -6 44.5 -23.5t16.5 -64.5v-58q0 -40 -27.5 -65.5t-73.5 -25.5h-249
v-10h249q51 0 81 28.5t30 72.5v58q0 52 -19.5 72t-49.5 26l-211 43q-23 4 -37 18t-14 49v82q0 35 25 58t67 23h222v10zM366 932l137 40q25 8 33 2t8 -33v-81q0 -27 -8.5 -35t-32.5 -18l-128 -46q-9 -4 -19.5 -6t-19.5 -3q-9 0 -17 1t-15 4l-137 50q-25 10 -33.5 18t-8.5 35
v81q0 27 8 33t34 -2l137 -40q17 -4 31 -4t31 4zM215 879v-11l83 -27q9 -2 17 -4t19 -2t19 2t17 4l83 27v11l-87 -28q-7 -2 -14.5 -4t-17.5 -2t-17.5 2t-14.5 4z" />
    <glyph glyph-name="scaron" unicode="&#x161;" horiz-adv-x="650" 
d="M403 0h-316q-19 0 -27.5 8.5t-8.5 27.5v117q0 19 8.5 27.5t27.5 8.5h269q13 0 19.5 8.5t6.5 20.5q0 17 -6.5 25t-19.5 9l-150 21q-70 10 -112.5 46t-42.5 120v105q0 85 55 130.5t152 45.5h280q19 0 27.5 -8.5t8.5 -27.5v-119q0 -19 -8.5 -27.5t-27.5 -8.5h-233
q-13 0 -20 -8.5t-7 -21.5t7 -22t20 -10l149 -20q70 -10 113 -46t43 -120v-105q0 -85 -55.5 -130.5t-151.5 -45.5zM484 630h-222q-46 0 -74 -25.5t-28 -65.5v-82q0 -41 16.5 -56.5t42.5 -20.5l211 -43q28 -6 44.5 -23.5t16.5 -64.5v-58q0 -40 -27.5 -65.5t-73.5 -25.5h-249
v-10h249q51 0 81 28.5t30 72.5v58q0 52 -19.5 72t-49.5 26l-211 43q-23 4 -37 18t-14 49v82q0 35 25 58t67 23h222v10zM366 932l137 40q25 8 33 2t8 -33v-81q0 -27 -8.5 -35t-32.5 -18l-128 -46q-9 -4 -19.5 -6t-19.5 -3q-9 0 -17 1t-15 4l-137 50q-25 10 -33.5 18t-8.5 35
v81q0 27 8 33t34 -2l137 -40q17 -4 31 -4t31 4zM215 879v-11l83 -27q9 -2 17 -4t19 -2t19 2t17 4l83 27v11l-87 -28q-7 -2 -14.5 -4t-17.5 -2t-17.5 2t-14.5 4z" />
    <glyph glyph-name="Tcommaaccent" unicode="&#x162;" horiz-adv-x="656" 
d="M409 0h-162q-19 0 -27.5 8.5t-8.5 27.5v491h-147q-19 0 -27.5 8.5t-8.5 27.5v121q0 19 8.5 27.5t27.5 8.5h528q19 0 27.5 -8.5t8.5 -27.5v-121q0 -19 -8.5 -27.5t-27.5 -8.5h-147v-491q0 -19 -8.5 -27.5t-27.5 -8.5zM323 90h10v530h205v10h-420v-10h205v-530zM319 -362
h-66q-16 0 -23 7.5t-7 23.5v34q0 16 7 23t23 7h59q11 0 17 6.5t6 17.5v13h-86q-21 0 -29 8.5t-8 30.5v109q0 22 8 30.5t29 8.5h158q21 0 29 -8.5t8 -30.5v-152q0 -64 -34 -96t-91 -32zM387 -132h-118v-10h108v-87q0 -40 -18.5 -58t-54.5 -18h-35v-10h35q40 0 61.5 20
t21.5 66v97z" />
    <glyph glyph-name="tcommaaccent" unicode="&#x163;" horiz-adv-x="656" 
d="M409 0h-162q-19 0 -27.5 8.5t-8.5 27.5v491h-147q-19 0 -27.5 8.5t-8.5 27.5v121q0 19 8.5 27.5t27.5 8.5h528q19 0 27.5 -8.5t8.5 -27.5v-121q0 -19 -8.5 -27.5t-27.5 -8.5h-147v-491q0 -19 -8.5 -27.5t-27.5 -8.5zM323 90h10v530h205v10h-420v-10h205v-530zM319 -362
h-66q-16 0 -23 7.5t-7 23.5v34q0 16 7 23t23 7h59q11 0 17 6.5t6 17.5v13h-86q-21 0 -29 8.5t-8 30.5v109q0 22 8 30.5t29 8.5h158q21 0 29 -8.5t8 -30.5v-152q0 -64 -34 -96t-91 -32zM387 -132h-118v-10h108v-87q0 -40 -18.5 -58t-54.5 -18h-35v-10h35q40 0 61.5 20
t21.5 66v97z" />
    <glyph glyph-name="Tcaron" unicode="&#x164;" horiz-adv-x="656" 
d="M409 0h-162q-19 0 -27.5 8.5t-8.5 27.5v491h-147q-19 0 -27.5 8.5t-8.5 27.5v121q0 19 8.5 27.5t27.5 8.5h528q19 0 27.5 -8.5t8.5 -27.5v-121q0 -19 -8.5 -27.5t-27.5 -8.5h-147v-491q0 -19 -8.5 -27.5t-27.5 -8.5zM323 90h10v530h205v10h-420v-10h205v-530zM359 932
l137 40q25 8 33 2t8 -33v-81q0 -27 -8.5 -35t-32.5 -18l-128 -46q-9 -4 -19.5 -6t-19.5 -3q-9 0 -17 1t-15 4l-137 50q-25 10 -33.5 18t-8.5 35v81q0 27 8 33t34 -2l137 -40q17 -4 31 -4t31 4zM208 879v-11l83 -27q9 -2 17 -4t19 -2t19 2t17 4l83 27v11l-87 -28
q-7 -2 -14.5 -4t-17.5 -2t-17.5 2t-14.5 4z" />
    <glyph glyph-name="tcaron" unicode="&#x165;" horiz-adv-x="656" 
d="M409 0h-162q-19 0 -27.5 8.5t-8.5 27.5v491h-147q-19 0 -27.5 8.5t-8.5 27.5v121q0 19 8.5 27.5t27.5 8.5h528q19 0 27.5 -8.5t8.5 -27.5v-121q0 -19 -8.5 -27.5t-27.5 -8.5h-147v-491q0 -19 -8.5 -27.5t-27.5 -8.5zM323 90h10v530h205v10h-420v-10h205v-530zM359 932
l137 40q25 8 33 2t8 -33v-81q0 -27 -8.5 -35t-32.5 -18l-128 -46q-9 -4 -19.5 -6t-19.5 -3q-9 0 -17 1t-15 4l-137 50q-25 10 -33.5 18t-8.5 35v81q0 27 8 33t34 -2l137 -40q17 -4 31 -4t31 4zM208 879v-11l83 -27q9 -2 17 -4t19 -2t19 2t17 4l83 27v11l-87 -28
q-7 -2 -14.5 -4t-17.5 -2t-17.5 2t-14.5 4z" />
    <glyph glyph-name="Tbar" unicode="&#x166;" horiz-adv-x="656" 
d="M445 36q0 -19 -8.5 -27.5t-27.5 -8.5h-162q-19 0 -27.5 8.5t-8.5 27.5v186h-77q-19 0 -27.5 8.5t-8.5 27.5v107q0 19 8.5 27.5t27.5 8.5h77v126h-147q-19 0 -27.5 8.5t-8.5 27.5v121q0 19 8.5 27.5t27.5 8.5h528q19 0 27.5 -8.5t8.5 -27.5v-121q0 -19 -8.5 -27.5
t-27.5 -8.5h-147v-126h76q19 0 27.5 -8.5t8.5 -27.5v-107q0 -19 -8.5 -27.5t-27.5 -8.5h-76v-186zM467 306v10h-134v304h205v10h-420v-10h205v-304h-135v-10h135v-216h10v216h134z" />
    <glyph glyph-name="tbar" unicode="&#x167;" horiz-adv-x="656" 
d="M445 36q0 -19 -8.5 -27.5t-27.5 -8.5h-162q-19 0 -27.5 8.5t-8.5 27.5v186h-77q-19 0 -27.5 8.5t-8.5 27.5v107q0 19 8.5 27.5t27.5 8.5h77v126h-147q-19 0 -27.5 8.5t-8.5 27.5v121q0 19 8.5 27.5t27.5 8.5h528q19 0 27.5 -8.5t8.5 -27.5v-121q0 -19 -8.5 -27.5
t-27.5 -8.5h-147v-126h76q19 0 27.5 -8.5t8.5 -27.5v-107q0 -19 -8.5 -27.5t-27.5 -8.5h-76v-186zM467 306v10h-134v304h205v10h-420v-10h205v-304h-135v-10h135v-216h10v216h134z" />
    <glyph glyph-name="Utilde" unicode="&#x168;" horiz-adv-x="746" 
d="M682 189q0 -46 -13.5 -83.5t-48 -64t-94.5 -41.5t-153 -15t-153 15t-94.5 41.5t-48 64t-13.5 83.5v495q0 19 8.5 27.5t27.5 8.5h157q19 0 27.5 -8.5t8.5 -27.5v-456q0 -20 15 -33.5t67 -13.5q53 0 68 13.5t15 33.5v456q0 19 8.5 27.5t27.5 8.5h152q19 0 27.5 -8.5
t8.5 -27.5v-495zM174 630v-417q0 -60 41.5 -97.5t158.5 -37.5t159 37.5t42 97.5v417h-10v-417q0 -56 -40 -90.5t-151 -34.5t-150.5 34.5t-39.5 90.5v417h-10zM372 764l-28 4q-28 4 -47 5.5t-34 0t-29.5 -5t-34.5 -9.5q-18 -5 -27 1t-9 25v101q0 19 9.5 26.5t26.5 14.5
q24 7 40 10.5t31.5 3.5t35 -2.5t49.5 -6.5l17 -2l22 -3q33 -5 52.5 -7t34 -1t28.5 5t36 11q18 5 27 -1t9 -25v-101q0 -19 -9.5 -26.5t-26.5 -14.5q-24 -7 -40 -10.5t-32 -3.5t-35.5 2.5t-49.5 6.5zM491 841q-20 -2 -42 0t-60 8l-16 2l-28 4q-34 4 -54.5 5.5t-37.5 -0.5v-11
q16 3 36.5 2t53.5 -6l28 -4l16 -2q38 -6 61 -8t43 0v10z" />
    <glyph glyph-name="utilde" unicode="&#x169;" horiz-adv-x="746" 
d="M682 189q0 -46 -13.5 -83.5t-48 -64t-94.5 -41.5t-153 -15t-153 15t-94.5 41.5t-48 64t-13.5 83.5v495q0 19 8.5 27.5t27.5 8.5h157q19 0 27.5 -8.5t8.5 -27.5v-456q0 -20 15 -33.5t67 -13.5q53 0 68 13.5t15 33.5v456q0 19 8.5 27.5t27.5 8.5h152q19 0 27.5 -8.5
t8.5 -27.5v-495zM174 630v-417q0 -60 41.5 -97.5t158.5 -37.5t159 37.5t42 97.5v417h-10v-417q0 -56 -40 -90.5t-151 -34.5t-150.5 34.5t-39.5 90.5v417h-10zM372 764l-28 4q-28 4 -47 5.5t-34 0t-29.5 -5t-34.5 -9.5q-18 -5 -27 1t-9 25v101q0 19 9.5 26.5t26.5 14.5
q24 7 40 10.5t31.5 3.5t35 -2.5t49.5 -6.5l17 -2l22 -3q33 -5 52.5 -7t34 -1t28.5 5t36 11q18 5 27 -1t9 -25v-101q0 -19 -9.5 -26.5t-26.5 -14.5q-24 -7 -40 -10.5t-32 -3.5t-35.5 2.5t-49.5 6.5zM491 841q-20 -2 -42 0t-60 8l-16 2l-28 4q-34 4 -54.5 5.5t-37.5 -0.5v-11
q16 3 36.5 2t53.5 -6l28 -4l16 -2q38 -6 61 -8t43 0v10z" />
    <glyph glyph-name="Umacron" unicode="&#x16a;" horiz-adv-x="746" 
d="M682 189q0 -46 -13.5 -83.5t-48 -64t-94.5 -41.5t-153 -15t-153 15t-94.5 41.5t-48 64t-13.5 83.5v495q0 19 8.5 27.5t27.5 8.5h157q19 0 27.5 -8.5t8.5 -27.5v-456q0 -20 15 -33.5t67 -13.5q53 0 68 13.5t15 33.5v456q0 19 8.5 27.5t27.5 8.5h152q19 0 27.5 -8.5
t8.5 -27.5v-495zM174 630v-417q0 -60 41.5 -97.5t158.5 -37.5t159 37.5t42 97.5v417h-10v-417q0 -56 -40 -90.5t-151 -34.5t-150.5 34.5t-39.5 90.5v417h-10zM546 760h-347q-19 0 -27.5 8.5t-8.5 27.5v93q0 19 8.5 27.5t27.5 8.5h347q19 0 27.5 -8.5t8.5 -27.5v-93
q0 -19 -8.5 -27.5t-27.5 -8.5zM253 847v-10h239v10h-239z" />
    <glyph glyph-name="umacron" unicode="&#x16b;" horiz-adv-x="746" 
d="M682 189q0 -46 -13.5 -83.5t-48 -64t-94.5 -41.5t-153 -15t-153 15t-94.5 41.5t-48 64t-13.5 83.5v495q0 19 8.5 27.5t27.5 8.5h157q19 0 27.5 -8.5t8.5 -27.5v-456q0 -20 15 -33.5t67 -13.5q53 0 68 13.5t15 33.5v456q0 19 8.5 27.5t27.5 8.5h152q19 0 27.5 -8.5
t8.5 -27.5v-495zM174 630v-417q0 -60 41.5 -97.5t158.5 -37.5t159 37.5t42 97.5v417h-10v-417q0 -56 -40 -90.5t-151 -34.5t-150.5 34.5t-39.5 90.5v417h-10zM546 760h-347q-19 0 -27.5 8.5t-8.5 27.5v93q0 19 8.5 27.5t27.5 8.5h347q19 0 27.5 -8.5t8.5 -27.5v-93
q0 -19 -8.5 -27.5t-27.5 -8.5zM253 847v-10h239v10h-239z" />
    <glyph glyph-name="Ubreve" unicode="&#x16c;" horiz-adv-x="746" 
d="M682 189q0 -46 -13.5 -83.5t-48 -64t-94.5 -41.5t-153 -15t-153 15t-94.5 41.5t-48 64t-13.5 83.5v495q0 19 8.5 27.5t27.5 8.5h157q19 0 27.5 -8.5t8.5 -27.5v-456q0 -20 15 -33.5t67 -13.5q53 0 68 13.5t15 33.5v456q0 19 8.5 27.5t27.5 8.5h152q19 0 27.5 -8.5
t8.5 -27.5v-495zM174 630v-417q0 -60 41.5 -97.5t158.5 -37.5t159 37.5t42 97.5v417h-10v-417q0 -56 -40 -90.5t-151 -34.5t-150.5 34.5t-39.5 90.5v417h-10zM590 897q0 -32 -9.5 -58.5t-34 -45t-66.5 -29t-107 -10.5t-107 10.5t-66.5 29t-34 45t-9.5 58.5v44q0 19 8.5 27.5
t27.5 8.5h96q16 0 22.5 -6.5t6.5 -24.5v-21q0 -14 10 -23.5t47 -9.5t48 9.5t11 23.5v21q0 18 6.5 24.5t23.5 6.5h91q19 0 27.5 -8.5t8.5 -27.5v-44zM507 907v-9q0 -27 -27 -48.5t-108 -21.5t-105.5 21.5t-24.5 48.5v9h-10v-9q0 -14 4.5 -28.5t19 -26t42.5 -18.5t74 -7t75 7
t44 18.5t20.5 26t5.5 28.5v9h-10z" />
    <glyph glyph-name="ubreve" unicode="&#x16d;" horiz-adv-x="746" 
d="M682 189q0 -46 -13.5 -83.5t-48 -64t-94.5 -41.5t-153 -15t-153 15t-94.5 41.5t-48 64t-13.5 83.5v495q0 19 8.5 27.5t27.5 8.5h157q19 0 27.5 -8.5t8.5 -27.5v-456q0 -20 15 -33.5t67 -13.5q53 0 68 13.5t15 33.5v456q0 19 8.5 27.5t27.5 8.5h152q19 0 27.5 -8.5
t8.5 -27.5v-495zM174 630v-417q0 -60 41.5 -97.5t158.5 -37.5t159 37.5t42 97.5v417h-10v-417q0 -56 -40 -90.5t-151 -34.5t-150.5 34.5t-39.5 90.5v417h-10zM590 897q0 -32 -9.5 -58.5t-34 -45t-66.5 -29t-107 -10.5t-107 10.5t-66.5 29t-34 45t-9.5 58.5v44q0 19 8.5 27.5
t27.5 8.5h96q16 0 22.5 -6.5t6.5 -24.5v-21q0 -14 10 -23.5t47 -9.5t48 9.5t11 23.5v21q0 18 6.5 24.5t23.5 6.5h91q19 0 27.5 -8.5t8.5 -27.5v-44zM507 907v-9q0 -27 -27 -48.5t-108 -21.5t-105.5 21.5t-24.5 48.5v9h-10v-9q0 -14 4.5 -28.5t19 -26t42.5 -18.5t74 -7t75 7
t44 18.5t20.5 26t5.5 28.5v9h-10z" />
    </font>
</defs>
</svg>
